<svg id="SvgjsSvg1014" xmlns="http://www.w3.org/2000/svg" version="1.1" xmlns:xlink="http://www.w3.org/1999/xlink" xmlns:svgjs="http://svgjs.com/svgjs" width="10" height="10" viewBox="0 0 10 10"><title>1</title><desc>Created with Avocode.</desc><defs id="SvgjsDefs1015"></defs><path id="SvgjsPath1016" d="M337.903 1887.62C337.978 1887.55 338.011 1887.4899999999998 338 1887.3899999999999C338 1887.3899999999999 338 1885.6499999999999 338 1885.4599999999998C340.2 1885.4599999999998 342.19 1886.9899999999998 342.585 1888.9999999999998C342.84999999999997 1888.4099999999999 343 1887.7599999999998 343 1887.0799999999997C343 1884.4099999999996 340.759 1882.2499999999998 337.994 1882.2499999999998L337.994 1880.3599999999997C338.00600000000003 1880.2599999999998 337.97900000000004 1880.1599999999996 337.903 1880.0899999999997C337.771 1879.9599999999996 337.557 1879.9599999999996 337.425 1880.0899999999997L334.095 1883.6099999999997C334.02500000000003 1883.6799999999996 333.994 1883.7699999999998 333.999 1883.8599999999997C333.994 1883.9399999999996 334.02500000000003 1884.0299999999997 334.095 1884.0999999999997L337.406 1887.5999999999997C337.53000000000003 1887.6999999999996 337.757 1887.7599999999998 337.903 1887.6199999999997Z " fill="#cecece" fill-opacity="1" transform="matrix(1,0,0,1,-333,-1879)"></path></svg>