<?xml version="1.0" encoding="utf-8"?>
<!-- Generator: Adobe Illustrator 17.1.0, SVG Export Plug-In . SVG Version: 6.00 Build 0)  -->
<!DOCTYPE svg PUBLIC "-//W3C//DTD SVG 1.1//EN" "http://www.w3.org/Graphics/SVG/1.1/DTD/svg11.dtd">
<svg version="1.1" id="Слой_1" xmlns="http://www.w3.org/2000/svg" xmlns:xlink="http://www.w3.org/1999/xlink" x="0px" y="0px"
	 width="416px" height="235px" viewBox="0 0 416 235" enable-background="new 0 0 416 235" xml:space="preserve">
<path fill="#F7FCFE" d="M348.5,61.1H94.8c-18.2,0-18.2,30.3,0,30.3h37c19.1,0,19.1,32.7,0,32.7H35.2c-17.6,0-17.6,31.1,0,31.1H107
	c22.8,0,22.8,32.1,0,32.1H82.3c-16.8,0-16.8,31.6,0,31.6h300.5c18,0,18-29.9,0-29.9h-90.7c-20.2,0-20.2-32.7,0-32.7h59.3
	c18.2,0,18.2-31.7,0-31.7h-36.3c-14.9,0-14.9-32,0-32c0,0,33.3-0.1,33.4-0.1C371.4,92.6,371.3,61,348.5,61.1z"/>
<path fill="#F3FAFE" d="M333.7,52.7H80c-18.2,0-18.2,30.3,0,30.3h37c19.1,0,19.1,32.7,0,32.7H20.4c-17.6,0-17.6,31.1,0,31.1h71.9
	c22.8,0,22.8,32.1,0,32.1H67.5c-16.8,0-16.8,31.6,0,31.6H368c18,0,18-29.9,0-29.9h-90.7c-20.2,0-20.2-32.7,0-32.7h59.3
	c18.2,0,18.2-31.7,0-31.7h-36.3c-14.9,0-14.9-32,0-32c0,0,33.3-0.1,33.4-0.1C356.6,84.2,356.5,52.7,333.7,52.7z"/>
<path fill="#DBEDFA" d="M326.5,203c0-1.7-9.4-3.3-25.2-4.5c0.9,2.4-89.2,1.7-89.2,1.7s-45.4,5.8-46.2-3.8
	c-39.9,1.1-67.7,3.7-67.7,6.6c0,4,51.1,7.2,114.1,7.2S326.5,207,326.5,203z"/>
<polygon fill="#DAE7ED" points="137.8,197.4 164.7,197.7 165.3,203.3 168.1,203.3 168.1,207.4 "/>
<path fill="#F3FAFE" d="M168.1,203.3c0.1,0,133,0,133,0l1.8,4.1H167.9C167.9,207.4,168,203.3,168.1,203.3z"/>
<polygon fill="#F3FAFE" points="157,120.1 167.1,199.3 299.1,199.3 300.9,203.3 165.3,203.3 "/>
<polygon fill="#DAE7ED" points="150.6,67.1 137.8,197.4 165.3,197.4 "/>
<line fill="none" stroke="#526C7D" stroke-width="2" stroke-linecap="round" stroke-linejoin="round" stroke-miterlimit="10" x1="150.8" y1="64.8" x2="137.8" y2="197.4"/>
<line fill="none" stroke="#526C7D" stroke-width="2" stroke-linecap="round" stroke-linejoin="round" stroke-miterlimit="10" x1="137.8" y1="197.4" x2="168.1" y2="207.4"/>
<line fill="none" stroke="#526C7D" stroke-width="2" stroke-linecap="round" stroke-linejoin="round" stroke-miterlimit="10" x1="168.1" y1="207.4" x2="302.6" y2="207.4"/>
<line fill="none" stroke="#526C7D" stroke-width="2" stroke-linecap="round" stroke-linejoin="round" stroke-miterlimit="10" x1="302.6" y1="207.4" x2="299.1" y2="199.3"/>
<line fill="none" stroke="#526C7D" stroke-width="2" stroke-linecap="round" stroke-linejoin="round" stroke-miterlimit="10" x1="301.5" y1="199.3" x2="167.1" y2="199.3"/>
<path fill="none" stroke="#526C7D" stroke-width="2" stroke-linecap="round" stroke-linejoin="round" stroke-miterlimit="10" d="
	M154.5,95.7c-0.2-1.6-0.4-3.2-0.6-4.8"/>
<path fill="none" stroke="#526C7D" stroke-width="2" stroke-linecap="round" stroke-linejoin="round" stroke-miterlimit="10" d="
	M167.3,199.2c-3.6-31.1-7.9-62.1-11.8-93.1"/>
<line fill="none" stroke="#526C7D" stroke-width="2" stroke-linecap="round" stroke-linejoin="round" stroke-miterlimit="10" x1="150.8" y1="64.8" x2="277.3" y2="63.9"/>
<line fill="none" stroke="#526C7D" stroke-width="2" stroke-linecap="round" stroke-linejoin="round" stroke-miterlimit="10" x1="277.3" y1="63.9" x2="301.5" y2="199.3"/>
<path fill="none" stroke="#526C7D" stroke-width="2" stroke-linecap="round" stroke-linejoin="round" stroke-miterlimit="10" d="
	M155.8,109.7c3.2,31.2,6.9,62.4,9.3,93.6"/>
<path fill="none" stroke="#526C7D" stroke-width="2" stroke-linecap="round" stroke-linejoin="round" stroke-miterlimit="10" d="
	M150.8,64.8c0.7,6.7,1.4,13.5,2.1,20.2"/>
<line fill="none" stroke="#526C7D" stroke-width="2" stroke-linecap="round" stroke-linejoin="round" stroke-miterlimit="10" x1="165.3" y1="203.3" x2="300.9" y2="203.3"/>
<line fill="none" stroke="#526C7D" stroke-width="2" stroke-linecap="round" stroke-linejoin="round" stroke-miterlimit="10" x1="168.1" y1="203.3" x2="168.1" y2="207.4"/>
<line fill="none" stroke="#526C7D" stroke-width="2" stroke-linecap="round" stroke-linejoin="round" stroke-miterlimit="10" x1="137.8" y1="197.4" x2="164.4" y2="197.4"/>
<line fill="none" stroke="#526C7D" stroke-width="2" stroke-linecap="round" stroke-linejoin="round" stroke-miterlimit="10" x1="138.6" y1="189.1" x2="131.5" y2="189.1"/>
<path fill="none" stroke="#526C7D" stroke-width="2" stroke-linecap="round" stroke-linejoin="round" stroke-miterlimit="10" d="
	M136,160.9c4.1-31.8,8.1-63.8,14.8-96.1"/>
<path fill="none" stroke="#526C7D" stroke-width="2" stroke-linecap="round" stroke-linejoin="round" stroke-miterlimit="10" d="
	M133.3,177.5c0.3-1.8,0.6-3.6,0.9-5.3"/>
<path fill="none" stroke="#526C7D" stroke-width="2" stroke-linecap="round" stroke-linejoin="round" stroke-miterlimit="10" d="
	M131.5,189.1c0.4-2.3,0.7-4.7,1.1-7"/>
<path fill="none" stroke="#526C7D" stroke-width="2" stroke-linecap="round" stroke-linejoin="round" stroke-miterlimit="10" d="
	M154.3,64.4c1.6-7.4,7.4-5,4.7,4.3"/>
<circle fill="none" stroke="#526C7D" stroke-width="2" stroke-linecap="round" stroke-linejoin="round" stroke-miterlimit="10" cx="158.6" cy="69.2" r="2.1"/>
<path fill="none" stroke="#526C7D" stroke-width="2" stroke-linecap="round" stroke-linejoin="round" stroke-miterlimit="10" d="
	M162.1,64.4c1.6-7.4,7.4-5,4.7,4.3"/>
<circle fill="none" stroke="#526C7D" stroke-width="2" stroke-linecap="round" stroke-linejoin="round" stroke-miterlimit="10" cx="166.4" cy="69.2" r="2.1"/>
<path fill="none" stroke="#526C7D" stroke-width="2" stroke-linecap="round" stroke-linejoin="round" stroke-miterlimit="10" d="
	M169.6,64.4c1.6-7.4,7.4-5,4.7,4.3"/>
<circle fill="none" stroke="#526C7D" stroke-width="2" stroke-linecap="round" stroke-linejoin="round" stroke-miterlimit="10" cx="173.9" cy="69.2" r="2.1"/>
<path fill="none" stroke="#526C7D" stroke-width="2" stroke-linecap="round" stroke-linejoin="round" stroke-miterlimit="10" d="
	M177.5,64.4c1.6-7.4,7.4-5,4.7,4.3"/>
<circle fill="none" stroke="#526C7D" stroke-width="2" stroke-linecap="round" stroke-linejoin="round" stroke-miterlimit="10" cx="181.8" cy="69.2" r="2.1"/>
<path fill="none" stroke="#526C7D" stroke-width="2" stroke-linecap="round" stroke-linejoin="round" stroke-miterlimit="10" d="
	M184.7,64.4c1.6-7.4,7.4-5,4.7,4.3"/>
<circle fill="none" stroke="#526C7D" stroke-width="2" stroke-linecap="round" stroke-linejoin="round" stroke-miterlimit="10" cx="189" cy="69.2" r="2.1"/>
<path fill="none" stroke="#526C7D" stroke-width="2" stroke-linecap="round" stroke-linejoin="round" stroke-miterlimit="10" d="
	M192.5,64.4c1.6-7.4,7.4-5,4.7,4.3"/>
<circle fill="none" stroke="#526C7D" stroke-width="2" stroke-linecap="round" stroke-linejoin="round" stroke-miterlimit="10" cx="196.8" cy="69.2" r="2.1"/>
<path fill="none" stroke="#526C7D" stroke-width="2" stroke-linecap="round" stroke-linejoin="round" stroke-miterlimit="10" d="
	M200.2,64.4c1.6-7.4,7.4-5,4.7,4.3"/>
<circle fill="none" stroke="#526C7D" stroke-width="2" stroke-linecap="round" stroke-linejoin="round" stroke-miterlimit="10" cx="204.5" cy="69.2" r="2.1"/>
<path fill="none" stroke="#526C7D" stroke-width="2" stroke-linecap="round" stroke-linejoin="round" stroke-miterlimit="10" d="
	M208,64.4c1.6-7.4,7.4-5,4.7,4.3"/>
<circle fill="none" stroke="#526C7D" stroke-width="2" stroke-linecap="round" stroke-linejoin="round" stroke-miterlimit="10" cx="212.4" cy="69.2" r="2.1"/>
<path fill="none" stroke="#526C7D" stroke-width="2" stroke-linecap="round" stroke-linejoin="round" stroke-miterlimit="10" d="
	M215.6,64.4c1.6-7.4,7.4-5,4.7,4.3"/>
<circle fill="none" stroke="#526C7D" stroke-width="2" stroke-linecap="round" stroke-linejoin="round" stroke-miterlimit="10" cx="219.9" cy="69.2" r="2.1"/>
<path fill="none" stroke="#526C7D" stroke-width="2" stroke-linecap="round" stroke-linejoin="round" stroke-miterlimit="10" d="
	M223.4,64.4c1.6-7.4,7.4-5,4.7,4.3"/>
<circle fill="none" stroke="#526C7D" stroke-width="2" stroke-linecap="round" stroke-linejoin="round" stroke-miterlimit="10" cx="227.7" cy="69.2" r="2.1"/>
<path fill="none" stroke="#526C7D" stroke-width="2" stroke-linecap="round" stroke-linejoin="round" stroke-miterlimit="10" d="
	M230.6,64.4c1.6-7.4,7.4-5,4.7,4.3"/>
<circle fill="none" stroke="#526C7D" stroke-width="2" stroke-linecap="round" stroke-linejoin="round" stroke-miterlimit="10" cx="234.9" cy="69.2" r="2.1"/>
<path fill="none" stroke="#526C7D" stroke-width="2" stroke-linecap="round" stroke-linejoin="round" stroke-miterlimit="10" d="
	M238.4,64.4c1.6-7.4,7.4-5,4.7,4.3"/>
<circle fill="#FED378" cx="194.6" cy="139.7" r="7.2"/>
<ellipse fill="#99CCEE" cx="245.4" cy="167.6" rx="7.9" ry="7.4"/>
<circle fill="none" stroke="#526C7D" stroke-width="2" stroke-linecap="round" stroke-linejoin="round" stroke-miterlimit="10" cx="242.8" cy="69.2" r="2.1"/>
<path fill="none" stroke="#526C7D" stroke-width="2" stroke-linecap="round" stroke-linejoin="round" stroke-miterlimit="10" d="
	M246.7,64.4c1.6-7.4,7.4-5,4.7,4.3"/>
<circle fill="none" stroke="#526C7D" stroke-width="2" stroke-linecap="round" stroke-linejoin="round" stroke-miterlimit="10" cx="251" cy="69.2" r="2.1"/>
<path fill="none" stroke="#526C7D" stroke-width="2" stroke-linecap="round" stroke-linejoin="round" stroke-miterlimit="10" d="
	M254.5,64.4c1.6-7.4,7.4-5,4.7,4.3"/>
<circle fill="none" stroke="#526C7D" stroke-width="2" stroke-linecap="round" stroke-linejoin="round" stroke-miterlimit="10" cx="258.8" cy="69.2" r="2.1"/>
<path fill="none" stroke="#526C7D" stroke-width="2" stroke-linecap="round" stroke-linejoin="round" stroke-miterlimit="10" d="
	M261.7,64.4c1.6-7.4,7.4-5,4.7,4.3"/>
<circle fill="none" stroke="#526C7D" stroke-width="2" stroke-linecap="round" stroke-linejoin="round" stroke-miterlimit="10" cx="266" cy="69.2" r="2.1"/>
<path fill="none" stroke="#526C7D" stroke-width="2" stroke-linecap="round" stroke-linejoin="round" stroke-miterlimit="10" d="
	M269.5,64.4c1.6-7.4,7.4-5,4.7,4.3"/>
<circle fill="none" stroke="#526C7D" stroke-width="2" stroke-linecap="round" stroke-linejoin="round" stroke-miterlimit="10" cx="273.8" cy="69.2" r="2.1"/>
<text transform="matrix(1 0 0 1 190.0674 92.4392)" fill="#526C7D" font-family="'BloggerSans-Bold'" font-size="15.35">February</text>
<g>
	
		<text transform="matrix(1 0 0 1 167.4919 114.6013)" fill="#526B7D" font-family="'BloggerSans-Bold'" font-size="11.5812" letter-spacing="11">mtwtfss</text>
</g>
<text transform="matrix(1 0 0 1 169.6168 128.9403)" fill="#819BA9" font-family="'BloggerSans-Bold'" font-size="10.1813">31</text>
<g>
	<text transform="matrix(1 0 0 1 191.3175 128.9403)" fill="#526B7D" font-family="'BloggerSans-Bold'" font-size="10.1813">1</text>
</g>
<g>
	<text transform="matrix(1 0 0 1 172.3044 143.3779)" fill="#526B7D" font-family="'BloggerSans-Bold'" font-size="10.1813">7</text>
</g>
<text transform="matrix(1 0 0 1 191.8801 143.3779)" fill="#FFFFFF" font-family="'BloggerSans-Medium'" font-size="10.1813">8</text>
<g>
	<text transform="matrix(1 0 0 1 170.0563 155.6279)" fill="#526B7D" font-family="'BloggerSans-Bold'" font-size="10.1813">14</text>
</g>
<g>
	<text transform="matrix(1 0 0 1 187.132 155.6279)" fill="#526B7D" font-family="'BloggerSans-Bold'" font-size="10.1813">15</text>
</g>
<g>
	<text transform="matrix(1 0 0 1 203.632 155.6279)" fill="#526B7D" font-family="'BloggerSans-Bold'" font-size="10.1813">16</text>
</g>
<g>
	<text transform="matrix(1 0 0 1 219.882 155.6279)" fill="#526B7D" font-family="'BloggerSans-Bold'" font-size="10.1813">17</text>
</g>
<g>
	<text transform="matrix(1 0 0 1 235.632 155.6279)" fill="#526B7D" font-family="'BloggerSans-Bold'" font-size="10.1813">18</text>
</g>
<g>
	<text transform="matrix(1 0 0 1 252.507 155.6279)" fill="#526B7D" font-family="'BloggerSans-Bold'" font-size="10.1813">19</text>
</g>
<g>
	<text transform="matrix(1 0 0 1 268.507 155.6279)" fill="#526B7D" font-family="'BloggerSans-Bold'" font-size="10.1813">20</text>
</g>
<g>
	<text transform="matrix(1 0 0 1 174.3063 171.1281)" fill="#526B7D" font-family="'BloggerSans-Bold'" font-size="10.1813">21</text>
</g>
<g>
	<text transform="matrix(1 0 0 1 191.382 171.1281)" fill="#526B7D" font-family="'BloggerSans-Bold'" font-size="10.1813">22</text>
</g>
<g>
	<text transform="matrix(1 0 0 1 207.882 171.1281)" fill="#526B7D" font-family="'BloggerSans-Bold'" font-size="10.1813">23</text>
</g>
<g>
	<text transform="matrix(1 0 0 1 224.132 171.1281)" fill="#526B7D" font-family="'BloggerSans-Bold'" font-size="10.1813">24</text>
</g>
<text transform="matrix(1 0 0 1 239.882 171.1281)" fill="#FFFFFF" font-family="'BloggerSans-Bold'" font-size="10.1813">25</text>
<g>
	<text transform="matrix(1 0 0 1 256.757 171.1281)" fill="#526B7D" font-family="'BloggerSans-Bold'" font-size="10.1813">26</text>
</g>
<g>
	<text transform="matrix(1 0 0 1 272.757 171.1281)" fill="#526B7D" font-family="'BloggerSans-Bold'" font-size="10.1813">27</text>
</g>
<g>
	<text transform="matrix(1 0 0 1 177.4313 184.7531)" fill="#526B7D" font-family="'BloggerSans-Bold'" font-size="10.1813">29</text>
</g>
<g>
	<text transform="matrix(1 0 0 1 197.2561 184.7531)" fill="#819BAA" font-family="'BloggerSans-Bold'" font-size="10.1813">1</text>
</g>
<g>
	<text transform="matrix(1 0 0 1 213.7561 184.7531)" fill="#819BAA" font-family="'BloggerSans-Bold'" font-size="10.1813">2</text>
</g>
<g>
	<text transform="matrix(1 0 0 1 230.0061 184.7531)" fill="#819BAA" font-family="'BloggerSans-Bold'" font-size="10.1813">3</text>
</g>
<g>
	<text transform="matrix(1 0 0 1 245.7561 184.7531)" fill="#819BAA" font-family="'BloggerSans-Bold'" font-size="10.1813">4</text>
</g>
<g>
	<text transform="matrix(1 0 0 1 262.6311 184.7531)" fill="#819BAA" font-family="'BloggerSans-Bold'" font-size="10.1813">5</text>
</g>
<g>
	<text transform="matrix(1 0 0 1 278.6311 184.7531)" fill="#819BAA" font-family="'BloggerSans-Bold'" font-size="10.1813">6</text>
</g>
<path fill="#99CCEE" stroke="#526C7D" stroke-width="2" stroke-linecap="round" stroke-linejoin="round" stroke-miterlimit="10" d="
	M293.7,139.7c0,4.9-4,8.9-8.9,8.9h-31l-9.4,8.5l-9.1-8.5h-30.9c-4.9,0-8.9-4-8.9-8.9v-16.2c0-4.9,4-8.9,8.9-8.9h80.4
	c4.9,0,8.9,4,8.9,8.9v1.6"/>
<line fill="#99CCEE" stroke="#526C7D" stroke-width="2" stroke-linecap="round" stroke-linejoin="round" stroke-miterlimit="10" x1="293.7" y1="128.7" x2="293.7" y2="133.7"/>
<circle fill="#FFFFFF" cx="215" cy="131.7" r="8.4"/>
<path fill="#FFFFFF" d="M283.8,131.7c0,1-0.8,1.9-1.9,1.9h-49.2c-1,0-1.9-0.8-1.9-1.9l0,0c0-1,0.8-1.9,1.9-1.9h49.2
	C283,129.8,283.8,130.7,283.8,131.7L283.8,131.7z"/>
<line fill="none" stroke="#526C7D" stroke-linecap="round" stroke-linejoin="round" stroke-miterlimit="10" x1="142.3" y1="194.1" x2="143.3" y2="184.8"/>
<path fill="none" stroke="#526C7D" stroke-width="2" stroke-linecap="round" stroke-linejoin="round" stroke-miterlimit="10" d="
	M277,87.7c0.3,1.6,0.6,3.1,0.9,4.7"/>
<path fill="none" stroke="#526C7D" stroke-width="2" stroke-linecap="round" stroke-linejoin="round" stroke-miterlimit="10" d="
	M275.3,78c0.4,2,0.7,4,1.1,6"/>
<line fill="none" stroke="#526C7D" stroke-width="2" stroke-linecap="round" stroke-linejoin="round" stroke-miterlimit="10" x1="170.8" y1="196.4" x2="182.9" y2="196.4"/>
<line fill="none" stroke="#526C7D" stroke-width="2" stroke-linecap="round" stroke-linejoin="round" stroke-miterlimit="10" x1="187.4" y1="196.4" x2="191.3" y2="196.4"/>
<line fill="none" stroke="#526C7D" stroke-width="2" stroke-linecap="round" stroke-linejoin="round" stroke-miterlimit="10" x1="170.8" y1="196.4" x2="170" y2="191.1"/>
<circle fill="#DBEDFA" cx="154.6" cy="44.7" r="2.7"/>
<circle fill="#DBEDFA" cx="189.9" cy="51.9" r="1.5"/>
<circle fill="#DBEDFA" cx="228.1" cy="51.2" r="3.8"/>
<circle fill="#DBEDFA" cx="259.6" cy="36.5" r="0.8"/>
<circle fill="#DBEDFA" cx="212.2" cy="24.9" r="2.8"/>
<circle fill="#DBEDFA" cx="287.3" cy="66.1" r="4.1"/>
<circle fill="#DBEDFA" cx="288.9" cy="89.3" r="1.5"/>
<circle fill="#DBEDFA" cx="309.8" cy="97.1" r="1.4"/>
<circle fill="#DBEDFA" cx="305.2" cy="129.4" r="1.8"/>
<ellipse fill="#DBEDFA" cx="316.3" cy="141.5" rx="1.3" ry="1"/>
<circle fill="#DBEDFA" cx="315.1" cy="162.6" r="3.3"/>
<circle fill="#DBEDFA" cx="123" cy="168.3" r="3.4"/>
<circle fill="#DBEDFA" cx="126.8" cy="141.6" r="0.9"/>
<circle fill="#DBEDFA" cx="130" cy="109.3" r="1.8"/>
<circle fill="#DBEDFA" cx="120.2" cy="86.9" r="2.8"/>
<circle fill="#DBEDFA" cx="139.4" cy="71.4" r="0.8"/>
</svg>
