<?xml version="1.0" encoding="utf-8"?>
<!-- Generator: Adobe Illustrator 17.1.0, SVG Export Plug-In . SVG Version: 6.00 Build 0)  -->
<!DOCTYPE svg PUBLIC "-//W3C//DTD SVG 1.1//EN" "http://www.w3.org/Graphics/SVG/1.1/DTD/svg11.dtd">
<svg version="1.1" id="Слой_1" xmlns="http://www.w3.org/2000/svg" xmlns:xlink="http://www.w3.org/1999/xlink" x="0px" y="0px"
	 width="416px" height="235px" viewBox="0 0 416 235" enable-background="new 0 0 416 235" xml:space="preserve">
<path fill="#F7FCFE" d="M290.4,61.1H142.5c-10.6,0-10.6,30.3,0,30.3H164c11.2,0,11.2,32.7,0,32.7h-56.3c-10.3,0-10.3,31.1,0,31.1
	h41.9c13.3,0,13.3,32.1,0,32.1h-14.4c-9.8,0-9.8,31.6,0,31.6h175.2c10.5,0,10.5-29.9,0-29.9h-52.9c-11.8,0-11.8-32.7,0-32.7H292
	c10.6,0,10.6-31.7,0-31.7h-21.1c-8.7,0-8.7-32,0-32l19.4-0.1C303.7,92.6,303.7,61,290.4,61.1z"/>
<path fill="#F3FAFE" d="M245.5,114.3h22.8c4,0,7.2-6.7,7.2-15V99c0-8.3-3.2-15-7.2-15h-31.7c0,0-5.9-5.1-5.9-17.1
	s-3.4-15.7-6.5-15.7s-36.4,0-37.9,0s-4.3,3.3-4.3,15.3S176.5,84,176.5,84h-28.8c-4,0-7.2,6.7-7.2,15v0.3c0,8.3,3.2,15,7.2,15h6.5
	c0,0,8.3,3.3,8.3,15.3s-8.3,17.4-8.3,17.4h-6.4c-4,0-7.2,6.7-7.2,15v0.3c0,8.3,3.2,15,7.2,15h22.7c0,0,8.3,3.3,8.3,15.3
	s5.5,17.4,8.7,17.4c3.2,0,53.8,0,57,0s8.1-5.1,8.1-17.1s9-15.7,9-15.7h6.7c4,0,7.2-6.7,7.2-15V162c0-8.3-3.2-15-7.2-15h-22.9
	c0,0-9-5.1-9-17.1S245.5,114.3,245.5,114.3z"/>
</svg>
