<?xml version="1.0" encoding="utf-8"?>
<!-- Generator: Adobe Illustrator 17.1.0, SVG Export Plug-In . SVG Version: 6.00 Build 0)  -->
<!DOCTYPE svg PUBLIC "-//W3C//DTD SVG 1.1//EN" "http://www.w3.org/Graphics/SVG/1.1/DTD/svg11.dtd">
<svg version="1.1" id="Слой_1" xmlns="http://www.w3.org/2000/svg" xmlns:xlink="http://www.w3.org/1999/xlink" x="0px" y="0px"
	 width="416px" height="235px" viewBox="0 0 416 235" enable-background="new 0 0 416 235" xml:space="preserve">
<path fill="#F7FCFE" d="M287.8,61.1H144.6c-10.3,0-10.3,30.3,0,30.3h20.9c10.8,0,10.8,32.7,0,32.7H111c-9.9,0-9.9,31.1,0,31.1h40.5
	c12.9,0,12.9,32.1,0,32.1h-13.9c-9.5,0-9.5,31.6,0,31.6h169.6c10.2,0,10.2-29.9,0-29.9H256c-11.4,0-11.4-32.7,0-32.7h33.5
	c10.3,0,10.3-31.7,0-31.7H269c-8.4,0-8.4-32,0-32c0,0,18.8-0.1,18.9-0.1C300.7,92.6,300.7,61,287.8,61.1z"/>
<path fill="#F3FAFE" d="M245.1,52.7h-92.4c-6.6,0-6.6,30.3,0,30.3h13.5c7,0,7,32.7,0,32.7H131c-6.4,0-6.4,31.1,0,31.1h26.2
	c8.3,0,8.3,32.1,0,32.1h-9c-6.1,0-6.1,31.6,0,31.6h109.4c6.6,0,6.6-29.9,0-29.9h-33c-7.4,0-7.4-32.7,0-32.7h21.6
	c6.6,0,6.6-31.7,0-31.7h-13.2c-5.4,0-5.4-32,0-32c0,0,12.1-0.1,12.2-0.1C253.4,84.2,253.4,52.7,245.1,52.7z"/>
</svg>
