<?xml version="1.0" encoding="utf-8"?>
<!-- Generator: Adobe Illustrator 17.1.0, SVG Export Plug-In . SVG Version: 6.00 Build 0)  -->
<!DOCTYPE svg PUBLIC "-//W3C//DTD SVG 1.1//EN" "http://www.w3.org/Graphics/SVG/1.1/DTD/svg11.dtd">
<svg version="1.1" id="calendar" xmlns="http://www.w3.org/2000/svg" xmlns:xlink="http://www.w3.org/1999/xlink" x="0px" y="0px"
	 width="13px" height="13px" viewBox="0 0 13 13" enable-background="new 0 0 13 13" xml:space="preserve">
<path fill-rule="evenodd" clip-rule="evenodd" d="M11.9,13H1.1C0.5,13,0,12.5,0,11.9V2.2c0-0.6,0.5-1.1,1.1-1.1h1.1v1.1H1.1v9.7
	h10.8V2.2h-1.1V1.1h1.1c0.6,0,1.1,0.5,1.1,1.1v9.7C13,12.5,12.5,13,11.9,13z M9.2,9.2h1.1c0.3,0,0.5,0.2,0.5,0.5
	c0,0.3-0.2,0.5-0.5,0.5H9.2c-0.3,0-0.5-0.2-0.5-0.5C8.7,9.5,8.9,9.2,9.2,9.2z M9.2,7h1.1c0.3,0,0.5,0.2,0.5,0.5
	c0,0.3-0.2,0.5-0.5,0.5H9.2c-0.3,0-0.5-0.2-0.5-0.5C8.7,7.3,8.9,7,9.2,7z M10.3,6H9.2C8.9,6,8.7,5.7,8.7,5.4c0-0.3,0.2-0.5,0.5-0.5
	h1.1c0.3,0,0.5,0.2,0.5,0.5C10.8,5.7,10.6,6,10.3,6z M9.8,3.3C9.5,3.3,9.2,3,9.2,2.7V0.5C9.2,0.2,9.5,0,9.8,0c0.3,0,0.5,0.2,0.5,0.5
	v2.2C10.3,3,10.1,3.3,9.8,3.3z M7.6,1.1h1.1v1.1H7.6V1.1z M6,9.2H7c0.3,0,0.5,0.2,0.5,0.5c0,0.3-0.2,0.5-0.5,0.5H6
	c-0.3,0-0.5-0.2-0.5-0.5C5.4,9.5,5.7,9.2,6,9.2z M6,7H7c0.3,0,0.5,0.2,0.5,0.5c0,0.3-0.2,0.5-0.5,0.5H6c-0.3,0-0.5-0.2-0.5-0.5
	C5.4,7.3,5.7,7,6,7z M6.5,3.3C6.2,3.3,6,3,6,2.7V0.5C6,0.2,6.2,0,6.5,0C6.8,0,7,0.2,7,0.5v2.2C7,3,6.8,3.3,6.5,3.3z M4.3,1.1h1.1
	v1.1H4.3V1.1z M2.7,9.2h1.1c0.3,0,0.5,0.2,0.5,0.5c0,0.3-0.2,0.5-0.5,0.5H2.7c-0.3,0-0.5-0.2-0.5-0.5C2.2,9.5,2.4,9.2,2.7,9.2z
	 M3.3,3.3C3,3.3,2.7,3,2.7,2.7V0.5C2.7,0.2,3,0,3.3,0c0.3,0,0.5,0.2,0.5,0.5v2.2C3.8,3,3.5,3.3,3.3,3.3z"/>
</svg>
