<?xml version="1.0" encoding="utf-8"?>
<!-- Generator: Adobe Illustrator 17.1.0, SVG Export Plug-In . SVG Version: 6.00 Build 0)  -->
<!DOCTYPE svg PUBLIC "-//W3C//DTD SVG 1.1//EN" "http://www.w3.org/Graphics/SVG/1.1/DTD/svg11.dtd">
<svg version="1.1" id="Слой_1" xmlns="http://www.w3.org/2000/svg" xmlns:xlink="http://www.w3.org/1999/xlink" x="0px" y="0px"
	 width="416px" height="235px" viewBox="0 0 416 235" enable-background="new 0 0 416 235" xml:space="preserve">
<path fill="#F7FCFE" d="M302.3,61.1H132.7c-12.2,0-12.2,30.3,0,30.3h24.7c12.8,0,12.8,32.7,0,32.7H92.8c-11.8,0-11.8,31.1,0,31.1h48
	c15.2,0,15.2,32.1,0,32.1h-16.5c-11.2,0-11.2,31.6,0,31.6h200.9c12,0,12-29.9,0-29.9h-60.7c-13.5,0-13.5-32.7,0-32.7h39.7
	c12.2,0,12.2-31.7,0-31.7H280c-10,0-10-32,0-32c0,0,22.3-0.1,22.3-0.1C317.6,92.6,317.6,61,302.3,61.1z"/>
<path fill="#F3FAFE" d="M285.7,114.3H333c8.3,0,15-6.7,15-15V99c0-8.3-6.7-15-15-15h-65.7c0,0-12.3-5.1-12.3-17.1s-7-15.7-13.4-15.7
	s-75.6,0-78.6,0s-9,3.3-9,15.3S142.7,84,142.7,84H83c-8.3,0-15,6.7-15,15v0.3c0,8.3,6.7,15,15,15h13.4c0,0,17.2,3.3,17.2,15.3
	S96.3,147,96.3,147H83c-8.3,0-15,6.7-15,15v0.3c0,8.3,6.7,15,15,15h47c0,0,17.2,3.3,17.2,15.3s11.5,17.4,18.1,17.4
	c6.7,0,111.6,0,118.3,0s16.9-5.1,16.9-17.1s18.7-15.7,18.7-15.7H333c8.3,0,15-6.7,15-15V162c0-8.3-6.7-15-15-15h-47.4
	c0,0-18.7-5.1-18.7-17.1S285.7,114.3,285.7,114.3z"/>
</svg>
