<?xml version="1.0" encoding="utf-8"?>
<!-- Generator: Adobe Illustrator 17.1.0, SVG Export Plug-In . SVG Version: 6.00 Build 0)  -->
<!DOCTYPE svg PUBLIC "-//W3C//DTD SVG 1.1//EN" "http://www.w3.org/Graphics/SVG/1.1/DTD/svg11.dtd">
<svg version="1.1" id="Слой_1" xmlns="http://www.w3.org/2000/svg" xmlns:xlink="http://www.w3.org/1999/xlink" x="0px" y="0px"
	 width="416px" height="235px" viewBox="0 0 416 235" enable-background="new 0 0 416 235" xml:space="preserve">
<path fill="#F7FCFE" d="M348.5,61.1H94.8c-18.2,0-18.2,30.3,0,30.3h37c19.1,0,19.1,32.7,0,32.7H35.2c-17.6,0-17.6,31.1,0,31.1H107
	c22.8,0,22.8,32.1,0,32.1H82.3c-16.8,0-16.8,31.6,0,31.6h300.5c18,0,18-29.9,0-29.9h-90.7c-20.2,0-20.2-32.7,0-32.7h59.3
	c18.2,0,18.2-31.7,0-31.7h-36.3c-14.9,0-14.9-32,0-32c0,0,33.3-0.1,33.4-0.1C371.4,92.6,371.3,61,348.5,61.1z"/>
<path fill="#F3FAFE" d="M333.7,52.7H80C61.8,52.7,61.8,83,80,83h37c19.1,0,19.1,32.7,0,32.7H20.4c-17.6,0-17.6,31.1,0,31.1h71.9
	c22.8,0,22.8,32.1,0,32.1H67.5c-16.8,0-16.8,31.6,0,31.6H368c18,0,18-29.9,0-29.9h-90.7c-20.2,0-20.2-32.7,0-32.7h59.3
	c18.2,0,18.2-31.7,0-31.7h-36.3c-14.9,0-14.9-32,0-32c0,0,33.3-0.1,33.4-0.1C356.6,84.2,356.5,52.7,333.7,52.7z"/>
</svg>
