<svg id="SvgjsSvg1000" xmlns="http://www.w3.org/2000/svg" version="1.1" xmlns:xlink="http://www.w3.org/1999/xlink" xmlns:svgjs="http://svgjs.com/svgjs" width="14" height="14" viewBox="0 0 14 14"><title>clock1 копия</title><desc>Created with Avocode.</desc><defs id="SvgjsDefs1001"></defs><path id="SvgjsPath1007" d="M1221 1113C1217.13 1113 1214 1109.86 1214 1106C1214 1102.13 1217.13 1099 1221 1099C1224.87 1099 1228 1102.13 1228 1106C1228 1109.86 1224.87 1113 1221 1113ZM1221 1100.17C1217.78 1100.17 1215.17 1102.78 1215.17 1106C1215.17 1109.22 1217.78 1111.83 1221 1111.83C1224.22 1111.83 1226.83 1109.22 1226.83 1106C1226.83 1102.78 1224.22 1100.17 1221 1100.17ZM1223.16 1108.16C1223.4 1107.92 1223.4 1107.5400000000002 1223.16 1107.3000000000002L1221.5800000000002 1105.7200000000003L1221.5800000000002 1103.0800000000002C1221.5800000000002 1102.7600000000002 1221.3200000000002 1102.5000000000002 1221.0000000000002 1102.5000000000002C1220.6800000000003 1102.5000000000002 1220.4200000000003 1102.7600000000002 1220.4200000000003 1103.0800000000002L1220.4200000000003 1105.9900000000002C1220.4100000000003 1106.1600000000003 1220.4700000000003 1106.3200000000002 1220.5900000000004 1106.4500000000003L1222.3000000000004 1108.1600000000003C1222.5400000000004 1108.4000000000003 1222.9200000000003 1108.4000000000003 1223.1600000000003 1108.1600000000003Z " fill="#ffffff" fill-opacity="1" transform="matrix(1,0,0,1,-1214,-1099)"></path></svg>