<?xml version="1.0" encoding="utf-8"?>
<!-- Generator: Adobe Illustrator 17.1.0, SVG Export Plug-In . SVG Version: 6.00 Build 0)  -->
<!DOCTYPE svg PUBLIC "-//W3C//DTD SVG 1.1//EN" "http://www.w3.org/Graphics/SVG/1.1/DTD/svg11.dtd">
<svg version="1.1" id="Слой_1" xmlns="http://www.w3.org/2000/svg" xmlns:xlink="http://www.w3.org/1999/xlink" x="0px" y="0px"
	 width="197.4px" height="172.3px" viewBox="0 0 197.4 172.3" enable-background="new 0 0 197.4 172.3" xml:space="preserve">
<path fill="none" stroke="#dbdfe3" stroke-width="5" stroke-linecap="round" stroke-linejoin="round" stroke-miterlimit="10" d="
	M174.3,35.1c17.8,17.8,17.8,46.6,0,64.3c-1.2,1.2-2.4,2.2-3.6,3.2c-7.6,6.2-16.8,9.5-26.1,10c-12.4,0.7-25.1-3.8-34.6-13.3
	c-17.8-17.8-17.8-46.6,0-64.3S156.5,17.4,174.3,35.1z"/>
<path fill="none" stroke="#dbdfe3" stroke-width="5" stroke-linecap="round" stroke-linejoin="round" stroke-miterlimit="10" d="
	M122.9,108.6c-11.3-16.3-9.7-38.7,4.8-53.2c16-16,41.6-16.3,58-1"/>
<path fill="none" stroke="#dbdfe3" stroke-width="5" stroke-linecap="round" stroke-linejoin="round" stroke-miterlimit="10" d="
	M142.4,114.3c1.4,3.3,0.2,7.6-0.4,10.4c-2.8,13.8-14.4,21.7-28.2,18.9c-1.5-0.3-3-0.8-4.4-1.3"/>
<path fill="none" stroke="#dbdfe3" stroke-width="5" stroke-linecap="round" stroke-linejoin="round" stroke-miterlimit="10" d="
	M122.6,107.4l-15.5,16c-4.6,4.7-12.2,4.9-17,0.3l-0.6-0.6c-4.5-3-3.6-10.4,1-15.1l12.6-13"/>
<path fill="none" stroke="#dbdfe3" stroke-width="5" stroke-linecap="round" stroke-linejoin="round" stroke-miterlimit="10" d="
	M153.6,111.3l1.4,7.4c1.3,6.5-3,12.8-9.5,14.1l-1.3,0.3c-1.5,0.3-3,0.3-4.4,0"/>
<circle fill="#dbdfe3" cx="139.5" cy="30.8" r="3.3"/>
<path fill="none" stroke="#dbdfe3" stroke-width="5" stroke-linecap="round" stroke-linejoin="round" stroke-miterlimit="10" d="
	M145.5,22.2c7.6,5.4,13.1,12.8,16.2,20.9"/>
<path fill="none" stroke="#dbdfe3" stroke-width="5" stroke-linecap="round" stroke-linejoin="round" stroke-miterlimit="10" d="
	M84.9,163.2L84.9,163.2c-5.5-3.4-7.3-10.7-3.9-16.2l9-13.9c3.4-5.5,10.7-7.3,16.2-3.9l0,0c5.5,3.4,7.3,10.7,3.9,16.2l-9,13.9
	C97.8,164.9,90.5,166.6,84.9,163.2z"/>
<path fill="none" stroke="#dbdfe3" stroke-width="5" stroke-linecap="round" stroke-linejoin="round" stroke-miterlimit="10" d="
	M86.5,134.9c-4.9-1.6-10.4,0.2-13.4,4.6l0,0c-3.7,5.4-2.2,12.8,3.1,16.4l8.7,7.3"/>
<path fill="none" stroke="#dbdfe3" stroke-width="5" stroke-linecap="round" stroke-linejoin="round" stroke-miterlimit="10" d="
	M134.7,137.4c0.8,1.6,1.1,3.5,0.9,5.4l-2.1,12.9c-0.7,5.1-5.5,8.7-10.6,8h0c-5.1-0.7-8.7-5.5-8-10.6l1.5-9.2"/>
<path fill="none" stroke="#dbdfe3" stroke-width="5" stroke-linecap="round" stroke-linejoin="round" stroke-miterlimit="10" d="
	M116.5,160.9l3,1.6c-4.7-1.7-10.9-8.2-12.8-11.6"/>
<path fill="none" stroke="#dbdfe3" stroke-width="5" stroke-linecap="round" stroke-linejoin="round" stroke-miterlimit="10" d="
	M97.4,100.9c0,0-46.4-1.6-51.4-47.6s-38-31-38-31"/>
</svg>
