<?xml version="1.0" encoding="utf-8"?>
<!-- Generator: Adobe Illustrator 17.1.0, SVG Export Plug-In . SVG Version: 6.00 Build 0)  -->
<!DOCTYPE svg PUBLIC "-//W3C//DTD SVG 1.1//EN" "http://www.w3.org/Graphics/SVG/1.1/DTD/svg11.dtd">
<svg version="1.1" id="Слой_1" xmlns="http://www.w3.org/2000/svg" xmlns:xlink="http://www.w3.org/1999/xlink" x="0px" y="0px"
	 width="39px" height="34px" viewBox="0 0 81.7 81.6" enable-background="new 0 0 81.7 81.6" xml:space="preserve">
<g>
	<path fill="#dbdfe3" d="M65.9,19.3L65.9,19.3c0.4,0,0.8,0.1,1.2,0.2c2.4,0.6,3.8,3.1,3.1,5.4c-0.5,1.9-2.3,3.3-4.3,3.3
		c-0.4,0-0.8-0.1-1.2-0.2c-1.1-0.3-2.1-1-2.7-2.1c-0.6-1-0.7-2.2-0.4-3.4C62.2,20.7,63.9,19.3,65.9,19.3 M65.9,14.6
		c-4,0-7.7,2.7-8.9,6.8c-1.3,4.9,1.6,9.9,6.5,11.3c0.8,0.2,1.6,0.3,2.4,0.3c4,0,7.7-2.7,8.9-6.8c1.3-4.9-1.6-9.9-6.5-11.3
		C67.5,14.7,66.7,14.6,65.9,14.6L65.9,14.6z"/>
</g>
<g>
	<path fill="#dbdfe3" d="M39.1,33.5L39.1,33.5c1.6,0,3.1,0.2,4.6,0.6c9.4,2.5,15,12.2,12.4,21.6c-2.1,7.7-9.1,13-17,13
		c-1.6,0-3.1-0.2-4.6-0.6C29.9,67,26.1,64,23.8,60c-2.3-4.1-3-8.8-1.7-13.4C24.1,38.9,31.1,33.5,39.1,33.5 M39.1,28.8
		c-9.9,0-18.9,6.6-21.6,16.5c-3.2,11.9,3.8,24.2,15.8,27.5c2,0.5,3.9,0.8,5.9,0.8C49,73.6,58,67,60.7,57
		c3.2-11.9-3.8-24.2-15.8-27.5C43,29,41,28.8,39.1,28.8L39.1,28.8z"/>
</g>
<path fill="none" stroke="#dbdfe3" stroke-width="4.75" stroke-linejoin="bevel" stroke-miterlimit="10" d="M59.1,47.9
	c6.3,3.5,9.9,7.4,9.1,10.3c-1.4,5.2-15.5,5.9-31.4,1.5S9,47.8,10.4,42.6c0.8-3.1,6.4-4.6,14.1-4.3"/>
</svg>
