<svg id="SvgjsSvg1014" xmlns="http://www.w3.org/2000/svg" version="1.1" xmlns:xlink="http://www.w3.org/1999/xlink" xmlns:svgjs="http://svgjs.com/svgjs" width="10" height="10" viewBox="0 0 10 10"><title>1 копия 2</title><desc>Created with Avocode.</desc><defs id="SvgjsDefs1015"></defs><path id="SvgjsPath1016" d="M1329.1 1487.62C1329.02 1487.55 1328.99 1487.4899999999998 1329 1487.3899999999999C1329 1487.3899999999999 1329 1485.6499999999999 1329 1485.4599999999998C1326.8 1485.4599999999998 1324.81 1486.9899999999998 1324.42 1488.9999999999998C1324.15 1488.4099999999999 1324 1487.7599999999998 1324 1487.0799999999997C1324 1484.4099999999996 1326.24 1482.2499999999998 1329.01 1482.2499999999998L1329.01 1480.3599999999997C1328.99 1480.2599999999998 1329.02 1480.1599999999996 1329.1 1480.0899999999997C1329.23 1479.9599999999996 1329.4399999999998 1479.9599999999996 1329.58 1480.0899999999997L1332.9099999999999 1483.6099999999997C1332.9799999999998 1483.6799999999996 1333.0099999999998 1483.7699999999998 1332.9999999999998 1483.8599999999997C1333.0099999999998 1483.9399999999996 1332.9799999999998 1484.0299999999997 1332.9099999999999 1484.0999999999997L1329.59 1487.5999999999997C1329.47 1487.6999999999996 1329.24 1487.7599999999998 1329.1 1487.6199999999997Z " fill="#dadada" fill-opacity="1" transform="matrix(1,0,0,1,-1324,-1479)"></path></svg>