<?xml version="1.0" encoding="utf-8"?>
<!-- Generator: Adobe Illustrator 17.1.0, SVG Export Plug-In . SVG Version: 6.00 Build 0)  -->
<!DOCTYPE svg PUBLIC "-//W3C//DTD SVG 1.1//EN" "http://www.w3.org/Graphics/SVG/1.1/DTD/svg11.dtd">
<svg version="1.1" id="logo" xmlns="http://www.w3.org/2000/svg" xmlns:xlink="http://www.w3.org/1999/xlink" x="0px" y="0px"
	 width="251px" height="176px" viewBox="0 0 251 176" enable-background="new 0 0 251 176" xml:space="preserve">
<path fill="#303030" d="M125.9,16.3v5c3.8,0,7.6,0.5,11.3,1.5c23,6.2,36.7,30,30.5,53.1c-5,18.5-40.6,30.5-51.8,30.5
	c-0.8,0-1.2-0.1-1.2-0.1l0,0c-2.3-0.8-11.3-9-19.6-21.1c-8.9-13.1-12.9-24.8-10.9-32c5.1-18.8,22.3-32,41.7-32L125.9,16.3
	 M125.9,16.3c-21.3,0-40.7,14.2-46.6,35.7c-5.6,20.6,26,57,34,59.2c0.6,0.2,1.5,0.3,2.5,0.3c12.5,0,50.8-12.6,56.6-34.2
	c7-25.7-8.3-52.2-34-59.2C134.4,16.9,130.1,16.3,125.9,16.3L125.9,16.3z"/>
<path fill="#303030" d="M137.3,22.8c7.4,2,12.9,22.6,5.1,51.7c-0.8,2.9-1.7,5.8-2.7,8.6l4.8,1.7c1-2.9,1.9-5.8,2.8-8.9
	c7.7-28.5,3.8-54.4-8.7-57.8l0,0c-12.5-3.4-29,17-36.7,45.5c-0.8,3.1-1.5,6.1-2.1,9.1l5,1c0.5-2.9,1.2-5.8,2-8.7
	C114.7,35.9,129.9,20.8,137.3,22.8"/>
<path fill="#F05023" d="M161.2,88.4c-12,0-26.4-2.2-40-5.9c-29.7-8-59.2-24-55.5-37.7c1.7-6.2,9.5-9.8,22.7-10.4
	c0.2,0-1.3,1.8-3.7,5.3c-8.1,0.9-13.3,3.2-14.2,6.4c-2.1,7.7,18.7,22.6,51.9,31.6c33.2,9,58.7,6.6,60.8-1.1c0.9-3.2-2.4-7.8-9-12.7
	c-0.2-4.3-0.8-6.6-0.5-6.5c11.1,7.2,16,14.3,14.3,20.5C186,85.3,175.3,88.4,161.2,88.4z"/>
<path fill="#303030" d="M169.7,49.5c-0.8,0.2-1.7,0.4-2.6,0.5c-10.3,1.8-23.2,0.8-36.3-2.7S106,38.1,98.1,31.4
	c-0.7-0.6-1.4-1.2-2-1.8l-3.6,3.5c8.1,7.7,21.3,14.8,37,19.1c15.6,4.2,30.5,4.8,41.3,2.3L169.7,49.5z"/>
<circle fill="#303030" cx="109.1" cy="89" r="3.3"/>
<circle fill="#303030" cx="127.5" cy="93.9" r="3.3"/>
<path fill="#303030" d="M125.9,60.7L125.9,60.7c0.4,0,0.7,0.1,1.1,0.1c2.3,0.6,3.6,2.9,3,5.2c-0.5,1.8-2.2,3.1-4.1,3.1
	c-0.4,0-0.7-0.1-1.1-0.1c-2.3-0.6-3.6-2.9-3-5.2C122.3,62,124,60.7,125.9,60.7 M125.9,56c-4,0-7.6,2.6-8.7,6.6
	c-1.3,4.8,1.5,9.7,6.3,11c0.8,0.2,1.6,0.3,2.4,0.3c4,0,7.6-2.6,8.7-6.6c1.3-4.8-1.5-9.7-6.3-11C127.4,56.1,126.6,56,125.9,56
	L125.9,56z"/>
<path fill="#303030" d="M111,21.4c0.9,1,1.2,2.4,0.8,3.8c-0.6,2.3-2.9,3.6-5.2,3c-1.7-0.5-2.8-1.8-3.1-3.4l-4.7,0.6
	c0.5,3.5,3,6.5,6.6,7.5c4.8,1.3,9.7-1.5,11-6.3c0.6-2.3,0.3-4.7-0.8-6.6L111,21.4z"/>
<path fill="#303030" d="M172.7,70.6l-9.5,7.7c-1.2,1-3,0.8-4-0.4l0,0c-1-1.2-0.8-3,0.4-4l12.2-9.9L172.7,70.6z"/>
<path fill="#303030" d="M164.1,40.9l-4.2,3.4c-1.2,1-3,0.8-4-0.4v0c-1-1.2-0.8-3,0.4-4l4.5-3.7L164.1,40.9z"/>
<path fill="#303030" d="M170.2,79l-9.9-12.2c-1-1.2-0.8-3,0.4-4v0c1.2-1,3-0.8,4,0.4l7.4,9.1L170.2,79z"/>
<path fill="#303030" d="M116.5,110.2l-1.8,6.8c-0.4,1.5-2,2.4-3.4,2h0c-1.5-0.4-2.4-2-2-3.4l1.8-6.6L116.5,110.2z"/>
<path fill="#303030" d="M144.5,6.9l-3.7,13.5c-0.4,1.5-2,2.4-3.4,2v0c-1.5-0.4-2.4-2-2-3.4L139,5.6L144.5,6.9z"/>
<ellipse transform="matrix(0.9653 0.2612 -0.2612 0.9653 6.2265 -36.9448)" fill="#303030" cx="142.1" cy="5" rx="4.8" ry="3.3"/>
<text transform="matrix(1 0 0 1 -0.7558 174.1264)" fill="#303030" font-family="'BloggerSans-Bold'" font-size="42.2376" letter-spacing="4">Kidventica</text>
</svg>
