<?xml version="1.0" encoding="utf-8"?>
<!-- Generator: Adobe Illustrator 17.1.0, SVG Export Plug-In . SVG Version: 6.00 Build 0)  -->
<!DOCTYPE svg PUBLIC "-//W3C//DTD SVG 1.1//EN" "http://www.w3.org/Graphics/SVG/1.1/DTD/svg11.dtd">
<svg version="1.1" id="Слой_1" xmlns="http://www.w3.org/2000/svg" xmlns:xlink="http://www.w3.org/1999/xlink" x="0px" y="0px"
	 width="404.2px" height="117.6px" viewBox="0 0 404.2 117.6" enable-background="new 0 0 404.2 117.6" xml:space="preserve">
<path fill="#303030" d="M60.6,14.8v5c3.8,0,7.6,0.5,11.3,1.5c23,6.2,36.7,30,30.5,53.1c-5,18.5-40.6,30.5-51.8,30.5
	c-0.8,0-1.2-0.1-1.2-0.1l0,0C47,104,38,95.9,29.8,83.8c-8.9-13.1-12.9-24.8-10.9-32c5.1-18.8,22.3-32,41.7-32L60.6,14.8 M60.6,14.8
	C39.3,14.8,19.8,29,14,50.5c-5.6,20.6,26,57,34,59.2c0.6,0.2,1.5,0.3,2.5,0.3c12.5,0,50.8-12.6,56.6-34.2c7-25.7-8.3-52.2-34-59.2
	C69,15.4,64.7,14.8,60.6,14.8L60.6,14.8z"/>
<path fill="#303030" d="M71.9,21.3C79.3,23.3,84.8,44,77,73c-0.8,2.9-1.7,5.8-2.7,8.6l4.8,1.7c1-2.9,1.9-5.8,2.8-8.9
	c7.7-28.5,3.8-54.4-8.7-57.8l0,0c-12.5-3.4-29,17-36.7,45.5c-0.8,3.1-1.5,6.1-2.1,9.1l5,1c0.5-2.9,1.2-5.8,2-8.7
	C49.3,34.4,64.5,19.3,71.9,21.3"/>
<path fill="#F05023" d="M95.8,86.9c-12,0-26.4-2.2-40-5.9c-29.7-8-59.2-24-55.5-37.7C2,37.1,9.8,33.5,23,32.8c0.2,0-1.3,1.8-3.7,5.3
	C11.2,39,6,41.3,5.1,44.5c-2.1,7.7,18.7,22.6,51.9,31.6c33.2,9,58.7,6.6,60.8-1.1c0.9-3.2-2.4-7.8-9-12.7c-0.2-4.3-0.8-6.6-0.5-6.5
	c11.1,7.2,16,14.3,14.3,20.5C120.7,83.8,109.9,86.9,95.8,86.9z"/>
<path fill="#303030" d="M104.3,48c-0.8,0.2-1.7,0.4-2.6,0.5c-10.3,1.8-23.2,0.8-36.3-2.7c-13.1-3.5-24.7-9.2-32.7-15.9
	c-0.7-0.6-1.4-1.2-2-1.8l-3.6,3.5c8.1,7.7,21.3,14.8,37,19.1c15.6,4.2,30.5,4.8,41.3,2.3L104.3,48z"/>
<circle fill="#303030" cx="43.8" cy="87.5" r="3.3"/>
<circle fill="#303030" cx="62.1" cy="92.4" r="3.3"/>
<path fill="#303030" d="M60.5,59.2L60.5,59.2c0.4,0,0.7,0.1,1.1,0.1c2.3,0.6,3.6,2.9,3,5.2c-0.5,1.8-2.2,3.1-4.1,3.1
	c-0.4,0-0.7-0.1-1.1-0.1c-2.3-0.6-3.6-2.9-3-5.2C56.9,60.5,58.6,59.2,60.5,59.2 M60.5,54.5c-4,0-7.6,2.6-8.7,6.6
	c-1.3,4.8,1.5,9.7,6.3,11c0.8,0.2,1.6,0.3,2.4,0.3c4,0,7.6-2.6,8.7-6.6c1.3-4.8-1.5-9.7-6.3-11C62.1,54.6,61.3,54.5,60.5,54.5
	L60.5,54.5z"/>
<path fill="#303030" d="M45.6,19.9c0.9,1,1.2,2.4,0.8,3.8c-0.6,2.3-2.9,3.6-5.2,3c-1.7-0.5-2.8-1.8-3.1-3.4l-4.7,0.6
	c0.5,3.5,3,6.5,6.6,7.5c4.8,1.3,9.7-1.5,11-6.3c0.6-2.3,0.3-4.7-0.8-6.6L45.6,19.9z"/>
<path fill="#303030" d="M107.3,69.1l-9.5,7.7c-1.2,1-3,0.8-4-0.4l0,0c-1-1.2-0.8-3,0.4-4l12.2-9.9L107.3,69.1z"/>
<path fill="#303030" d="M98.8,39.4l-4.2,3.4c-1.2,1-3,0.8-4-0.4v0c-1-1.2-0.8-3,0.4-4l4.5-3.7L98.8,39.4z"/>
<path fill="#303030" d="M104.9,77.5L95,65.3c-1-1.2-0.8-3,0.4-4l0,0c1.2-1,3-0.8,4,0.4l7.4,9.1L104.9,77.5z"/>
<path fill="#303030" d="M51.2,108.7l-1.8,6.8c-0.4,1.5-2,2.4-3.4,2l0,0c-1.5-0.4-2.4-2-2-3.4l1.8-6.6L51.2,108.7z"/>
<path fill="#303030" d="M79.1,5.4L75.4,19c-0.4,1.5-2,2.4-3.4,2v0c-1.5-0.4-2.4-2-2-3.4l3.6-13.4L79.1,5.4z"/>
<ellipse transform="matrix(0.9653 0.2612 -0.2612 0.9653 3.5656 -19.9234)" fill="#303030" cx="76.7" cy="3.5" rx="4.8" ry="3.3"/>
<g>
	<path fill="#303030" d="M164.6,61.4l9.2,12.2c0.4,0.5,0.5,1,0.5,1.4c0,1.2-1.1,2.8-2.9,2.8c-1,0-1.8-0.4-2.4-1.2l-8.2-11l-0.8,0.8
		v8.6c0,1.5-1.4,2.7-3,2.7c-1.6,0-3-1.3-3-2.7V50c0-1.4,1.3-2.7,3-2.7c1.6,0,3,1.3,3,2.7v8l8.4-9.5c0.5-0.6,1.5-1.2,2.4-1.2
		c1.3,0,2.9,1.2,2.9,2.7c0,0.6,0,1.1-0.7,1.8L164.6,61.4z"/>
	<path fill="#303030" d="M182,50c0-1.4,1.3-2.7,3-2.7c1.6,0,3,1.3,3,2.7v25.1c0,1.4-1.4,2.7-3,2.7c-1.6,0-3-1.3-3-2.7V50z"/>
	<path fill="#303030" d="M205.6,77.5h-4.8c-1.8,0-3.3-1.4-3.3-3V50.7c0-1.6,1.5-3,3.3-3h4.8c9.5,0,12.8,5.2,12.8,11.1V66
		C218.4,72,215.2,77.5,205.6,77.5z M212.5,58.8c0-3.2-1.6-5.7-6.2-5.7h-2.9v19.1h2.9c4.6,0,6.2-2.7,6.2-6.1V58.8z"/>
	<path fill="#303030" d="M242.3,49.3c0.4-1.2,1.8-2,2.9-2c1.7,0,3,1.1,3,2.7c0,0.2,0,0.7-0.1,0.9l-8.2,24c-0.6,1.7-1.4,2.9-3.5,2.9
		s-2.9-1.2-3.4-2.9l-8.2-24c-0.1-0.2-0.1-0.7-0.1-0.9c0-1.6,1.4-2.7,3-2.7c1,0,2.4,0.8,2.8,2l5.2,16.3c0.4,1.2,0.6,2.8,0.8,4.1
		c0.2-1.3,0.4-2.9,0.8-4.1L242.3,49.3z"/>
	<path fill="#303030" d="M271,77.5h-11.2c-2.1,0-3.9-0.7-3.9-3V50.7c0-1.5,1.4-3,3.3-3h11.4c1.6,0,3,1.3,3,2.7c0,1.5-1.4,2.6-3,2.6
		h-8.8v6.8h8c1.5,0,2.9,1.1,2.9,2.7c0,1.5-1.3,2.7-2.9,2.7h-8v6.9h9.2c1.6,0,3,1.2,3,2.6C274,76.3,272.7,77.5,271,77.5z"/>
	<path fill="#303030" d="M297.6,76.4l-9.8-17.1v15.8c0,1.5-1.4,2.7-3,2.7c-1.6,0-2.9-1.3-2.9-2.7V50.2c0-1.6,1.3-2.9,3.1-2.9
		c1.1,0,2.3,0.6,2.9,1.6c3.8,6.5,5.9,10.3,9.8,17.1v-16c0-1.5,1.4-2.7,3-2.7c1.6,0,2.9,1.3,2.9,2.7V75c0,1.6-1.3,2.9-3.1,2.9
		C299.3,77.9,298.1,77.3,297.6,76.4z"/>
	<path fill="#303030" d="M318.7,53.1h-4.5c-1.7,0-3-1.2-3-2.7c0-1.2,1.3-2.7,3-2.7h14.9c1.5,0,3,1.2,3,2.7c0,1.4-1.4,2.7-3,2.7h-4.5
		v22.1c0,1.4-1.4,2.7-3,2.7c-1.6,0-3-1.3-3-2.7V53.1z"/>
	<path fill="#303030" d="M339.9,50c0-1.4,1.3-2.7,3-2.7c1.6,0,3,1.3,3,2.7v25.1c0,1.4-1.4,2.7-3,2.7c-1.6,0-3-1.3-3-2.7V50z"/>
	<path fill="#303030" d="M360.1,66.8c0,3.6,1.3,5.9,5.1,5.9c1.4,0,2.5-0.3,3.5-1l0.4-0.3c0.5-0.3,0.8-0.6,1.8-0.6
		c1.6,0,2.8,1.2,2.8,2.5c0,2.5-4.3,4.5-8.7,4.5c-7.4,0-10.8-4.4-10.8-11.1v-8.4c0-6.7,3.4-11.1,10.8-11.1c4.5,0,8.7,2.1,8.7,4.5
		c0,1.4-1.2,2.5-2.8,2.5c-1,0-1.3-0.3-1.8-0.6l-0.4-0.3c-1.1-0.7-2.2-1-3.5-1c-3.8,0-5.1,2.3-5.1,5.9V66.8z"/>
	<path fill="#303030" d="M386.4,75.9c-0.4,1.2-1.8,2-2.8,2c-1.6,0-3-1.1-3-2.7c0-0.2,0-0.7,0.1-0.9l8.2-24c0.5-1.6,1.4-2.9,3.4-2.9
		s2.9,1.2,3.5,2.9l8.2,24c0.1,0.2,0.1,0.7,0.1,0.9c0,1.6-1.3,2.7-3,2.7c-1.1,0-2.4-0.8-2.9-2l-1.5-4.3h-9L386.4,75.9z M393.2,59.6
		c-0.4-1.2-0.6-2.8-0.8-4.1c-0.2,1.3-0.4,2.9-0.8,4.1l-2.2,7.2h5.9L393.2,59.6z"/>
</g>
</svg>
