<svg id="SvgjsSvg1011" xmlns="http://www.w3.org/2000/svg" version="1.1" xmlns:xlink="http://www.w3.org/1999/xlink" xmlns:svgjs="http://svgjs.com/svgjs" width="15" height="16" viewBox="0 0 15 16"><title>message</title><desc>Created with Avocode.</desc><defs id="SvgjsDefs1012"></defs><path id="SvgjsPath1013" d="M1237 1405L1233.16 1404.04C1230.3000000000002 1405.6399999999999 1226.6200000000001 1405.23 1224.19 1402.8C1221.27 1399.87 1221.27 1395.12 1224.19 1392.19C1227.1200000000001 1389.26 1231.8700000000001 1389.26 1234.8 1392.19C1237.23 1394.6200000000001 1237.6399999999999 1398.3 1236.04 1401.16ZM1233.88 1393.1C1231.45 1390.6799999999998 1227.5200000000002 1390.6799999999998 1225.1000000000001 1393.1C1222.68 1395.52 1222.68 1399.4499999999998 1225.1000000000001 1401.8799999999999C1227.3200000000002 1404.09 1230.7900000000002 1404.27 1233.22 1402.4299999999998L1235.04 1403.0399999999997L1234.44 1401.2199999999998C1236.28 1398.7899999999997 1236.0900000000001 1395.3199999999997 1233.88 1393.1Z " fill="#b0b0b0" fill-opacity="1" transform="matrix(1,0,0,1,-1222,-1389)"></path></svg>