<svg id="SvgjsSvg1000" xmlns="http://www.w3.org/2000/svg" version="1.1" xmlns:xlink="http://www.w3.org/1999/xlink" xmlns:svgjs="http://svgjs.com/svgjs" width="27" height="23" viewBox="0 0 27 23"><title>photo-group</title><desc>Created with Avocode.</desc><defs id="SvgjsDefs1001"></defs><path id="SvgjsPath1007" d="M920.979 1651.8L918.181 1665.23C918.094 1665.65 917.7270000000001 1665.93 917.317 1665.93C917.258 1665.93 917.198 1665.93 917.1370000000001 1665.91C916.6600000000001 1665.8100000000002 916.3530000000001 1665.3500000000001 916.4520000000001 1664.8700000000001L919.0700000000002 1652.3100000000002L902.1960000000001 1648.91L901.7790000000001 1650.78C901.6730000000001 1651.26 901.2010000000001 1651.56 900.7250000000001 1651.45C900.2500000000001 1651.3500000000001 899.9490000000002 1650.88 900.0550000000002 1650.4L900.6600000000002 1647.69C900.7640000000002 1647.22 901.2250000000003 1646.92 901.6960000000001 1647.01L920.2890000000001 1650.76C920.5190000000001 1650.8 920.7220000000001 1650.94 920.8510000000001 1651.14C920.9810000000001 1651.3300000000002 921.0260000000001 1651.5700000000002 920.9790000000002 1651.8000000000002ZM915.48 1667.82C915.48 1668.47 914.953 1668.99 914.303 1668.99L895.177 1668.99C894.527 1668.99 894 1668.47 894 1667.82L894 1653.45C894 1652.8 894.527 1652.28 895.177 1652.28L914.303 1652.28C914.953 1652.28 915.48 1652.8 915.48 1653.45ZM896.354 1654.62L896.354 1661.86L901.327 1657.84C901.719 1657.52 902.338 1657.53 902.718 1657.87L908.317 1662.81L910.655 1660.82C911.04 1660.49 911.467 1660.49 911.851 1660.82L912.831 1661.81L912.831 1654.62ZM912.831 1666.65L912.831 1664.51L911.186 1662.95L908.96 1664.95C908.5690000000001 1665.28 908.0210000000001 1665.27 907.6370000000001 1664.93L901.951 1659.99L896.354 1664.53L896.354 1666.6499999999999ZM907.94 1659.4C908.9380000000001 1659.4 909.749 1658.5900000000001 909.749 1657.6000000000001C909.749 1656.6100000000001 908.938 1655.8100000000002 907.94 1655.8100000000002C906.9430000000001 1655.8100000000002 906.1310000000001 1656.6100000000001 906.1310000000001 1657.6000000000001C906.1310000000001 1658.5900000000001 906.9430000000001 1659.4 907.94 1659.4Z " fill="#e4e4e4" fill-opacity="1" transform="matrix(1,0,0,1,-894,-1646)"></path></svg>