<svg id="SvgjsSvg1008" xmlns="http://www.w3.org/2000/svg" version="1.1" xmlns:xlink="http://www.w3.org/1999/xlink" xmlns:svgjs="http://svgjs.com/svgjs" width="14" height="17" viewBox="0 0 14 17"><title>pin копия</title><desc>Created with Avocode.</desc><defs id="SvgjsDefs1009"></defs><path id="SvgjsPath1010" d="M1221 1136C1221 1136 1214 1129.99 1214 1126.08C1214 1122.1699999999998 1217.13 1119 1221 1119C1224.87 1119 1228 1122.17 1228 1126.08C1228 1129.99 1221 1136 1221 1136ZM1221 1120.42C1217.91 1120.42 1215.4 1122.95 1215.4 1126.0800000000002C1215.4 1129.2100000000003 1221 1133.8700000000001 1221 1133.8700000000001C1221 1133.8700000000001 1226.6 1129.21 1226.6 1126.0800000000002C1226.6 1122.95 1224.09 1120.42 1221 1120.42ZM1221 1128.92C1219.45 1128.92 1218.2 1127.65 1218.2 1126.0800000000002C1218.2 1124.5200000000002 1219.45 1123.2500000000002 1221 1123.2500000000002C1222.55 1123.2500000000002 1223.8 1124.5200000000002 1223.8 1126.0800000000002C1223.8 1127.65 1222.55 1128.92 1221 1128.92ZM1221 1124.67C1220.23 1124.67 1219.6 1125.3000000000002 1219.6 1126.0800000000002C1219.6 1126.8600000000001 1220.23 1127.5000000000002 1221 1127.5000000000002C1221.77 1127.5000000000002 1222.4 1126.8600000000001 1222.4 1126.0800000000002C1222.4 1125.3000000000002 1221.77 1124.67 1221 1124.67Z " fill="#ffffff" fill-opacity="1" transform="matrix(1,0,0,1,-1214,-1119)"></path></svg>