<?xml version="1.0" encoding="utf-8"?>
<!-- Generator: Adobe Illustrator 17.1.0, SVG Export Plug-In . SVG Version: 6.00 Build 0)  -->
<!DOCTYPE svg PUBLIC "-//W3C//DTD SVG 1.1//EN" "http://www.w3.org/Graphics/SVG/1.1/DTD/svg11.dtd">
<svg version="1.1" id="question" xmlns="http://www.w3.org/2000/svg" xmlns:xlink="http://www.w3.org/1999/xlink" x="0px" y="0px"
	 width="18px" height="18px" viewBox="0 0 18 18" enable-background="new 0 0 18 18" xml:space="preserve">
<path d="M11.9,5c0.6,0.7,0.9,1.7,0.8,2.7c-0.2,1.9-1.6,2.5-2.8,2.5c-0.1,0-0.1,0-0.1,0v0.5c0,0.4-0.4,0.8-0.8,0.8
	c-0.4,0-0.8-0.4-0.8-0.8v-0.6c0-0.6,0.3-1.4,1.7-1.4c0.8,0,1.2-0.4,1.3-1.2c0-0.3,0.1-0.9-0.4-1.4c-0.4-0.4-1-0.6-1.8-0.6
	c-1.8,0-1.8,1.1-1.8,1.3c0,0.4-0.4,0.8-0.8,0.8S5.6,7.1,5.6,6.7c0-0.8,0.6-2.8,3.4-2.8C10.5,3.8,11.5,4.5,11.9,5z M8.9,12.1
	c-0.3,0-0.5,0.1-0.7,0.3C8.1,12.6,8,12.9,8,13.1c0,0.3,0.1,0.5,0.3,0.7c0.2,0.2,0.4,0.3,0.7,0.3c0.3,0,0.5-0.1,0.7-0.3
	c0.2-0.2,0.3-0.4,0.3-0.7c0-0.3-0.1-0.5-0.3-0.7C9.5,12.2,9.2,12.1,8.9,12.1z M18,9c0,5-4,9-9,9c-5,0-9-4-9-9c0-5,4-9,9-9
	C14,0,18,4,18,9z M16.4,9c0-4.1-3.3-7.4-7.4-7.4C4.9,1.6,1.6,4.9,1.6,9c0,4.1,3.3,7.4,7.4,7.4C13.1,16.4,16.4,13.1,16.4,9z"/>
</svg>
