<svg id="SvgjsSvg1008" xmlns="http://www.w3.org/2000/svg" version="1.1" xmlns:xlink="http://www.w3.org/1999/xlink" xmlns:svgjs="http://svgjs.com/svgjs" width="12" height="14" viewBox="0 0 12 14"><title>Фигура 15 копия 13</title><desc>Created with Avocode.</desc><defs id="SvgjsDefs1009"></defs><path id="SvgjsPath1010" d="M1070.95 1790.27L1066.25 1794.86C1065.92 1795.1899999999998 1065.92 1795.7299999999998 1066.25 1796.06C1066.59 1796.3899999999999 1067.14 1796.3899999999999 1067.48 1796.06L1070.69 1792.9199999999998L1070.69 1803.1299999999999C1070.69 1803.6 1071.0800000000002 1803.9799999999998 1071.56 1803.9799999999998C1072.04 1803.9799999999998 1072.4299999999998 1803.5999999999997 1072.4299999999998 1803.1299999999999L1072.4299999999998 1792.9199999999998L1075.6399999999999 1796.06C1075.9799999999998 1796.3899999999999 1076.53 1796.3899999999999 1076.87 1796.06C1077.04 1795.8899999999999 1077.12 1795.6799999999998 1077.12 1795.46C1077.12 1795.24 1077.04 1795.02 1076.87 1794.8600000000001L1072.1699999999998 1790.2700000000002C1071.84 1789.9400000000003 1071.2899999999997 1789.9400000000003 1070.9499999999998 1790.2700000000002Z " fill="#d4d4d4" fill-opacity="1" transform="matrix(1,0,0,1,-1066,-1790)"></path></svg>