<?xml version="1.0" encoding="utf-8"?>
<!-- Generator: Adobe Illustrator 17.1.0, SVG Export Plug-In . SVG Version: 6.00 Build 0)  -->
<!DOCTYPE svg PUBLIC "-//W3C//DTD SVG 1.1//EN" "http://www.w3.org/Graphics/SVG/1.1/DTD/svg11.dtd">
<svg version="1.1" id="Слой_1" xmlns="http://www.w3.org/2000/svg" xmlns:xlink="http://www.w3.org/1999/xlink" x="0px" y="0px"
	 width="14px" height="13px" viewBox="0 0 14 13" enable-background="new 0 0 14 13" xml:space="preserve">
<path fill="#0D0D0D" d="M5,13H0.8C0.3,13,0,12.7,0,12.2V0.8C0,0.3,0.3,0,0.8,0H5c0.4,0,0.8,0.3,0.8,0.8c0,0.4-0.3,0.8-0.8,0.8H1.6
	v10H5c0.4,0,0.8,0.3,0.8,0.8C5.8,12.7,5.4,13,5,13z M9.5,4l1.8,1.7H4.6c-0.4,0-0.8,0.3-0.8,0.8c0,0.4,0.3,0.8,0.8,0.8h6.7L9.5,9
	C9.4,9.1,9.3,9.3,9.3,9.5c0,0.2,0.1,0.4,0.2,0.5c0.3,0.3,0.8,0.3,1.1,0l3.2-3C13.9,6.9,14,6.7,14,6.5c0-0.2-0.1-0.4-0.2-0.5l-3.2-3
	c-0.3-0.3-0.8-0.3-1.1,0C9.2,3.3,9.2,3.7,9.5,4z"/>
</svg>
