<?xml version="1.0" encoding="utf-8"?>
<!-- Generator: Adobe Illustrator 17.1.0, SVG Export Plug-In . SVG Version: 6.00 Build 0)  -->
<!DOCTYPE svg PUBLIC "-//W3C//DTD SVG 1.1//EN" "http://www.w3.org/Graphics/SVG/1.1/DTD/svg11.dtd">
<svg version="1.1" id="Слой_1" xmlns="http://www.w3.org/2000/svg" xmlns:xlink="http://www.w3.org/1999/xlink" x="0px" y="0px"
	 width="416px" height="235px" viewBox="0 0 416 235" enable-background="new 0 0 416 235" xml:space="preserve">
<path fill="#F7FCFE" d="M351.7,56.2H98c-18.2,0-18.2,30.3,0,30.3h37c19.1,0,19.1,32.7,0,32.7H38.3c-17.6,0-17.6,31.1,0,31.1h71.9
	c22.8,0,22.8,32.1,0,32.1H85.4c-16.8,0-16.8,31.6,0,31.6H386c18,0,18-29.9,0-29.9h-90.7c-20.2,0-20.2-32.7,0-32.7h59.3
	c18.2,0,18.2-31.7,0-31.7h-36.3c-14.9,0-14.9-32,0-32c0,0,33.3-0.1,33.4-0.1C374.6,87.7,374.5,56.1,351.7,56.2z"/>
<path fill="#F3FAFE" d="M336.8,47.8H83.2c-18.2,0-18.2,30.3,0,30.3h37c19.1,0,19.1,32.7,0,32.7H23.5c-17.6,0-17.6,31.1,0,31.1h71.9
	c22.8,0,22.8,32.1,0,32.1H70.6c-16.8,0-16.8,31.6,0,31.6h300.5c18,0,18-29.9,0-29.9h-90.7c-20.2,0-20.2-32.7,0-32.7h59.3
	c18.2,0,18.2-31.7,0-31.7h-36.3c-14.9,0-14.9-32,0-32c0,0,33.3-0.1,33.4-0.1C359.8,79.3,359.7,47.7,336.8,47.8z"/>
<circle fill="#DBEDFA" cx="157.8" cy="39.8" r="2.7"/>
<circle fill="#DBEDFA" cx="193" cy="46.9" r="1.5"/>
<circle fill="#DBEDFA" cx="231.3" cy="46.2" r="3.8"/>
<circle fill="#DBEDFA" cx="262.8" cy="31.6" r="0.8"/>
<circle fill="#DBEDFA" cx="215.4" cy="20" r="2.8"/>
<circle fill="#DBEDFA" cx="290.5" cy="61.2" r="4.1"/>
<circle fill="#DBEDFA" cx="292" cy="84.3" r="1.5"/>
<circle fill="#DBEDFA" cx="313" cy="92.1" r="1.4"/>
<circle fill="#DBEDFA" cx="308.4" cy="124.5" r="1.8"/>
<ellipse fill="#DBEDFA" cx="319.5" cy="136.6" rx="1.3" ry="1"/>
<circle fill="#DBEDFA" cx="318.3" cy="157.7" r="3.3"/>
<circle fill="#DBEDFA" cx="126.2" cy="163.4" r="3.4"/>
<circle fill="#DBEDFA" cx="130" cy="136.7" r="0.9"/>
<circle fill="#DBEDFA" cx="133.1" cy="104.4" r="1.8"/>
<circle fill="#DBEDFA" cx="123.4" cy="82" r="2.8"/>
<circle fill="#DBEDFA" cx="142.6" cy="66.4" r="0.8"/>
<path fill="#FFFFFF" d="M268.3,179.4c-0.3-1.3-0.6-2.5-0.9-3.8c0.1-0.3,0.1-0.7,0.1-1c0.2-8,0.4-16.1,0.7-24.1
	c0-1.7-0.9-2.9-2.3-3.7c0.2-1.4,0.4-2.9,0.4-4.5c0.5-19.5,0.6-39,0.9-58.5c0.1-4.5,0.7-9.3-0.2-13.4c0.4-0.7,0.8-1.4,1.1-2.3
	c1.3-4-2.2-5-5.3-4.5c-1.1-0.7-2.4-1.4-4.1-1.8c-8.9-2.4-19-2.6-28.2-3.1c-19.4-1.1-39,0-58.2,3c-0.8,0.1-1.6,0.3-2.4,0.5
	c-3.7-0.5-7.6,0.2-10.6,2.4c-1.9,1.4-2.7,3.3-2.2,5c-0.1,0.2-0.2,0.4-0.3,0.5c-0.2,0.3-0.3,0.6-0.4,0.7c-1,0.4-2,0.9-2.9,1.6
	c-0.2,0-0.3,0-0.5,0c-0.8,0.1-2.5,0.6-2.3,1.7l0.2,1.8c0,0.2,0.1,0.4,0.3,0.6c0,0,0,0.1,0,0.1c0.2,3.9,0.1,7.8-0.5,11.6
	c-0.1,0.7-0.1,1.3,0,1.8c-0.6,4.8-0.7,9.5-0.4,14.3c0.3,5.6,0.9,11.1,0,16.6c-0.2,0.6-0.3,1.2-0.2,1.8c0,0.5,0.1,1,0.2,1.5
	c0.8,4.7,1.4,9.3,1.9,14c-0.1,0.3-0.1,0.7-0.1,1c-0.1,3.3,0.2,6.5,0.9,9.7c-0.1,2.2,0.1,4.3,0.5,6.5c-0.3,0.6-0.4,1.3-0.4,2
	c0.4,8.5,1.4,16.9,3.3,25.2c1.3,5.9,2.6,13.7,6,19.2c0.1,1.7,1.5,3.2,3.3,4c0.4,0.2,0.8,0.4,1.2,0.6c3.2,1.5,7.3,1.3,10.7,0.2
	c3.1-0.3,6.4-1.2,8.4-3.6c0.7-0.9,1-1.7,1-2.5c3.3-1,6.7-2.2,9-4.1c1.7-1.5,2.9-2.7,3.9-4.7c0.1-0.9,0.2-1.8,0.3-2.7
	c0.1-0.6,0.1-1,0.1-1.4c2.1-0.5,4-1.4,5.2-2.9c17.7,1.8,35.5,2.3,53.4,1.3C261.7,186,269.3,183.6,268.3,179.4z"/>
<path fill="#DAE7ED" d="M270.4,190.9c-2,0-3.9,0.1-5.9,0.1c-0.6-0.1-1.1-0.2-1.7-0.2c-6.9-0.2-13.9,0.2-20.8,0.5
	c-15.9,0.3-31.9,0.5-47.8,0.8c-1.4-0.2-2.9-0.5-4.3-0.9c-2.3-0.6-5.9,1.5-4.7,3c0.2,4.8-1.5,8.9-5.1,12c-0.8,0.7,0,1.4,0.8,1.4l3,0
	c0.6,0.4,1.3,0.6,1.9,0.6l49.6-0.2c3.6,0,7.8,0.1,12.1-0.2c5,0,10.1-0.3,14.7-2.4c5.2-2.5,8.6-7.9,9.4-13.4
	C271.7,191.2,271,190.9,270.4,190.9z"/>
<path fill="#DAE7ED" d="M283.1,181.3c-2.1,0-4.2,0.1-6.3,0.1c-0.6-0.1-1.2-0.2-1.9-0.2c-7.3-0.3-14.8,0.3-22.2,0.7
	c-17,0.3-34.1,0.6-51.1,1c-1.5-0.3-3.1-0.6-4.6-1.1c-2.5-0.8-6.3,1.9-5,3.7c0.2,6-1.6,11.1-5.5,15c-0.8,0.9,0,1.7,0.9,1.7l3.2,0
	c0.6,0.5,1.4,0.7,2.1,0.7l53-0.2c3.8,0,8.3,0.1,12.9-0.3c5.4,0,10.8-0.3,15.7-3c5.6-3.1,9.1-9.8,10-16.8
	C284.4,181.7,283.7,181.3,283.1,181.3z"/>
<path fill="none" stroke="#526C7D" stroke-width="2" stroke-linecap="round" stroke-linejoin="round" stroke-miterlimit="10" d="
	M157.6,64.5c35.1-8.5,72.1-8.7,111-0.3"/>
<path fill="none" stroke="#526C7D" stroke-width="2" stroke-linecap="round" stroke-linejoin="round" stroke-miterlimit="10" d="
	M266.6,141.2c0.1,4.1,0.3,8.2,0.5,12.3c0.4,9.7,0.9,19.5,1.5,28.8"/>
<path fill="none" stroke="#526C7D" stroke-width="2" stroke-linecap="round" stroke-linejoin="round" stroke-miterlimit="10" d="
	M266.1,121.6c0.1,3.2,0.1,6.3,0.2,8.5"/>
<path fill="none" stroke="#526C7D" stroke-width="2" stroke-linecap="round" stroke-linejoin="round" stroke-miterlimit="10" d="
	M268.6,64.2c-2.2,7.7-2.8,27.6-2.6,51.4"/>
<line fill="none" stroke="#526C7D" stroke-width="2" stroke-linecap="round" stroke-linejoin="round" stroke-miterlimit="10" x1="191.6" y1="182.2" x2="284.6" y2="182.2"/>
<line fill="none" stroke="#526C7D" stroke-width="2" stroke-linecap="round" stroke-linejoin="round" stroke-miterlimit="10" x1="191.6" y1="182.2" x2="191.6" y2="191.2"/>
<line fill="none" stroke="#526C7D" stroke-width="2" stroke-linecap="round" stroke-linejoin="round" stroke-miterlimit="10" x1="184.8" y1="191.2" x2="272.3" y2="191.2"/>
<line fill="none" stroke="#526C7D" stroke-width="2" stroke-linecap="round" stroke-linejoin="round" stroke-miterlimit="10" x1="258.3" y1="207.7" x2="168" y2="207.7"/>
<path fill="none" stroke="#526C7D" stroke-width="1.9901" stroke-linecap="round" stroke-linejoin="round" stroke-miterlimit="10" d="
	M272.3,191.2c-1.8,8.1-6.4,13.6-14,16.5"/>
<path fill="none" stroke="#526C7D" stroke-width="2" stroke-linecap="round" stroke-linejoin="round" stroke-miterlimit="10" d="
	M157.6,64.5c-1.8,57.2,2.1,138.3,17.1,138.2"/>
<path fill="none" stroke="#526C7D" stroke-width="2" stroke-linecap="round" stroke-linejoin="round" stroke-miterlimit="10" d="
	M150.9,73.2c-1.8,55.6,2.3,134.7,17.1,134.5"/>
<line fill="none" stroke="#526C7D" stroke-width="2" stroke-linecap="round" stroke-linejoin="round" stroke-miterlimit="10" x1="174.7" y1="202.7" x2="182.7" y2="202.7"/>
<path fill="none" stroke="#526C7D" stroke-width="1.9882" stroke-linecap="round" stroke-linejoin="round" stroke-miterlimit="10" d="
	M184.8,191.2c1.6,7.2-0.5,12.8-7.5,16.5"/>
<path fill="none" stroke="#526C7D" stroke-width="2.045" stroke-linecap="round" stroke-linejoin="round" stroke-miterlimit="10" d="
	M266.6,202.7c9.6-1.8,16.4-12.2,17.9-20.5"/>
<line fill="none" stroke="#526C7D" stroke-width="1.888" stroke-linecap="round" stroke-linejoin="round" stroke-miterlimit="10" x1="157.2" y1="70.5" x2="150.6" y2="73.2"/>
<line fill="none" stroke="#9EB5C1" stroke-width="2" stroke-linecap="round" stroke-linejoin="round" stroke-miterlimit="10" x1="178.7" y1="164.7" x2="231.2" y2="164.7"/>
<line fill="none" stroke="#9EB5C1" stroke-width="2" stroke-linecap="round" stroke-linejoin="round" stroke-miterlimit="10" x1="177.3" y1="149" x2="218.6" y2="149"/>
<line fill="none" stroke="#9EB5C1" stroke-width="2" stroke-linecap="round" stroke-linejoin="round" stroke-miterlimit="10" x1="224.9" y1="149" x2="237.1" y2="149"/>
<line fill="none" stroke="#9EB5C1" stroke-width="2" stroke-linecap="round" stroke-linejoin="round" stroke-miterlimit="10" x1="177.3" y1="133.6" x2="248.9" y2="133.6"/>
<path fill="none" stroke="#526C7D" stroke-width="2" stroke-linecap="round" stroke-linejoin="round" stroke-miterlimit="10" d="
	M241.3,65.4c7.4,0.1,14.3,0.8,20.3,2.7"/>
<path fill="none" stroke="#526C7D" stroke-width="2" stroke-linecap="round" stroke-linejoin="round" stroke-miterlimit="10" d="
	M261.6,68c-1.5,4.3-1.8,10.5-1.7,17.3"/>
<path fill="none" stroke="#99CCEE" stroke-width="2" stroke-linecap="round" stroke-linejoin="round" stroke-miterlimit="10" d="
	M214.5,75.2c0,0.9-0.7,1.6-1.6,1.6h-30c-0.9,0-1.6-0.7-1.6-1.6v-1.1c0-0.9,0.7-1.6,1.6-1.6h30c0.9,0,1.6,0.7,1.6,1.6V75.2z"/>
<line fill="none" stroke="#99CCEE" stroke-width="2" stroke-linecap="round" stroke-linejoin="round" stroke-miterlimit="10" x1="184.1" y1="76.7" x2="184.1" y2="106.4"/>
<line fill="none" stroke="#99CCEE" stroke-width="2" stroke-linecap="round" stroke-linejoin="round" stroke-miterlimit="10" x1="212" y1="76.7" x2="212" y2="106.4"/>
<line fill="none" stroke="#99CCEE" stroke-width="2" stroke-linecap="round" stroke-linejoin="round" stroke-miterlimit="10" x1="182.3" y1="106.4" x2="213.5" y2="106.4"/>
<line fill="none" stroke="#99CCEE" stroke-width="2" stroke-linecap="round" stroke-linejoin="round" stroke-miterlimit="10" x1="178.8" y1="110.5" x2="217.1" y2="110.5"/>
<path fill="none" stroke="#99CCEE" stroke-width="2" stroke-linecap="round" stroke-linejoin="round" stroke-miterlimit="10" d="
	M213.6,106.4c1.4,0.9,2.1,2.3,2,4.1"/>
<path fill="none" stroke="#99CCEE" stroke-width="2" stroke-linecap="round" stroke-linejoin="round" stroke-miterlimit="10" d="
	M182.4,106.4c-1.4,0.9-2.1,2.3-2,4.1"/>
<path fill="none" stroke="#99CCEE" stroke-linecap="round" stroke-linejoin="round" stroke-miterlimit="10" d="M197.2,84.6
	c0,0.9-0.7,1.6-1.6,1.6H189c-0.9,0-1.6-0.7-1.6-1.6v-2.5c0-0.9,0.7-1.6,1.6-1.6h6.6c0.9,0,1.6,0.7,1.6,1.6V84.6z"/>
<line fill="none" stroke="#99CCEE" stroke-linecap="round" stroke-linejoin="round" stroke-miterlimit="10" x1="192.3" y1="80.6" x2="192.3" y2="86.2"/>
<path fill="none" stroke="#99CCEE" stroke-linecap="round" stroke-linejoin="round" stroke-miterlimit="10" d="M208.7,84.6
	c0,0.9-0.7,1.6-1.6,1.6h-6.6c-0.9,0-1.6-0.7-1.6-1.6v-2.5c0-0.9,0.7-1.6,1.6-1.6h6.6c0.9,0,1.6,0.7,1.6,1.6V84.6z"/>
<line fill="none" stroke="#99CCEE" stroke-linecap="round" stroke-linejoin="round" stroke-miterlimit="10" x1="203.8" y1="80.6" x2="203.8" y2="86.2"/>
<path fill="none" stroke="#99CCEE" stroke-linecap="round" stroke-linejoin="round" stroke-miterlimit="10" d="M197.2,93.4
	c0,0.9-0.7,1.6-1.6,1.6H189c-0.9,0-1.6-0.7-1.6-1.6v-2.5c0-0.9,0.7-1.6,1.6-1.6h6.6c0.9,0,1.6,0.7,1.6,1.6V93.4z"/>
<line fill="none" stroke="#99CCEE" stroke-linecap="round" stroke-linejoin="round" stroke-miterlimit="10" x1="192.3" y1="89.4" x2="192.3" y2="95"/>
<path fill="none" stroke="#99CCEE" stroke-linecap="round" stroke-linejoin="round" stroke-miterlimit="10" d="M197.2,101.8
	c0,0.9-0.7,1.6-1.6,1.6H189c-0.9,0-1.6-0.7-1.6-1.6v-2.5c0-0.9,0.7-1.6,1.6-1.6h6.6c0.9,0,1.6,0.7,1.6,1.6V101.8z"/>
<line fill="none" stroke="#99CCEE" stroke-linecap="round" stroke-linejoin="round" stroke-miterlimit="10" x1="192.3" y1="97.8" x2="192.3" y2="103.4"/>
<path fill="none" stroke="#99CCEE" stroke-linecap="round" stroke-linejoin="round" stroke-miterlimit="10" d="M208.7,93.4
	c0,0.9-0.7,1.6-1.6,1.6h-6.6c-0.9,0-1.6-0.7-1.6-1.6v-2.5c0-0.9,0.7-1.6,1.6-1.6h6.6c0.9,0,1.6,0.7,1.6,1.6V93.4z"/>
<line fill="none" stroke="#99CCEE" stroke-linecap="round" stroke-linejoin="round" stroke-miterlimit="10" x1="203.8" y1="89.4" x2="203.8" y2="95"/>
<path fill="none" stroke="#99CCEE" stroke-linecap="round" stroke-linejoin="round" stroke-miterlimit="10" d="M208.2,106.4H200
	v-7.1c0-0.9,0.7-1.6,1.6-1.6h5.1c0.9,0,1.6,0.7,1.6,1.6V106.4z"/>
<line fill="none" stroke="#99CCEE" stroke-linecap="round" stroke-linejoin="round" stroke-miterlimit="10" x1="204.1" y1="97.8" x2="204.1" y2="106.4"/>
</svg>
