<?xml version="1.0" encoding="utf-8"?>
<!-- Generator: Adobe Illustrator 17.1.0, SVG Export Plug-In . SVG Version: 6.00 Build 0)  -->
<!DOCTYPE svg PUBLIC "-//W3C//DTD SVG 1.1//EN" "http://www.w3.org/Graphics/SVG/1.1/DTD/svg11.dtd">
<svg version="1.1" id="Слой_1" xmlns="http://www.w3.org/2000/svg" xmlns:xlink="http://www.w3.org/1999/xlink" x="0px" y="0px"
	 width="78.2px" height="72px" viewBox="0 0 78.2 72" enable-background="new 0 0 78.2 72" xml:space="preserve">
<path fill="none" stroke="#020202" stroke-width="5" stroke-linejoin="round" stroke-miterlimit="10" d="M26.4,19.7
	c0,0,2.8,6.4,5.4,4.4s3-3.5,1.2-8.1S31.5,4.1,36.2,3.4s11.7,2.5,7,12.5s-2,7.7,3.3,8.5c5.3,0.9,1.4,8.9,5.2,8.2
	c3.8-0.7,8.5,8.7,6.1,11.7s-7.7-1.7-9.7-2.3s-8.2,0.7-5.6,9.2c2.6,8.5-1.1,12.1-5.4,12.1c-4.3,0-6.6-5.3-4.2-10.3s0-7.1-2.9-6.2
	c-2.9,0.9-2.9,9.7-7.4,11.5c-4.5,1.7-10.3-2.7-5.6-9.5s6.9-11.8,0-10.8S1,38,3.4,30s10.3-1,13.7,0.3c3.4,1.3,6.5-3.2,2.5-6.3
	s-7.3-6.7-3.7-11.7S26.6,10,26.4,19.7z"/>
<path fill="none" stroke="#020202" stroke-width="5" stroke-linejoin="round" stroke-miterlimit="10" d="M60.6,24.5
	c0,0,1-10.3,9.3-8.3s4.7,8.3-2.3,8.3S60.6,24.5,60.6,24.5z"/>
<path fill="none" stroke="#020202" stroke-width="5" stroke-linejoin="round" stroke-miterlimit="10" d="M56.5,57.9
	c0,0,2.3,11.8,8.7,10.6C71.5,67.4,71.8,58.5,56.5,57.9z"/>
</svg>
