<?xml version="1.0" encoding="utf-8"?>
<!-- Generator: Adobe Illustrator 17.1.0, SVG Export Plug-In . SVG Version: 6.00 Build 0)  -->
<!DOCTYPE svg PUBLIC "-//W3C//DTD SVG 1.1//EN" "http://www.w3.org/Graphics/SVG/1.1/DTD/svg11.dtd">
<svg version="1.1" id="Слой_1" xmlns="http://www.w3.org/2000/svg" xmlns:xlink="http://www.w3.org/1999/xlink" x="0px" y="0px"
	 width="48.5px" height="46.7px" viewBox="0 0 48.5 46.7" enable-background="new 0 0 48.5 46.7" xml:space="preserve">
<path fill="none" stroke="#020202" stroke-width="4.75" stroke-linejoin="bevel" stroke-miterlimit="10" d="M4,7.9
	C4,7.9,5.8,4,7.6,4s2.1-1.9,4,6.5s2.8,9.8,5.3,7.1S26.1,7.3,27.4,6.5c1.3-0.8,5.2,3.9,5.6,5c0.4,1.2-0.8,2.6-6.1,7.5
	s-8,7.8-8.8,12.4s-1.8,9.6-1.3,10.7c0.5,1.1-13.5,1-12.6-3.8s3.5-13,3.6-14.6C7.8,22.2,4,7.9,4,7.9z"/>
<path fill="none" stroke="#020202" stroke-width="4.75" stroke-linejoin="bevel" stroke-miterlimit="10" d="M33,11.6
	c0,0,20.7,25.1,7.9,23.8c-12.8-1.2-20.2-9.8-20.2-9.8"/>
</svg>
