<?xml version="1.0" encoding="utf-8"?>
<!-- Generator: Adobe Illustrator 17.1.0, SVG Export Plug-In . SVG Version: 6.00 Build 0)  -->
<!DOCTYPE svg PUBLIC "-//W3C//DTD SVG 1.1//EN" "http://www.w3.org/Graphics/SVG/1.1/DTD/svg11.dtd">
<svg version="1.1" id="Слой_1" xmlns="http://www.w3.org/2000/svg" xmlns:xlink="http://www.w3.org/1999/xlink" x="0px" y="0px"
	 width="50.3px" height="50.7px" viewBox="0 0 50.3 50.7" enable-background="new 0 0 50.3 50.7" xml:space="preserve">
<path fill="none" stroke="#020202" stroke-width="5" stroke-miterlimit="10" d="M6.8,15.6c0,0,6.5-0.1,9-0.5s4-2.1,5.1-4.1
	c1.1-2.1,2.9-5.7,3.8-6.7s3-2.4,4.8,2.9s2.7,10,5.6,11c2.9,1.1,11.6,2.2,11.5,4.3c-0.1,2.2-2.3,3.7-6.3,6.2s-5.2,6-3.9,9.8
	s2.5,9.5-1.2,9.2s-5.8-3.2-8.5-5.5s-5.1-2.5-8.3-1.3s-8,4.7-10.2,2.3C6,40.8,10.7,34.1,12,31.8s-0.8-4.7-2.3-6.3
	C8.2,23.9-1.3,16,6.8,15.6z"/>
</svg>
