<?xml version="1.0" encoding="utf-8"?>
<!-- Generator: Adobe Illustrator 17.1.0, SVG Export Plug-In . SVG Version: 6.00 Build 0)  -->
<!DOCTYPE svg PUBLIC "-//W3C//DTD SVG 1.1//EN" "http://www.w3.org/Graphics/SVG/1.1/DTD/svg11.dtd">
<svg version="1.1" id="Слой_1" xmlns="http://www.w3.org/2000/svg" xmlns:xlink="http://www.w3.org/1999/xlink" x="0px" y="0px"
	 width="58.8px" height="71.7px" viewBox="0 0 58.8 71.7" enable-background="new 0 0 58.8 71.7" xml:space="preserve">
<path fill="none" stroke="#030204" stroke-width="5" stroke-linecap="round" stroke-linejoin="round" stroke-miterlimit="10" d="
	M37.8,11.5c11.2,2.3,18.3,13.2,16,24.4c-0.2,0.7-0.3,1.4-0.6,2.1c-1.4,4.2-4,7.8-7.4,10.3c-4.6,3.4-10.5,4.8-16.4,3.6
	c-11.2-2.3-18.3-13.2-16-24.4S26.7,9.2,37.8,11.5z"/>
<path fill="none" stroke="#030204" stroke-width="5" stroke-linecap="round" stroke-linejoin="round" stroke-miterlimit="10" d="
	M26,12.5c4.7-1.8,11.8,5.3,16,15.9c0.3,0.7,0.5,1.4,0.8,2.1C44.3,34.6,45,38.7,45,42c0,4.5-1.3,7.9-3.8,8.9
	c-4.7,1.8-11.8-5.3-16-15.9S21.4,14.4,26,12.5z"/>
<path fill="none" stroke="#030204" stroke-width="5" stroke-linecap="round" stroke-linejoin="round" stroke-miterlimit="10" d="
	M50.9,20.3c-2.5,5.3-8.4,10.6-16.2,13.7c-7.8,3.1-15.7,3.3-21.2,1.1"/>
<path fill="none" stroke="#030204" stroke-width="5" stroke-linecap="round" stroke-linejoin="round" stroke-miterlimit="10" d="
	M48.3,56.2c-2.5,1.6-5.2,2.8-8,3.5c-7.5,2-15.9,0.9-22.9-3.7C4.2,47.3,0.6,29.7,9.2,16.5C13.5,10,19.9,5.9,26.9,4.3"/>
<line fill="none" stroke="#030204" stroke-width="5" stroke-linecap="round" stroke-linejoin="round" stroke-miterlimit="10" x1="41.6" y1="50.8" x2="43.6" y2="55.6"/>
<line fill="none" stroke="#030204" stroke-width="5" stroke-linecap="round" stroke-linejoin="round" stroke-miterlimit="10" x1="23.7" y1="7.8" x2="25.7" y2="12.6"/>
<line fill="none" stroke="#030204" stroke-width="5" stroke-linecap="round" stroke-linejoin="round" stroke-miterlimit="10" x1="33.6" y1="62.7" x2="33.6" y2="67.7"/>
<line fill="none" stroke="#030204" stroke-width="5" stroke-linecap="round" stroke-linejoin="round" stroke-miterlimit="10" x1="27.7" y1="67.7" x2="39.5" y2="67.7"/>
</svg>
