<?xml version="1.0" encoding="utf-8"?>
<!-- Generator: Adobe Illustrator 17.1.0, SVG Export Plug-In . SVG Version: 6.00 Build 0)  -->
<!DOCTYPE svg PUBLIC "-//W3C//DTD SVG 1.1//EN" "http://www.w3.org/Graphics/SVG/1.1/DTD/svg11.dtd">
<svg version="1.1" id="Слой_1" xmlns="http://www.w3.org/2000/svg" xmlns:xlink="http://www.w3.org/1999/xlink" x="0px" y="0px"
	 width="84.3px" height="78px" viewBox="0 0 84.3 78" enable-background="new 0 0 84.3 78" xml:space="preserve">
<path fill="none" stroke="#020202" stroke-width="5" stroke-linecap="round" stroke-linejoin="round" stroke-miterlimit="10" d="
	M40.9,45.6c0,0-2.6-1.4-0.5-4.4c2-3.1,6.4-1.1,7.6,1.1c1.2,2.2,2.4,7.8-4.6,10.4s-12.5-5-11.5-9.9c1-4.9,3.9-11.7,14.7-9.9
	s10.5,14.3,8.7,17.5c-1.8,3.2-5.8,11.7-18.6,9.1S24.1,43.4,25.1,39.3s6.2-16.8,23.8-13.6S66.6,53.1,58.2,60"/>
<path fill="none" stroke="#020202" stroke-width="5" stroke-linecap="round" stroke-linejoin="round" stroke-miterlimit="10" d="
	M44.2,16.6"/>
<line fill="none" stroke="#020202" stroke-width="5" stroke-linecap="round" stroke-linejoin="round" stroke-miterlimit="10" x1="42.8" y1="3.6" x2="44.2" y2="16.6"/>
<line fill="none" stroke="#020202" stroke-width="5" stroke-linecap="round" stroke-linejoin="round" stroke-miterlimit="10" x1="60.8" y1="20" x2="68.2" y2="10.1"/>
<line fill="none" stroke="#020202" stroke-width="5" stroke-linecap="round" stroke-linejoin="round" stroke-miterlimit="10" x1="71.5" y1="40" x2="80.5" y2="40"/>
<line fill="none" stroke="#020202" stroke-width="5" stroke-linecap="round" stroke-linejoin="round" stroke-miterlimit="10" x1="49.5" y1="66.3" x2="53.8" y2="74.3"/>
<line fill="none" stroke="#020202" stroke-width="5" stroke-linecap="round" stroke-linejoin="round" stroke-miterlimit="10" x1="21.2" y1="60" x2="11.2" y2="66.3"/>
<line fill="none" stroke="#020202" stroke-width="5" stroke-linecap="round" stroke-linejoin="round" stroke-miterlimit="10" x1="16.2" y1="44.3" x2="3.8" y2="46.6"/>
<line fill="none" stroke="#020202" stroke-width="5" stroke-linecap="round" stroke-linejoin="round" stroke-miterlimit="10" x1="23.2" y1="27" x2="13.2" y2="20"/>
</svg>
