<?xml version="1.0" encoding="utf-8"?>
<!-- Generator: Adobe Illustrator 17.1.0, SVG Export Plug-In . SVG Version: 6.00 Build 0)  -->
<!DOCTYPE svg PUBLIC "-//W3C//DTD SVG 1.1//EN" "http://www.w3.org/Graphics/SVG/1.1/DTD/svg11.dtd">
<svg version="1.1" id="Слой_1" xmlns="http://www.w3.org/2000/svg" xmlns:xlink="http://www.w3.org/1999/xlink" x="0px" y="0px"
	 width="127.5px" height="142.6px" viewBox="0 0 127.5 142.6" enable-background="new 0 0 127.5 142.6" xml:space="preserve">
<g>
	<path fill="#030204" d="M63.6,41.1l0,5c0,0,0,0,0,0c2.2,0,4.5,0.2,6.7,0.5c11.4,1.8,21.5,7.9,28.3,17.2s9.6,20.7,7.9,32.2
		c-2.8,17.8-34.3,25-47,25c-1.1,0-1.8-0.1-2-0.1c-2.8-0.4-12.8-5.4-22.1-13.3c-6-5.1-15.8-15.2-14.3-24.8
		c1.6-10.3,6.8-19.6,14.7-26.3c7.8-6.7,17.8-10.3,28-10.3L63.6,41.1 M63.6,41.1C40.2,41.1,19.7,58.1,16,82
		c-3.3,21.1,32.5,42.5,40.6,43.8c0.7,0.1,1.7,0.2,2.8,0.2c12.6,0,48.6-7.2,52-29.2c4.1-26.3-14-51-40.3-55.1
		C68.6,41.3,66.1,41.1,63.6,41.1L63.6,41.1z"/>
</g>
<path fill="none" stroke="#030204" stroke-width="5" stroke-linecap="round" stroke-linejoin="round" stroke-miterlimit="10" d="
	M108.5,78.8c10.6,5.2,16.7,11.1,15.9,16.5c-1.6,10.6-29.9,15-63.1,9.9S2.4,87.3,4,76.7c0.8-5.3,8.4-9.1,19.9-10.9"/>
<path fill="#030204" d="M68.1,46l1.3-14c0.1-1.5,1.5-2.7,3.1-2.5h0c1.5,0.1,2.7,1.5,2.5,3.1l-1.3,13.8L68.1,46z"/>
<path fill="#030204" d="M35.1,130.2l7.5-11.8c0.8-1.3,2.6-1.7,3.9-0.9l0,0c1.3,0.8,1.7,2.6,0.9,3.9l-7.4,11.7L35.1,130.2z"/>
<ellipse transform="matrix(-0.8447 -0.5353 0.5353 -0.8447 -3.2098 264.6496)" fill="#030204" cx="36.8" cy="132.8" rx="4.8" ry="3.3"/>
<path fill="#030204" d="M70.4,138.1l-3.3-13.6c-0.4-1.5,0.6-3,2.1-3.4h0c1.5-0.4,3,0.6,3.4,2.1l3.3,13.5L70.4,138.1z"/>
<ellipse transform="matrix(-0.9714 0.2375 -0.2375 -0.9714 177.7348 255.8512)" fill="#030204" cx="73.5" cy="138.6" rx="4.8" ry="3.3"/>
<path fill="none" stroke="#030204" stroke-width="5" stroke-linecap="round" stroke-linejoin="round" stroke-miterlimit="10" d="
	M57.9,7.6C61.6,5.4,66,4,70.7,3.7c9.5-0.6,18.2,3.3,24,10"/>
<path fill="none" stroke="#030204" stroke-width="5" stroke-linecap="round" stroke-linejoin="round" stroke-miterlimit="10" d="
	M49.3,72.5c3.5-1.7,7.5-2.8,11.7-3.1c8.7-0.6,16.6,2.3,21.8,7.2"/>
<g>
	<path fill="#030204" d="M65.1,62.3L65.1,62.3c0.8,0,1.6,0.1,2.3,0.2c8.3,1.3,14,9.1,12.7,17.4c-1.1,7.4-7.6,12.9-15,12.9
		c-0.8,0-1.6-0.1-2.3-0.2c-8.3-1.3-14-9.1-12.7-17.4C51.2,67.9,57.6,62.3,65.1,62.3 M65.1,57.6c-9.7,0-18.2,7.1-19.7,16.9
		C43.7,85.4,51.1,95.6,62,97.3c1,0.2,2.1,0.2,3.1,0.2c9.7,0,18.2-7.1,19.7-16.9c1.7-10.9-5.8-21.1-16.7-22.8
		C67.1,57.6,66.1,57.6,65.1,57.6L65.1,57.6z"/>
</g>
<circle fill="#030204" cx="64.3" cy="78.9" r="3.3"/>
<path fill="none" stroke="#030204" stroke-width="5" stroke-linecap="round" stroke-linejoin="round" stroke-miterlimit="10" d="
	M64.7,18.3c2.7-2,6.1-3,9.7-2.4C78,16.4,81,18.3,83,21"/>
</svg>
