<?xml version="1.0" encoding="utf-8"?>
<!-- Generator: Adobe Illustrator 17.1.0, SVG Export Plug-In . SVG Version: 6.00 Build 0)  -->
<!DOCTYPE svg PUBLIC "-//W3C//DTD SVG 1.1//EN" "http://www.w3.org/Graphics/SVG/1.1/DTD/svg11.dtd">
<svg version="1.1" id="Слой_1" xmlns="http://www.w3.org/2000/svg" xmlns:xlink="http://www.w3.org/1999/xlink" x="0px" y="0px"
	 width="68px" height="56px" viewBox="0 0 68 56" enable-background="new 0 0 68 56" xml:space="preserve">
<g>
	<path fill="#030204" d="M35.8,7.3v5c8.1,0,15.4,5.1,18.1,12.8c2.8,7.8-8,22.1-11.6,24.5c0,0,0,0,0,0c-6.4,0-22.6-5.8-24.6-11.6
		c-1.7-4.8-1.5-10.1,0.7-14.7c2.2-4.6,6.1-8.1,10.9-9.9c2.1-0.7,4.3-1.1,6.5-1.1L35.8,7.3 M35.8,7.3c-2.7,0-5.4,0.5-8.1,1.4
		C15.1,13.2,8.5,27,13,39.7c3.2,9.1,22.7,14.9,29.3,14.9c0.7,0,1.3-0.1,1.6-0.2c4.1-1.5,18.8-19.5,14.7-31
		C55.1,13.5,45.8,7.3,35.8,7.3L35.8,7.3z"/>
</g>
<path fill="none" stroke="#030204" stroke-width="5" stroke-linecap="round" stroke-linejoin="round" stroke-miterlimit="10" d="
	M53.1,16.1c5.9-0.2,10.1,0.9,11,3.5c1.8,5.1-9.6,13.8-25.5,19.5S8.3,45.2,6.5,40.2c-0.9-2.6,1.5-6,6.2-9.6"/>
<line fill="none" stroke="#030204" stroke-width="5" stroke-linecap="round" stroke-linejoin="round" stroke-miterlimit="10" x1="27.3" y1="10.8" x2="24.4" y2="3.5"/>
</svg>
