<svg id="SvgjsSvg1000" xmlns="http://www.w3.org/2000/svg" version="1.1" xmlns:xlink="http://www.w3.org/1999/xlink" xmlns:svgjs="http://svgjs.com/svgjs" width="10" height="10" viewBox="0 0 10 10"><title>1 копия</title><desc>Created with Avocode.</desc><defs id="SvgjsDefs1001"></defs><path id="SvgjsPath1007" d="M285.097 1850.62C285.022 1850.55 284.989 1850.4899999999998 285 1850.3899999999999C285 1850.3899999999999 285 1848.6499999999999 285 1848.4599999999998C282.8 1848.4599999999998 280.81 1849.9899999999998 280.415 1851.9999999999998C280.149 1851.4099999999999 280 1850.7599999999998 280 1850.0799999999997C280 1847.4099999999996 282.241 1845.2499999999998 285.006 1845.2499999999998L285.006 1843.3599999999997C284.99399999999997 1843.2599999999998 285.02099999999996 1843.1599999999996 285.097 1843.0899999999997C285.229 1842.9599999999996 285.443 1842.9599999999996 285.575 1843.0899999999997L288.905 1846.6099999999997C288.97499999999997 1846.6799999999996 289.005 1846.7699999999998 289.001 1846.8599999999997C289.005 1846.9399999999996 288.97499999999997 1847.0299999999997 288.905 1847.0999999999997L285.594 1850.5999999999997C285.46999999999997 1850.6999999999996 285.243 1850.7599999999998 285.097 1850.6199999999997Z " fill="#a1aeb5" fill-opacity="1" transform="matrix(1,0,0,1,-280,-1842)"></path></svg>