<?xml version="1.0" encoding="utf-8"?>
<!-- Generator: Adobe Illustrator 17.1.0, SVG Export Plug-In . SVG Version: 6.00 Build 0)  -->
<!DOCTYPE svg PUBLIC "-//W3C//DTD SVG 1.1//EN" "http://www.w3.org/Graphics/SVG/1.1/DTD/svg11.dtd">
<svg version="1.1" id="Слой_1" xmlns="http://www.w3.org/2000/svg" xmlns:xlink="http://www.w3.org/1999/xlink" x="0px" y="0px"
	 width="65.9px" height="57.5px" viewBox="0 0 65.9 57.5" enable-background="new 0 0 65.9 57.5" xml:space="preserve">
<g>
	<path fill="#030204" d="M32.4,8.9v5h0c1.9,0,3.8,0.3,5.6,0.8c4.9,1.5,9,4.8,11.4,9.3s2.9,9.7,1.4,14.6
		c-2.2,7.4-17.9,12.8-23.9,12.8c0,0,0,0,0,0c-1.5-1.1-5.3-5.1-8.5-10.4c-4.2-6.8-5-11.5-4.4-13.6c2.4-8,10-13.7,18.4-13.7L32.4,8.9
		 M32.4,8.9c-10.4,0-20,6.7-23.2,17.2c-3.1,10.2,12.2,29,16.2,30.2c0.4,0.1,0.9,0.2,1.6,0.2c6.6,0,25.4-5.7,28.6-16.3
		c3.9-12.8-3.3-26.3-16.2-30.2C37.1,9.3,34.7,8.9,32.4,8.9L32.4,8.9z"/>
</g>
<path fill="none" stroke="#030204" stroke-width="5" stroke-linecap="round" stroke-linejoin="round" stroke-miterlimit="10" d="
	M55.4,31.1c4.9,3.3,7.5,6.7,6.7,9.3c-1.6,5.2-15.9,5.4-32.1,0.5S2.1,27.8,3.6,22.7c0.8-2.6,4.8-3.9,10.7-4"/>
<line fill="none" stroke="#030204" stroke-width="5" stroke-linecap="round" stroke-linejoin="round" stroke-miterlimit="10" x1="37.9" y1="11.4" x2="39.9" y2="3.8"/>
</svg>
