<?xml version="1.0" encoding="utf-8"?>
<!-- Generator: Adobe Illustrator 17.1.0, SVG Export Plug-In . SVG Version: 6.00 Build 0)  -->
<!DOCTYPE svg PUBLIC "-//W3C//DTD SVG 1.1//EN" "http://www.w3.org/Graphics/SVG/1.1/DTD/svg11.dtd">
<svg version="1.1" id="Слой_1" xmlns="http://www.w3.org/2000/svg" xmlns:xlink="http://www.w3.org/1999/xlink" x="0px" y="0px"
	 width="20px" height="16px" viewBox="0 0 20 16" enable-background="new 0 0 20 16" xml:space="preserve">
<path fill-rule="evenodd" clip-rule="evenodd" fill="#2B2B2B" d="M0.4,8.9l6.6,6.8c0.5,0.5,1.2,0.5,1.7,0c0.5-0.5,0.5-1.3,0-1.8
	L4.2,9.2h14.6C19.5,9.2,20,8.7,20,8s-0.5-1.3-1.2-1.3H4.2l4.5-4.6c0.5-0.5,0.5-1.3,0-1.8C8.4,0.1,8.1,0,7.8,0C7.5,0,7.2,0.1,6.9,0.4
	L0.4,7.1C-0.1,7.6-0.1,8.4,0.4,8.9z"/>
</svg>
