<?xml version="1.0" encoding="utf-8"?>
<!-- Generator: Adobe Illustrator 17.1.0, SVG Export Plug-In . SVG Version: 6.00 Build 0)  -->
<!DOCTYPE svg PUBLIC "-//W3C//DTD SVG 1.1//EN" "http://www.w3.org/Graphics/SVG/1.1/DTD/svg11.dtd">
<svg version="1.1" id="Слой_1" xmlns="http://www.w3.org/2000/svg" xmlns:xlink="http://www.w3.org/1999/xlink" x="0px" y="0px"
	 width="14px" height="14px" viewBox="0 0 14 14" enable-background="new 0 0 14 14" xml:space="preserve">
<path d="M7.1,0c0.7,0,1.2,0.5,1.2,1.2l0,4.8l4.5,0C13.5,6,14,6.5,14,7.2c0,0.7-0.5,1.2-1.2,1.2l-4.5,0l0,4.5c0,0.7-0.5,1.2-1.2,1.2
	C6.5,14,6,13.5,6,12.8l0-4.5l-4.8,0C0.5,8.3,0,7.7,0,7.1c0-0.7,0.5-1.2,1.2-1.2l4.8,0l0-4.8C5.9,0.5,6.4,0,7.1,0z"/>
</svg>
