<?xml version="1.0" encoding="utf-8"?>
<!-- Generator: Adobe Illustrator 17.1.0, SVG Export Plug-In . SVG Version: 6.00 Build 0)  -->
<!DOCTYPE svg PUBLIC "-//W3C//DTD SVG 1.1//EN" "http://www.w3.org/Graphics/SVG/1.1/DTD/svg11.dtd">
<svg version="1.1" id="Слой_1" xmlns="http://www.w3.org/2000/svg" xmlns:xlink="http://www.w3.org/1999/xlink" x="0px" y="0px"
	 width="166.7px" height="117px" viewBox="0 0 166.7 117" enable-background="new 0 0 166.7 117" xml:space="preserve">
<path fill="#F3FAFE" d="M139.5,20.2H31.1c-7.8,0-7.8,17.8,0,17.8h15.8c8.2,0,8.2,19.2,0,19.2H5.6c-7.5,0-7.5,18.3,0,18.3h30.7
	c9.8,0,9.8,18.9,0,18.9H25.8c-7.2,0-7.2,18.6,0,18.6h128.4c7.7,0,7.7-17.5,0-17.5h-38.7c-8.6,0-8.6-19.2,0-19.2h25.3
	c7.8,0,7.8-18.6,0-18.6h-15.5c-6.4,0-6.4-18.8,0-18.8c0,0,14.2,0,14.3,0C149.2,38.7,149.2,20.1,139.5,20.2z"/>
<circle fill="#DBEDFA" cx="40.8" cy="17.9" r="2.7"/>
<circle fill="#DBEDFA" cx="15.3" cy="75" r="2.7"/>
<circle fill="#DBEDFA" cx="19.4" cy="55.8" r="1.5"/>
<circle fill="#DBEDFA" cx="61.9" cy="25.3" r="1.5"/>
<circle fill="#DBEDFA" cx="130.3" cy="55.8" r="1.5"/>
<circle fill="#DBEDFA" cx="127.3" cy="76.5" r="1.5"/>
<circle fill="#DBEDFA" cx="101.4" cy="18.6" r="3.8"/>
<circle fill="#DBEDFA" cx="75.8" cy="6.9" r="2.8"/>
<circle fill="#DBEDFA" cx="143" cy="64" r="2.8"/>
<circle fill="#DBEDFA" cx="138.8" cy="25.3" r="4.1"/>
<circle fill="#DBEDFA" cx="36.4" cy="61.2" r="1.8"/>
<circle fill="#DBEDFA" cx="33.6" cy="40" r="2.8"/>
<path fill="#99CCEE" d="M112.8,42.7c-9.9-3.2-20.2-7.9-30.5-9.6c-3.6-0.6-7,0.8-10.3,2l-6.9,2.5c-0.4,0-0.8,0-1.1,0.2
	c-3.1,1.2-6.1,2.3-9.2,3.5c-2.4,0.6-4.8,1-7.3,1.4c-3,0.4-2.7,3.2,0.3,2.8c1.8-0.2,3.5-0.5,5.3-0.9c0.8,0.4,1.9,0.3,2.6,0.2
	c0.5-0.1,1.1-0.2,1.6-0.3c0.2,0.4,0.8,0.7,1.6,0.7c17.4,1.7,34.9,1,52.4,0.1C112.5,45.3,115,43.4,112.8,42.7z"/>
<line fill="none" stroke="#526C7D" stroke-width="2" stroke-linecap="round" stroke-linejoin="round" stroke-miterlimit="10" x1="45.2" y1="47.4" x2="114.2" y2="47.4"/>
<line fill="none" stroke="#526C7D" stroke-width="2" stroke-linecap="round" stroke-linejoin="round" stroke-miterlimit="10" x1="41.4" y1="45" x2="118" y2="45"/>
<line fill="none" stroke="#526C7D" stroke-width="2" stroke-linecap="round" stroke-linejoin="round" stroke-miterlimit="10" x1="45.2" y1="92.6" x2="114.2" y2="92.6"/>
<path fill="#99CCEE" d="M61.1,86c-0.2,0-0.3,0-0.5,0c0.2-0.2,0.3-0.5,0.3-0.8c-0.1-5.1-0.2-10.3-0.2-15.4c0-0.7-0.2-2.9-0.3-5.5
	c0.2-1.8,0.4-3.6,0.7-5.4c0.1-0.5-0.2-0.9-0.6-1.2c0.2-0.7,0.2-1.5-0.1-2.4c0.2-1.2,0.4-2,0.9-2.2c2.7-0.9,1.4-2.9-1-2.7
	c-3,0.2-6,0.4-9,0.6c-2.4,0.1-3.2,2.7-0.4,2.9c1.7,0.1,0.9,2.5,0.9,2.9c0,0.1,0.1,0.9,0,1c-0.3,0.2-0.4,0.6-0.4,1
	c0,6.9,0.2,13.6-0.2,20.2c-0.1,2.6-0.7,5.2-1.1,7.8c-0.4,0.4-0.4,0.9-0.2,1.3c0,0.1,0,0.1,0,0.2c-0.3,1.4,1.6,1.6,2.6,1.5
	c2.7-0.3,5.4-0.6,8.2-0.9C63.1,88.6,64,86.1,61.1,86z"/>
<path fill="#99CCEE" d="M85,86c-0.2,0-0.3,0-0.5,0c0.2-0.2,0.3-0.5,0.3-0.8c-0.1-5.1-0.2-10.3-0.2-15.4c0-0.7-0.2-2.9-0.3-5.5
	c0.2-1.8,0.4-3.6,0.7-5.4c0.1-0.5-0.2-0.9-0.6-1.2c0.2-0.7,0.2-1.5-0.1-2.4c0.2-1.2,0.4-2,0.9-2.2c2.7-0.9,1.4-2.9-1-2.7
	c-3,0.2-6,0.4-9,0.6c-2.4,0.1-3.2,2.7-0.4,2.9c1.7,0.1,0.9,2.5,0.9,2.9c0,0.1,0.1,0.9,0,1c-0.3,0.2-0.4,0.6-0.4,1
	c0,6.9,0.2,13.6-0.2,20.2c-0.1,2.6-0.7,5.2-1.1,7.8c-0.4,0.4-0.4,0.9-0.2,1.3c0,0.1,0,0.1,0,0.2c-0.3,1.4,1.6,1.6,2.6,1.5
	c2.7-0.3,5.4-0.6,8.2-0.9C87,88.6,87.9,86.1,85,86z"/>
<path fill="#99CCEE" d="M110.3,86c-0.2,0-0.3,0-0.5,0c0.2-0.2,0.3-0.5,0.3-0.8c-0.1-5.1-0.2-10.3-0.2-15.4c0-0.7-0.2-2.9-0.3-5.5
	c0.2-1.8,0.4-3.6,0.7-5.4c0.1-0.5-0.2-0.9-0.6-1.2c0.2-0.7,0.2-1.5-0.1-2.4c0.2-1.2,0.4-2,0.9-2.2c2.7-0.9,1.4-2.9-1-2.7
	c-3,0.2-6,0.4-9,0.6c-2.4,0.1-3.2,2.7-0.4,2.9c1.7,0.1,0.9,2.5,0.9,2.9c0,0.1,0.1,0.9,0,1c-0.3,0.2-0.4,0.6-0.4,1
	c0,6.9,0.2,13.6-0.2,20.2c-0.1,2.6-0.7,5.2-1.1,7.8C99,87.1,99,87.6,99.2,88c0,0.1,0,0.1,0,0.2c-0.3,1.4,1.6,1.6,2.6,1.5
	c2.7-0.3,5.4-0.6,8.2-0.9C112.2,88.6,113.2,86.1,110.3,86z"/>
<line fill="none" stroke="#526C7D" stroke-width="2" stroke-linecap="round" stroke-linejoin="round" stroke-miterlimit="10" x1="51.6" y1="96.2" x2="119.5" y2="96.2"/>
<line fill="none" stroke="#526C7D" stroke-width="2" stroke-linecap="round" stroke-linejoin="round" stroke-miterlimit="10" x1="39.1" y1="96.2" x2="47.3" y2="96.2"/>
<line fill="none" stroke="#526C7D" stroke-width="2" stroke-linecap="round" stroke-linejoin="round" stroke-miterlimit="10" x1="36.6" y1="99.8" x2="98.3" y2="99.8"/>
<line fill="none" stroke="#526C7D" stroke-width="2" stroke-linecap="round" stroke-linejoin="round" stroke-miterlimit="10" x1="102.4" y1="99.8" x2="123.9" y2="99.8"/>
<path fill="none" stroke="#526C7D" stroke-width="2" stroke-linecap="round" stroke-linejoin="round" stroke-miterlimit="10" d="
	M51.6,70.5c0,5,0,10.1,0,15.1"/>
<path fill="none" stroke="#526C7D" stroke-width="2" stroke-linecap="round" stroke-linejoin="round" stroke-miterlimit="10" d="
	M51.6,54.4c0,2.2,0,4.3,0,6.5"/>
<line fill="none" stroke="#526C7D" stroke-width="2" stroke-linecap="round" stroke-linejoin="round" stroke-miterlimit="10" x1="60.9" y1="54.4" x2="60.9" y2="85.7"/>
<path fill="#FED277" stroke="#526C7D" stroke-width="2" stroke-miterlimit="10" d="M63,52.1c0,1-0.7,1.8-1.5,1.8H50.8
	c-0.9,0-1.5-0.8-1.5-1.8v-0.3c0-1,0.7-1.8,1.5-1.8h10.6c0.9,0,1.5,0.8,1.5,1.8V52.1z"/>
<path fill="#FED277" stroke="#526C7D" stroke-width="2" stroke-miterlimit="10" d="M63,87.8c0,1-0.7,1.8-1.5,1.8H50.8
	c-0.9,0-1.5-0.8-1.5-1.8v-0.3c0-1,0.7-1.8,1.5-1.8h10.6c0.9,0,1.5,0.8,1.5,1.8V87.8z"/>
<line fill="none" stroke="#526C7D" stroke-width="2" stroke-linecap="round" stroke-linejoin="round" stroke-miterlimit="10" x1="75.3" y1="54.4" x2="75.3" y2="85.7"/>
<line fill="none" stroke="#526C7D" stroke-width="2" stroke-linecap="round" stroke-linejoin="round" stroke-miterlimit="10" x1="84.7" y1="54.4" x2="84.7" y2="85.7"/>
<path fill="#FED277" stroke="#526C7D" stroke-width="2" stroke-miterlimit="10" d="M86.8,52.1c0,1-0.7,1.8-1.5,1.8H74.6
	c-0.9,0-1.5-0.8-1.5-1.8v-0.3c0-1,0.7-1.8,1.5-1.8h10.6c0.9,0,1.5,0.8,1.5,1.8V52.1z"/>
<path fill="#FED277" stroke="#526C7D" stroke-width="2" stroke-miterlimit="10" d="M86.8,87.8c0,1-0.7,1.8-1.5,1.8H74.6
	c-0.9,0-1.5-0.8-1.5-1.8v-0.3c0-1,0.7-1.8,1.5-1.8h10.6c0.9,0,1.5,0.8,1.5,1.8V87.8z"/>
<line fill="none" stroke="#526C7D" stroke-width="2" stroke-linecap="round" stroke-linejoin="round" stroke-miterlimit="10" x1="100.6" y1="54.4" x2="100.6" y2="85.7"/>
<line fill="none" stroke="#526C7D" stroke-width="2" stroke-linecap="round" stroke-linejoin="round" stroke-miterlimit="10" x1="109.9" y1="54.4" x2="109.9" y2="85.7"/>
<path fill="#FED277" stroke="#526C7D" stroke-width="2" stroke-miterlimit="10" d="M112,52.1c0,1-0.7,1.8-1.5,1.8H99.9
	c-0.9,0-1.5-0.8-1.5-1.8v-0.3c0-1,0.7-1.8,1.5-1.8h10.6c0.9,0,1.5,0.8,1.5,1.8V52.1z"/>
<path fill="#FED277" stroke="#526C7D" stroke-width="2" stroke-miterlimit="10" d="M112,87.8c0,1-0.7,1.8-1.5,1.8H99.9
	c-0.9,0-1.5-0.8-1.5-1.8v-0.3c0-1,0.7-1.8,1.5-1.8h10.6c0.9,0,1.5,0.8,1.5,1.8V87.8z"/>
<line fill="none" stroke="#526C7D" stroke-width="2" stroke-linecap="round" stroke-linejoin="round" stroke-miterlimit="10" x1="41.4" y1="45" x2="79.9" y2="31.9"/>
<line fill="none" stroke="#526C7D" stroke-width="2" stroke-linecap="round" stroke-linejoin="round" stroke-miterlimit="10" x1="79.9" y1="31.9" x2="118" y2="45"/>
<circle fill="#FED277" stroke="#526C7D" stroke-width="2" stroke-miterlimit="10" cx="79.7" cy="39.2" r="3.2"/>
<line fill="none" stroke="#526C7D" stroke-width="2" stroke-linecap="round" stroke-linejoin="round" stroke-miterlimit="10" x1="51.6" y1="64.1" x2="51.6" y2="65.2"/>
</svg>
