<?xml version="1.0" encoding="utf-8"?>
<!-- Generator: Adobe Illustrator 17.1.0, SVG Export Plug-In . SVG Version: 6.00 Build 0)  -->
<!DOCTYPE svg PUBLIC "-//W3C//DTD SVG 1.1//EN" "http://www.w3.org/Graphics/SVG/1.1/DTD/svg11.dtd">
<svg version="1.1" id="Слой_1" xmlns="http://www.w3.org/2000/svg" xmlns:xlink="http://www.w3.org/1999/xlink" x="0px" y="0px"
	 width="166.7px" height="117px" viewBox="0 0 166.7 117" enable-background="new 0 0 166.7 117" xml:space="preserve">
<path fill="#F3FAFE" d="M139.5,20.9H31.1c-7.8,0-7.8,17.8,0,17.8h15.8c8.2,0,8.2,19.2,0,19.2H5.6c-7.5,0-7.5,18.3,0,18.3h30.7
	c9.8,0,9.8,18.9,0,18.9H25.8c-7.2,0-7.2,18.6,0,18.6h128.4c7.7,0,7.7-17.5,0-17.5h-38.7c-8.6,0-8.6-19.2,0-19.2h25.3
	c7.8,0,7.8-18.6,0-18.6h-15.5c-6.4,0-6.4-18.8,0-18.8c0,0,14.2,0,14.3,0C149.2,39.4,149.2,20.9,139.5,20.9z"/>
<circle fill="#DBEDFA" cx="40.8" cy="18.6" r="2.7"/>
<circle fill="#DBEDFA" cx="15.3" cy="75.8" r="2.7"/>
<circle fill="#DBEDFA" cx="57.2" cy="30.2" r="1.5"/>
<circle fill="#DBEDFA" cx="19.4" cy="56.5" r="1.5"/>
<circle fill="#DBEDFA" cx="130.3" cy="56.5" r="1.5"/>
<circle fill="#DBEDFA" cx="127.3" cy="77.3" r="1.5"/>
<circle fill="#DBEDFA" cx="101.4" cy="19.4" r="3.8"/>
<circle fill="#DBEDFA" cx="75.8" cy="7.6" r="2.8"/>
<circle fill="#DBEDFA" cx="143" cy="64.7" r="2.8"/>
<circle fill="#DBEDFA" cx="138.8" cy="26.1" r="4.1"/>
<circle fill="#DBEDFA" cx="36.4" cy="61.9" r="1.8"/>
<circle fill="#DBEDFA" cx="33.6" cy="40.8" r="2.8"/>
<path fill="#99CCEE" d="M113.4,70.6c-0.5-1.1-1.3-2-2.5-2.9c-1.1-0.8-2.4-0.8-3.6-0.5c-2.3-1.1-4.8-1.7-7.1-1.9
	c-8.6-0.8-17.4-0.5-26.1-0.7c-2.3,0-6.4,0-8.7,1.4c-2.7-2.1-6.1-3.7-7.2,0.4c-0.5,1.7-0.1,3.1,0.8,4.3c0,0.1,0,0.2,0,0.3
	c-0.2,0.5-0.2,1,0,1.5c0,5.4-0.1,10.7-0.1,16.1c0,3.2-0.5,8.6,4.1,8.3c1.4-0.1,2.5-1.1,2.5-2.5c0-4.3,0.1-8.6,0.1-13
	c0-2.4,13.5-1.3,15.4-1.3c9.7,0,19.3,0,29,0.1c0.3,4.8,0.3,9.6,0.4,14.4c0.1,3.2,4.9,3.2,5,0c0.2-7.2,0.4-14.5,0.6-21.7
	C116.1,71.4,114.8,70.6,113.4,70.6z"/>
<line fill="none" stroke="#526C7D" stroke-width="2" stroke-linecap="round" stroke-linejoin="round" stroke-miterlimit="10" x1="59.3" y1="97.1" x2="59.3" y2="77.6"/>
<line fill="none" stroke="#526C7D" stroke-width="2" stroke-linecap="round" stroke-linejoin="round" stroke-miterlimit="10" x1="116.1" y1="97.1" x2="116.1" y2="69.9"/>
<line fill="none" stroke="#526C7D" stroke-width="2" stroke-linecap="round" stroke-linejoin="round" stroke-miterlimit="10" x1="55.6" y1="97.1" x2="118.6" y2="97.1"/>
<line fill="none" stroke="#526C7D" stroke-width="2" stroke-linecap="round" stroke-linejoin="round" stroke-miterlimit="10" x1="45.5" y1="101.7" x2="60.1" y2="101.7"/>
<line fill="none" stroke="#526C7D" stroke-width="2" stroke-linecap="round" stroke-linejoin="round" stroke-miterlimit="10" x1="67.4" y1="101.7" x2="115.4" y2="101.7"/>
<line fill="none" stroke="#526C7D" stroke-width="2" stroke-linecap="round" stroke-linejoin="round" stroke-miterlimit="10" x1="120.3" y1="101.7" x2="127" y2="101.7"/>
<path fill="#99CCEE" d="M119.5,66.3c-1.1-2.9-2.3-5.8-3.4-8.7c0.1-1.3-0.7-2.6-2.4-2.6c-13.1,0-26.3,0-39.4-0.1
	c-3.3,0-7.1-0.5-10.6,0.1c-0.4-0.3-0.9-0.4-1.4-0.4c-1.4,0.1-2.8,0.5-3.5,1.8c-0.2,0.4-0.4,0.9-0.4,1.3c-2.1,2.4-2.5,6-2.7,8.9
	c-0.2,2.1,2.2,2.9,3.8,2.2c3.2-1.4,6.2-0.5,8.4,2c0.4,0.5,0.9,0.7,1.4,0.7c0.9,0.4,2,0.3,2.9-0.2c1-0.6,1.5-1.6,1.5-2.7
	c2.2-1.6,4.1-1,6,0.1c0.1,0.7,0.4,1.4,0.9,1.9c0.8,0.8,1.8,1.1,2.9,1.1c0.9,0.1,1.8-0.1,2.6-0.6c0.5-0.3,0.9-0.8,1.2-1.3
	c0.3-0.2,0.5-0.4,0.7-0.6c1.2-1,2.7-1.6,4.4-2c0.3,0.2,0.7,0.2,1.1,0.3c0.4,0.3,0.8,1.3,1.1,1.7c0.8,1.1,2.1,2.2,3.5,2.1
	c2.5,0,3.9-1.7,4.7-3.7c1.7,0,3.4-0.1,5.1-0.2c0.2,2,2.2,3.5,4,3.8c1.9,0.3,4-0.2,5-1.8c0,0,0.1,0,0.1,0
	C118.7,69.6,120.1,67.7,119.5,66.3z"/>
<line fill="none" stroke="#526C7D" stroke-width="2" stroke-linecap="round" stroke-linejoin="round" stroke-miterlimit="10" x1="60.1" y1="54.7" x2="115.4" y2="54.7"/>
<line fill="none" stroke="#526C7D" stroke-width="2" stroke-linecap="round" stroke-linejoin="round" stroke-miterlimit="10" x1="60.1" y1="54.7" x2="55.6" y2="64.9"/>
<path fill="none" stroke="#526C7D" stroke-width="2" stroke-linecap="round" stroke-linejoin="round" stroke-miterlimit="10" d="
	M55.6,64.9c-1.2,1.9,0,5,3.7,5.1"/>
<line fill="none" stroke="#526C7D" stroke-width="2" stroke-linecap="round" stroke-linejoin="round" stroke-miterlimit="10" x1="115.4" y1="54.7" x2="119.9" y2="64.9"/>
<path fill="none" stroke="#526C7D" stroke-width="2" stroke-linecap="round" stroke-linejoin="round" stroke-miterlimit="10" d="
	M119.9,64.9c1.2,1.9,0,5-3.7,5.1"/>
<path fill="none" stroke="#526C7D" stroke-width="2" stroke-linecap="round" stroke-linejoin="round" stroke-miterlimit="10" d="
	M59.3,69.9c0-3.2,7.1-3.2,7.1,0"/>
<path fill="none" stroke="#526C7D" stroke-width="2" stroke-linecap="round" stroke-linejoin="round" stroke-miterlimit="10" d="
	M66.4,69.9c0,2.7,7.1,2.7,7.1,0"/>
<path fill="none" stroke="#526C7D" stroke-width="2" stroke-linecap="round" stroke-linejoin="round" stroke-miterlimit="10" d="
	M73.5,69.9c0-3.2,7.1-3.2,7.1,0"/>
<path fill="none" stroke="#526C7D" stroke-width="2" stroke-linecap="round" stroke-linejoin="round" stroke-miterlimit="10" d="
	M80.6,69.9c0,2.7,7.1,2.7,7.1,0"/>
<path fill="none" stroke="#526C7D" stroke-width="2" stroke-linecap="round" stroke-linejoin="round" stroke-miterlimit="10" d="
	M87.7,69.9c0-3.2,7.1-3.2,7.1,0"/>
<path fill="none" stroke="#526C7D" stroke-width="2" stroke-linecap="round" stroke-linejoin="round" stroke-miterlimit="10" d="
	M94.8,69.9c0,2.7,7.1,2.7,7.1,0"/>
<path fill="none" stroke="#526C7D" stroke-width="2" stroke-linecap="round" stroke-linejoin="round" stroke-miterlimit="10" d="
	M101.9,69.9c0-3.2,7.1-3.2,7.1,0"/>
<path fill="none" stroke="#526C7D" stroke-width="2" stroke-linecap="round" stroke-linejoin="round" stroke-miterlimit="10" d="
	M109,69.9c0,2.7,7.1,2.7,7.1,0"/>
<line fill="none" stroke="#526C7D" stroke-width="2" stroke-linecap="round" stroke-linejoin="round" stroke-miterlimit="10" x1="82" y1="54.7" x2="82" y2="50.4"/>
<line fill="none" stroke="#526C7D" stroke-width="2" stroke-linecap="round" stroke-linejoin="round" stroke-miterlimit="10" x1="92.9" y1="54.7" x2="92.9" y2="50.4"/>
<path fill="#FED277" stroke="#526C7D" stroke-width="2" stroke-miterlimit="10" d="M98,50.4H77.5c-2.7,0-4.8-2.2-4.8-4.8v-5.4
	c0-2.7,2.2-4.8,4.8-4.8H98c2.7,0,4.8,2.2,4.8,4.8v5.4C102.8,48.2,100.6,50.4,98,50.4z"/>
<g>
	<text transform="matrix(1 0 0 1 77.6556 45.6952)" fill="#FFFFFF" font-family="'BloggerSans-Bold'" font-size="8.6761">shop</text>
</g>
<line fill="none" stroke="#526C7D" stroke-width="2" stroke-linecap="round" stroke-linejoin="round" stroke-miterlimit="10" x1="65.4" y1="97.1" x2="65.4" y2="79.9"/>
<line fill="none" stroke="#526C7D" stroke-width="2" stroke-linecap="round" stroke-linejoin="round" stroke-miterlimit="10" x1="65.4" y1="79.9" x2="98.3" y2="79.9"/>
<line fill="none" stroke="#526C7D" stroke-width="2" stroke-linecap="round" stroke-linejoin="round" stroke-miterlimit="10" x1="110.2" y1="79.9" x2="110.2" y2="97.1"/>
<line fill="none" stroke="#526C7D" stroke-width="2" stroke-linecap="round" stroke-linejoin="round" stroke-miterlimit="10" x1="79.6" y1="79.9" x2="79.6" y2="97.1"/>
<line fill="none" stroke="#526C7D" stroke-width="2" stroke-linecap="round" stroke-linejoin="round" stroke-miterlimit="10" x1="79.6" y1="91.5" x2="110.2" y2="91.5"/>
<line fill="none" stroke="#526C7D" stroke-width="2" stroke-linecap="round" stroke-linejoin="round" stroke-miterlimit="10" x1="59.3" y1="69.9" x2="59.3" y2="73.2"/>
<line fill="none" stroke="#526C7D" stroke-width="2" stroke-linecap="round" stroke-linejoin="round" stroke-miterlimit="10" x1="110.2" y1="79.9" x2="106.2" y2="79.9"/>
<line fill="none" stroke="#ABD7F3" stroke-width="2" stroke-linecap="round" stroke-linejoin="round" stroke-miterlimit="10" x1="65.9" y1="35.3" x2="61.4" y2="32.6"/>
<line fill="none" stroke="#ABD7F3" stroke-width="2" stroke-linecap="round" stroke-linejoin="round" stroke-miterlimit="10" x1="72.9" y1="29.9" x2="70.4" y2="24.4"/>
<line fill="none" stroke="#ABD7F3" stroke-width="2" stroke-linecap="round" stroke-linejoin="round" stroke-miterlimit="10" x1="82.2" y1="28.5" x2="82.3" y2="21.8"/>
<line fill="none" stroke="#526C7D" stroke-width="2" stroke-linecap="round" stroke-linejoin="round" stroke-miterlimit="10" x1="62.8" y1="58" x2="69.9" y2="58"/>
<line fill="none" stroke="#526C7D" stroke-width="2" stroke-linecap="round" stroke-linejoin="round" stroke-miterlimit="10" x1="73.5" y1="58" x2="78.2" y2="58"/>
</svg>
