<?xml version="1.0" encoding="utf-8"?>
<!-- Generator: Adobe Illustrator 17.1.0, SVG Export Plug-In . SVG Version: 6.00 Build 0)  -->
<!DOCTYPE svg PUBLIC "-//W3C//DTD SVG 1.1//EN" "http://www.w3.org/Graphics/SVG/1.1/DTD/svg11.dtd">
<svg version="1.1" id="Слой_1" xmlns="http://www.w3.org/2000/svg" xmlns:xlink="http://www.w3.org/1999/xlink" x="0px" y="0px"
	 width="166.7px" height="117px" viewBox="0 0 166.7 117" enable-background="new 0 0 166.7 117" xml:space="preserve">
<path fill="#F3FAFE" d="M142.8,24.1H34.5c-7.8,0-7.8,17.8,0,17.8h15.8c8.2,0,8.2,19.2,0,19.2H9c-7.5,0-7.5,18.3,0,18.3h30.7
	c9.8,0,9.8,18.9,0,18.9H29.1c-7.2,0-7.2,18.6,0,18.6h128.4c7.7,0,7.7-17.5,0-17.5h-38.7c-8.6,0-8.6-19.2,0-19.2h25.3
	c7.8,0,7.8-18.6,0-18.6h-15.5c-6.4,0-6.4-18.8,0-18.8c0,0,14.2,0,14.3,0C152.6,42.7,152.6,24.1,142.8,24.1z"/>
<path fill="#99CCEE" stroke="#526C7D" stroke-width="2" stroke-linecap="round" stroke-linejoin="round" stroke-miterlimit="10" d="
	M56.7,67.7v-3.1c0-6.2,5.1-11.3,11.3-11.3h46.1c6.2,0,11.3,5.1,11.3,11.3v27.1c0,6.2-5.1,11.3-11.3,11.3H68
	c-6.2,0-11.3-5.1-11.3-11.3V80.9"/>
<line fill="none" stroke="#FFFFFF" stroke-width="7" stroke-linecap="round" stroke-linejoin="round" stroke-miterlimit="10" x1="78.9" y1="79" x2="103.2" y2="79"/>
<line fill="none" stroke="#FFFFFF" stroke-width="7" stroke-linecap="round" stroke-linejoin="round" stroke-miterlimit="10" x1="91" y1="91.2" x2="91" y2="66.9"/>
<path fill="#FED277" stroke="#526C7D" stroke-width="2" stroke-miterlimit="10" d="M101.8,34.8H80.4c-3.1,0-5.7,2.6-5.7,5.7
	l-0.1,12.8c0,0,32.7-0.2,32.8-0.2s0.1-12.6,0.1-12.6C107.5,37.3,104.9,34.8,101.8,34.8z"/>
<path fill="#F3FAFE" stroke="#526C7D" stroke-width="2" stroke-miterlimit="10" d="M97.4,41H84.3c-1.9,0-3.5,1.7-3.5,3.8l-0.1,8.5
	c0,0,20.1-0.1,20.1-0.1c0,0,0.1-8.3,0.1-8.3C100.9,42.7,99.3,41,97.4,41z"/>
<line fill="none" stroke="#526C7D" stroke-width="2" stroke-linecap="round" stroke-linejoin="round" stroke-miterlimit="10" x1="56.7" y1="71.6" x2="56.7" y2="75.6"/>
<circle fill="#DBEDFA" cx="54" cy="13.5" r="2.7"/>
<circle fill="#DBEDFA" cx="66.6" cy="23.3" r="1.5"/>
<circle fill="#DBEDFA" cx="104.8" cy="22.6" r="3.8"/>
<circle fill="#DBEDFA" cx="88.9" cy="5.8" r="2.8"/>
<circle fill="#DBEDFA" cx="142.2" cy="29.3" r="4.1"/>
<circle fill="#DBEDFA" cx="132.6" cy="55.6" r="1.5"/>
<circle fill="#DBEDFA" cx="147.8" cy="70" r="1.4"/>
<circle fill="#DBEDFA" cx="39.8" cy="65.1" r="1.8"/>
<circle fill="#DBEDFA" cx="37" cy="44" r="2.8"/>
<path fill="none" stroke="#526C7D" stroke-width="2" stroke-linecap="round" stroke-linejoin="round" stroke-miterlimit="10" d="
	M120.4,90.4c0,5.3-4.7,8.5-9.3,8.5"/>
</svg>
