<?xml version="1.0" encoding="utf-8"?>
<!-- Generator: Adobe Illustrator 17.1.0, SVG Export Plug-In . SVG Version: 6.00 Build 0)  -->
<!DOCTYPE svg PUBLIC "-//W3C//DTD SVG 1.1//EN" "http://www.w3.org/Graphics/SVG/1.1/DTD/svg11.dtd">
<svg version="1.1" id="Слой_1" xmlns="http://www.w3.org/2000/svg" xmlns:xlink="http://www.w3.org/1999/xlink" x="0px" y="0px"
	 width="166.7px" height="117px" viewBox="0 0 166.7 117" enable-background="new 0 0 166.7 117" xml:space="preserve">
<path fill="#F3FAFE" d="M142.8,20.2H34.5c-7.8,0-7.8,17.8,0,17.8h15.8c8.2,0,8.2,19.2,0,19.2H9c-7.5,0-7.5,18.3,0,18.3h30.7
	c9.8,0,9.8,18.9,0,18.9H29.1c-7.2,0-7.2,18.6,0,18.6h128.4c7.7,0,7.7-17.5,0-17.5h-38.7c-8.6,0-8.6-19.2,0-19.2h25.3
	c7.8,0,7.8-18.6,0-18.6h-15.5c-6.4,0-6.4-18.8,0-18.8c0,0,14.2,0,14.3,0C152.6,38.7,152.6,20.1,142.8,20.2z"/>
<circle fill="#DBEDFA" cx="44.2" cy="17.9" r="2.7"/>
<circle fill="#DBEDFA" cx="60.6" cy="29.5" r="1.5"/>
<circle fill="#DBEDFA" cx="133.6" cy="55.8" r="1.5"/>
<circle fill="#DBEDFA" cx="130.7" cy="76.5" r="1.5"/>
<circle fill="#DBEDFA" cx="104.8" cy="18.6" r="3.8"/>
<circle fill="#DBEDFA" cx="79.2" cy="6.9" r="2.8"/>
<circle fill="#DBEDFA" cx="146.4" cy="64" r="2.8"/>
<circle fill="#DBEDFA" cx="142.2" cy="25.3" r="4.1"/>
<circle fill="#DBEDFA" cx="39.8" cy="61.2" r="1.8"/>
<circle fill="#DBEDFA" cx="37" cy="40" r="2.8"/>
<path fill="#99CCEE" stroke="#526C7D" stroke-width="2" stroke-linecap="round" stroke-linejoin="round" stroke-miterlimit="10" d="
	M60.6,51.1V47c0-4.4,3.5-7.9,7.9-7.9h37.7c4.4,0,7.9,3.5,7.9,7.9v46.4c0,4.4-3.5,7.9-7.9,7.9H68.5c-4.4,0-7.9-3.5-7.9-7.9V66.1"/>
<text transform="matrix(1 0 0 1 79.1586 63.9554)" fill="#FED378" font-family="'BloggerSans-Bold'" font-size="14.3522" letter-spacing="2">ABC</text>
<line fill="none" stroke="#526C7D" stroke-width="2" stroke-linecap="round" stroke-linejoin="round" stroke-miterlimit="10" x1="70.8" y1="44.4" x2="70.8" y2="96.7"/>
<line fill="none" stroke="#526C7D" stroke-width="2" stroke-linecap="round" stroke-linejoin="round" stroke-miterlimit="10" x1="79.2" y1="69.9" x2="105.5" y2="69.9"/>
<line fill="none" stroke="#526C7D" stroke-width="2" stroke-linecap="round" stroke-linejoin="round" stroke-miterlimit="10" x1="79.2" y1="76.5" x2="87.5" y2="76.5"/>
<line fill="none" stroke="#526C7D" stroke-width="2" stroke-linecap="round" stroke-linejoin="round" stroke-miterlimit="10" x1="91.7" y1="76.5" x2="96.6" y2="76.5"/>
<line fill="none" stroke="#526C7D" stroke-width="2" stroke-linecap="round" stroke-linejoin="round" stroke-miterlimit="10" x1="60.6" y1="55.8" x2="60.6" y2="61.1"/>
<path fill="none" stroke="#526C7D" stroke-width="2" stroke-linecap="round" stroke-linejoin="round" stroke-miterlimit="10" d="
	M109.4,91.2c0,3.6-3.2,5.9-6.5,5.9"/>
</svg>
