<?xml version="1.0" encoding="utf-8"?>
<!-- Generator: Adobe Illustrator 17.1.0, SVG Export Plug-In . SVG Version: 6.00 Build 0)  -->
<!DOCTYPE svg PUBLIC "-//W3C//DTD SVG 1.1//EN" "http://www.w3.org/Graphics/SVG/1.1/DTD/svg11.dtd">
<svg version="1.1" id="Слой_1" xmlns="http://www.w3.org/2000/svg" xmlns:xlink="http://www.w3.org/1999/xlink" x="0px" y="0px"
	 width="166.7px" height="117px" viewBox="0 0 166.7 117" enable-background="new 0 0 166.7 117" xml:space="preserve">
<path fill="#F3FAFE" d="M139.5,18.8H31.1c-7.8,0-7.8,17.8,0,17.8h15.8c8.2,0,8.2,19.2,0,19.2H5.6c-7.5,0-7.5,18.3,0,18.3h30.7
	c9.8,0,9.8,18.9,0,18.9H25.8c-7.2,0-7.2,18.6,0,18.6h128.4c7.7,0,7.7-17.5,0-17.5h-38.7c-8.6,0-8.6-19.2,0-19.2h25.3
	c7.8,0,7.8-18.6,0-18.6h-15.5c-6.4,0-6.4-18.8,0-18.8c0,0,14.2,0,14.3,0C149.2,37.3,149.2,18.8,139.5,18.8z"/>
<circle fill="#DBEDFA" cx="40.8" cy="16.5" r="2.7"/>
<circle fill="#DBEDFA" cx="15.3" cy="73.7" r="2.7"/>
<circle fill="#DBEDFA" cx="57.2" cy="28.1" r="1.5"/>
<circle fill="#DBEDFA" cx="19.4" cy="54.4" r="1.5"/>
<circle fill="#DBEDFA" cx="130.3" cy="54.4" r="1.5"/>
<circle fill="#DBEDFA" cx="127.3" cy="75.1" r="1.5"/>
<circle fill="#DBEDFA" cx="101.4" cy="17.3" r="3.8"/>
<circle fill="#DBEDFA" cx="75.8" cy="5.5" r="2.8"/>
<circle fill="#DBEDFA" cx="143" cy="62.6" r="2.8"/>
<circle fill="#DBEDFA" cx="138.8" cy="24" r="4.1"/>
<circle fill="#DBEDFA" cx="36.4" cy="59.8" r="1.8"/>
<circle fill="#DBEDFA" cx="33.6" cy="38.7" r="2.8"/>
<line fill="none" stroke="#ABD7F3" stroke-width="2" stroke-linecap="round" stroke-linejoin="round" stroke-miterlimit="10" x1="79.9" y1="39.9" x2="75.3" y2="37.2"/>
<line fill="none" stroke="#ABD7F3" stroke-width="2" stroke-linecap="round" stroke-linejoin="round" stroke-miterlimit="10" x1="86.9" y1="34.5" x2="84.3" y2="29"/>
<line fill="none" stroke="#ABD7F3" stroke-width="2" stroke-linecap="round" stroke-linejoin="round" stroke-miterlimit="10" x1="96.2" y1="33.1" x2="96.2" y2="26.4"/>
<path fill="#99CCEE" d="M107.2,53.6c-0.5-1.8-1.2-3.8-2.6-5.2c-1.4-1.5-5.9-3.6-5.4-5.9c0.4-2.1-1.7-3.9-3.7-2.8
	c-7,3.9-19.1,15.3-16.6,24.8c-4.4,0.1-8.8,0.1-13.2,0.2c-0.1,0-0.2,0-0.3,0c-0.4-0.5-0.9-0.9-1.4-1.1c-0.6-0.2-1.3-0.1-1.9,0.3
	c-0.6,0.4-0.9,0.9-1.1,1.5c-0.2,0.4-0.3,0.8-0.5,1.2c-0.3,0.7-0.1,1.5,0.4,2.1c-2.1,6.2-4.2,12.3-6.2,18.5c0,0.1-0.1,0.1-0.1,0.2
	c-0.6,1-1.2,1.9-1.7,2.9c-1,1.8,0.4,3.4,1.9,3.7c1.1,1.3,2.9,1.8,4.6,0.1c1.5-1.5,1.4-4.1,2.4-5.8c2.2-4,7.6-5.3,11.6-6.2
	c8.8-1.9,18.8,2.1,21.5,11.2c0.9,3.1,5.5,1.8,4.8-1.3c-2.6-11.5-5.3-23-6.7-34.7c0-0.1,0-0.3-0.1-0.4c0.1-0.1,0.3-0.2,0.4-0.3
	c1.7-0.2,3.5-0.5,5.2-0.7c0,0.2,0.1,0.4,0.1,0.6c0.4,2.4,3.9,4.5,6.1,3.2C106.8,58.7,107.9,56.2,107.2,53.6z"/>
<path fill="none" stroke="#526C7D" stroke-width="2" stroke-linecap="round" stroke-linejoin="round" stroke-miterlimit="10" d="
	M44.9,85.5c14.2,19.3,50,19.5,64.2,0"/>
<line fill="none" stroke="#526C7D" stroke-width="2" stroke-linecap="round" stroke-linejoin="round" stroke-miterlimit="10" x1="52.4" y1="92.8" x2="61.4" y2="64.4"/>
<line fill="none" stroke="#526C7D" stroke-width="2" stroke-linecap="round" stroke-linejoin="round" stroke-miterlimit="10" x1="61.4" y1="64.4" x2="78.3" y2="64.4"/>
<path fill="#FED378" d="M59.3,62l-7.8-3.9C51.3,58.1,51.2,58,51,58c-0.7-1.1-2.3-1.7-3.4-0.9c-0.7,0.5-1.4,1.2-1.5,2.2
	c-0.1,0.8-0.1,1.5,0.3,2.2c0.1,1.4,1,2.7,2.4,3.3c1.3,0.6,2.8,0.7,4.1,1c1.5,0.3,3,0.6,4.5,0.8C60,67.1,62,63.4,59.3,62z"/>
<path fill="none" stroke="#526C7D" stroke-width="2" stroke-linecap="round" stroke-linejoin="round" stroke-miterlimit="10" d="
	M78.3,64.4c0.7-9.9,5.8-17.9,14.9-24.2"/>
<line fill="none" stroke="#526C7D" stroke-width="2" stroke-linecap="round" stroke-linejoin="round" stroke-miterlimit="10" x1="93.2" y1="40.2" x2="97.2" y2="38.4"/>
<line fill="none" stroke="#526C7D" stroke-width="2" stroke-linecap="round" stroke-linejoin="round" stroke-miterlimit="10" x1="97.2" y1="38.4" x2="98.9" y2="44"/>
<path fill="none" stroke="#526C7D" stroke-width="2" stroke-linecap="round" stroke-linejoin="round" stroke-miterlimit="10" d="
	M98.9,44c3.1,1.3,5.7,3.1,7.6,5.8"/>
<path fill="none" stroke="#526C7D" stroke-width="2" stroke-linecap="round" stroke-linejoin="round" stroke-miterlimit="10" d="
	M106.5,49.8c0.9,3,1,5.8,0,8.3"/>
<path fill="none" stroke="#526C7D" stroke-width="2" stroke-linecap="round" stroke-linejoin="round" stroke-miterlimit="10" d="
	M106.5,58.1c0,2.2-6.6,2.2-6.6,0"/>
<path fill="none" stroke="#526C7D" stroke-width="2" stroke-linecap="round" stroke-linejoin="round" stroke-miterlimit="10" d="
	M99.8,58.1c0-1.7-6.6-1.7-6.6,0"/>
<path fill="none" stroke="#526C7D" stroke-width="2" stroke-linecap="round" stroke-linejoin="round" stroke-miterlimit="10" d="
	M95.5,73.4c1.4,7.9,3.1,14.7,5.5,19.4"/>
<path fill="none" stroke="#526C7D" stroke-width="2" stroke-linecap="round" stroke-linejoin="round" stroke-miterlimit="10" d="
	M93.2,58.1c0.2,1.8,0.5,3.6,0.7,5.3"/>
<path fill="none" stroke="#526C7D" stroke-width="2" stroke-linecap="round" stroke-linejoin="round" stroke-miterlimit="10" d="
	M59.1,96.5c0-19.9,36.1-19.9,36.1,0"/>
<path fill="none" stroke="#526C7D" stroke-width="2" stroke-linecap="round" stroke-linejoin="round" stroke-miterlimit="10" d="
	M61.4,64.4c-4.3-4-8.9-6.4-13.6-7.6"/>
<path fill="none" stroke="#526C7D" stroke-width="2" stroke-linecap="round" stroke-linejoin="round" stroke-miterlimit="10" d="
	M47.8,56.8c-1.7,2.7-2,5.5,0,8.6"/>
<line fill="none" stroke="#526C7D" stroke-width="2" stroke-linecap="round" stroke-linejoin="round" stroke-miterlimit="10" x1="47.8" y1="65.4" x2="60.5" y2="67.1"/>
<line fill="none" stroke="#526C7D" stroke-width="2" stroke-linecap="round" stroke-linejoin="round" stroke-miterlimit="10" x1="94.6" y1="67.1" x2="94.8" y2="69"/>
<path fill="none" stroke="#526C7D" stroke-width="2" stroke-linecap="round" stroke-linejoin="round" stroke-miterlimit="10" d="
	M94.8,49.8c0-2.7,4.3-2.7,4.3,0"/>
<line fill="none" stroke="#526C7D" stroke-width="2" stroke-linecap="round" stroke-linejoin="round" stroke-miterlimit="10" x1="63.4" y1="69" x2="60.6" y2="78.6"/>
</svg>
