<?xml version="1.0" encoding="utf-8"?>
<!-- Generator: Adobe Illustrator 17.1.0, SVG Export Plug-In . SVG Version: 6.00 Build 0)  -->
<!DOCTYPE svg PUBLIC "-//W3C//DTD SVG 1.1//EN" "http://www.w3.org/Graphics/SVG/1.1/DTD/svg11.dtd">
<svg version="1.1" id="Слой_1" xmlns="http://www.w3.org/2000/svg" xmlns:xlink="http://www.w3.org/1999/xlink" x="0px" y="0px"
	 width="166.7px" height="117px" viewBox="0 0 166.7 117" enable-background="new 0 0 166.7 117" xml:space="preserve">
<path fill="#F3FAFE" d="M139.5,18.7H31.1c-7.8,0-7.8,17.8,0,17.8h15.8c8.2,0,8.2,19.2,0,19.2H5.6c-7.5,0-7.5,18.3,0,18.3h30.7
	c9.8,0,9.8,18.9,0,18.9H25.8c-7.2,0-7.2,18.6,0,18.6h128.4c7.7,0,7.7-17.5,0-17.5h-38.7c-8.6,0-8.6-19.2,0-19.2h25.3
	c7.8,0,7.8-18.6,0-18.6h-15.5c-6.4,0-6.4-18.8,0-18.8c0,0,14.2,0,14.3,0C149.2,37.2,149.2,18.7,139.5,18.7z"/>
<circle fill="#DBEDFA" cx="40.8" cy="16.4" r="2.7"/>
<circle fill="#DBEDFA" cx="15.3" cy="73.5" r="2.7"/>
<circle fill="#DBEDFA" cx="19.4" cy="54.3" r="1.5"/>
<circle fill="#DBEDFA" cx="61.9" cy="23.9" r="1.5"/>
<circle fill="#DBEDFA" cx="130.3" cy="54.3" r="1.5"/>
<circle fill="#DBEDFA" cx="127.3" cy="75" r="1.5"/>
<circle fill="#DBEDFA" cx="101.4" cy="17.2" r="3.8"/>
<circle fill="#DBEDFA" cx="75.8" cy="5.4" r="2.8"/>
<circle fill="#DBEDFA" cx="143" cy="62.5" r="2.8"/>
<circle fill="#DBEDFA" cx="138.8" cy="23.9" r="4.1"/>
<circle fill="#DBEDFA" cx="36.4" cy="59.7" r="1.8"/>
<circle fill="#DBEDFA" cx="33.6" cy="38.6" r="2.8"/>
<path fill="#99CCEE" d="M83.3,56.1c0.1-0.3,0.1-0.5,0.1-0.8c0.1-1.2,0.2-2.4,0.3-3.7c2.2-4.4,0.7-11.1,0.5-15.7
	c-0.1-1.9-4.9-1.5-5,0.5c-0.1,3.6-0.3,7.1-0.4,10.7c0,1.3-0.1,2.6-0.1,3.9c-0.2,0.7-0.5,1.1-0.9,0.9c-0.4-0.2-0.8-0.3-1.3-0.3
	c0-0.3,0-0.6,0-0.9c1.1-4.7,0-10.4-0.2-15.1c-0.1-1.9-5-1.5-5,0.5c0,4.3,0.1,8.6,0.1,13c-0.4,1.4-1,2.3-2.1,2.5c0-0.8,0-1.7-0.1-2.4
	c-0.2-4.5-0.4-8.9-0.6-13.4c-0.1-1.9-5.1-1.5-5,0.5c0.3,5.6,0.5,11.2,0.8,16.8c0.1,2.3,0.7,4.3,1.8,6c-0.2,0.2-0.3,0.5-0.2,0.7
	c0.5,1.9,2,2.9,3.7,3.4c0.3,0.2,0.7,0.3,1,0.3c0,1.6,0.1,3.3,0.1,4.9c-1.7,6.1-2.5,12.2-2.5,18.6c0,4-0.5,14.6,4.7,15.7
	c4.1,0.9,4.8-2.5,4.8-5.6c0.4-0.3,0.7-0.6,0.7-1.1c0.7-9.4,0.1-18.7-1.5-28c-0.1-0.4-0.4-0.7-0.7-0.9l0.4-1.7c0.1-0.3,0-0.6-0.1-0.8
	c1.2-1.1,2.4-2.3,3.6-3.4c1.3-0.9,2.5-2,3.5-3.4C84.5,56.8,84.1,56.3,83.3,56.1z"/>
<path fill="none" stroke="#526C7D" stroke-width="2" stroke-linecap="round" stroke-linejoin="round" stroke-miterlimit="10" d="
	M64.5,34.9c-0.2,8.7-0.3,17.2,0,21.8"/>
<path fill="#FED378" d="M101.6,43.9c-0.3-3-1.4-5.6-4-7.5c-0.2-0.2-0.7-0.3-1.2-0.3c0-0.1,0-0.1,0-0.2c-0.5-2-5.5-1.3-5,0.5
	c0.2,0.8,0.4,1.7,0.6,2.5c0,0.1-0.1,0.2-0.1,0.2c-0.5,6.1-1,12.1-1.5,18.2c-1.8,4.4-3.3,9.9-1,12.3c-0.1,1.1-0.2,2.1-0.3,3.2
	c-0.7,9.3-3.5,20.6,1.8,28.9c0.8,1.3,3.8,1.1,4.6-0.1c2.8-4.2,2.4-9.5,2.1-14.3c-0.2-4.8-3.2-11.8-2-16.9c2.6-1.3,4.4-4.3,5-7.3
	c1.7-2.3,3-4.8,3.1-8.2C104,51.1,103,47.4,101.6,43.9z"/>
<path fill="none" stroke="#526C7D" stroke-width="2" stroke-linecap="round" stroke-linejoin="round" stroke-miterlimit="10" d="
	M64.5,56.7c1,3.4,3.3,5.7,6.4,7.4"/>
<path fill="none" stroke="#526C7D" stroke-width="2" stroke-linecap="round" stroke-linejoin="round" stroke-miterlimit="10" d="
	M68.1,55.8c0.6,2.1,2.1,3.5,4,4.6"/>
<path fill="none" stroke="#526C7D" stroke-width="2" stroke-linecap="round" stroke-linejoin="round" stroke-miterlimit="10" d="
	M70.9,64.1c0.5,0.4,0.7,0.9,0.6,1.6"/>
<path fill="none" stroke="#526C7D" stroke-width="2" stroke-linecap="round" stroke-linejoin="round" stroke-miterlimit="10" d="
	M69.3,86.7c-0.1,3.7-0.1,7.3,0.2,11"/>
<path fill="none" stroke="#526C7D" stroke-width="2" stroke-linecap="round" stroke-linejoin="round" stroke-miterlimit="10" d="
	M69.8,79.2c-0.1,1.1-0.2,2.3-0.3,3.4"/>
<path fill="none" stroke="#526C7D" stroke-width="2" stroke-linecap="round" stroke-linejoin="round" stroke-miterlimit="10" d="
	M71.5,65.7c-0.3,1.8-0.5,3.6-0.8,5.5"/>
<path fill="none" stroke="#526C7D" stroke-width="2" stroke-linecap="round" stroke-linejoin="round" stroke-miterlimit="10" d="
	M69.5,97.6c1.4,6.8,7.4,7.8,9.5,0"/>
<path fill="none" stroke="#526C7D" stroke-width="2" stroke-linecap="round" stroke-linejoin="round" stroke-miterlimit="10" d="
	M88.2,97.6c1.4,6.8,7.4,7.8,9.5,0"/>
<line fill="none" stroke="#526C7D" stroke-width="2" stroke-linecap="round" stroke-linejoin="round" stroke-miterlimit="10" x1="64.5" y1="34.9" x2="68.6" y2="34.5"/>
<line fill="none" stroke="#526C7D" stroke-width="2" stroke-linecap="round" stroke-linejoin="round" stroke-miterlimit="10" x1="68.6" y1="34.5" x2="68.6" y2="50.3"/>
<path fill="none" stroke="#526C7D" stroke-width="2" stroke-linecap="round" stroke-linejoin="round" stroke-miterlimit="10" d="
	M68.6,50.3c0,1.8,3.5,1.8,3.5,0"/>
<line fill="none" stroke="#526C7D" stroke-width="2" stroke-linecap="round" stroke-linejoin="round" stroke-miterlimit="10" x1="72.1" y1="50.3" x2="72.1" y2="34.4"/>
<path fill="none" stroke="#526C7D" stroke-width="2" stroke-linecap="round" stroke-linejoin="round" stroke-miterlimit="10" d="
	M84,34.9c0.2,8.7,0.3,17.2,0,21.8"/>
<path fill="none" stroke="#526C7D" stroke-width="2" stroke-linecap="round" stroke-linejoin="round" stroke-miterlimit="10" d="
	M84,56.7c-1,3.4-3.3,5.7-6.4,7.4"/>
<path fill="none" stroke="#526C7D" stroke-width="2" stroke-linecap="round" stroke-linejoin="round" stroke-miterlimit="10" d="
	M77.6,64.1c-0.5,0.4-0.7,0.9-0.6,1.6"/>
<path fill="none" stroke="#526C7D" stroke-width="2" stroke-linecap="round" stroke-linejoin="round" stroke-miterlimit="10" d="
	M77.1,65.7c1.7,11.7,2.8,22.8,2,32"/>
<line fill="none" stroke="#526C7D" stroke-width="2" stroke-linecap="round" stroke-linejoin="round" stroke-miterlimit="10" x1="84" y1="34.9" x2="79.9" y2="34.5"/>
<line fill="none" stroke="#526C7D" stroke-width="2" stroke-linecap="round" stroke-linejoin="round" stroke-miterlimit="10" x1="79.9" y1="34.5" x2="79.9" y2="50.3"/>
<path fill="none" stroke="#526C7D" stroke-width="2" stroke-linecap="round" stroke-linejoin="round" stroke-miterlimit="10" d="
	M79.9,50.3c0,1.8-3.5,1.8-3.5,0"/>
<line fill="none" stroke="#526C7D" stroke-width="2" stroke-linecap="round" stroke-linejoin="round" stroke-miterlimit="10" x1="76.5" y1="50.3" x2="76.5" y2="34.4"/>
<line fill="none" stroke="#526C7D" stroke-width="2" stroke-linecap="round" stroke-linejoin="round" stroke-miterlimit="10" x1="72.1" y1="34.4" x2="76.5" y2="34.4"/>
<path fill="none" stroke="#526C7D" stroke-width="2" stroke-linecap="round" stroke-linejoin="round" stroke-miterlimit="10" d="
	M88.2,93.9c0,1.2,0,2.5,0,3.7"/>
<path fill="none" stroke="#526C7D" stroke-width="2" stroke-linecap="round" stroke-linejoin="round" stroke-miterlimit="10" d="
	M90.6,34.5c0.9,18.6-2.5,36.8-2.4,55.3"/>
<path fill="none" stroke="#526C7D" stroke-width="2" stroke-linecap="round" stroke-linejoin="round" stroke-miterlimit="10" d="
	M97.7,97.6c0.8-6.9,0.6-13.6-1.1-19.9"/>
<path fill="none" stroke="#526C7D" stroke-width="2" stroke-linecap="round" stroke-linejoin="round" stroke-miterlimit="10" d="
	M96.6,77.8c-1.2-2.8-1.3-5.6,0-8.3"/>
<path fill="none" stroke="#526C7D" stroke-width="2" stroke-linecap="round" stroke-linejoin="round" stroke-miterlimit="10" d="
	M96.6,69.5c3.4-2.7,5.8-6.4,6.8-11.5"/>
<path fill="none" stroke="#526C7D" stroke-width="2" stroke-linecap="round" stroke-linejoin="round" stroke-miterlimit="10" d="
	M103.4,57.9c0.6-13.7-2.1-23.3-12.8-23.4"/>
<line fill="none" stroke="#FFFFFF" stroke-width="2" stroke-linecap="round" stroke-linejoin="round" stroke-miterlimit="10" x1="93.7" y1="38.2" x2="93.7" y2="45.8"/>
<line fill="none" stroke="#FFFFFF" stroke-width="2" stroke-linecap="round" stroke-linejoin="round" stroke-miterlimit="10" x1="93.5" y1="48.6" x2="93.3" y2="52"/>
</svg>
