<?xml version="1.0" encoding="utf-8"?>
<!-- Generator: Adobe Illustrator 17.1.0, SVG Export Plug-In . SVG Version: 6.00 Build 0)  -->
<!DOCTYPE svg PUBLIC "-//W3C//DTD SVG 1.1//EN" "http://www.w3.org/Graphics/SVG/1.1/DTD/svg11.dtd">
<svg version="1.1" id="Слой_1" xmlns="http://www.w3.org/2000/svg" xmlns:xlink="http://www.w3.org/1999/xlink" x="0px" y="0px"
	 width="166.7px" height="117px" viewBox="0 0 166.7 117" enable-background="new 0 0 166.7 117" xml:space="preserve">
<path fill="#F3FAFE" d="M139.5,22.3H31.1c-7.8,0-7.8,17.8,0,17.8h15.8c8.2,0,8.2,19.2,0,19.2H5.6c-7.5,0-7.5,18.3,0,18.3h30.7
	c9.8,0,9.8,18.9,0,18.9H25.8c-7.2,0-7.2,18.6,0,18.6h128.4c7.7,0,7.7-17.5,0-17.5h-38.7c-8.6,0-8.6-19.2,0-19.2h25.3
	c7.8,0,7.8-18.6,0-18.6h-15.5c-6.4,0-6.4-18.8,0-18.8c0,0,14.2,0,14.3,0C149.2,40.9,149.2,22.3,139.5,22.3z"/>
<circle fill="#DBEDFA" cx="40.8" cy="20.1" r="2.7"/>
<circle fill="#DBEDFA" cx="30.9" cy="82.4" r="2.7"/>
<circle fill="#DBEDFA" cx="57.2" cy="31.6" r="1.5"/>
<circle fill="#DBEDFA" cx="19.4" cy="57.9" r="1.5"/>
<circle fill="#DBEDFA" cx="130.3" cy="57.9" r="1.5"/>
<circle fill="#DBEDFA" cx="127.3" cy="78.7" r="1.5"/>
<circle fill="#DBEDFA" cx="101.4" cy="20.8" r="3.8"/>
<circle fill="#DBEDFA" cx="75.8" cy="9" r="2.8"/>
<circle fill="#DBEDFA" cx="143" cy="66.1" r="2.8"/>
<circle fill="#DBEDFA" cx="138.8" cy="27.5" r="4.1"/>
<circle fill="#DBEDFA" cx="36.4" cy="63.3" r="1.8"/>
<circle fill="#DBEDFA" cx="33.6" cy="42.2" r="2.8"/>
<circle fill="#99CCEE" cx="83.1" cy="65.9" r="31.5"/>
<path fill="#FED378" d="M89.9,60.2c-1-2.1-3.3-3.6-5.6-3.5c-0.6-1.1-2-1.9-3.5-1.2c-2.6,1.2-5.4,2.8-6.7,5.4c0,0,0,0-0.1,0
	c-1.3,0.3-2.2,1.8-1.7,3.1c0,0.1,0.1,0.3,0.1,0.4c0.2,0.5,0.5,1,0.9,1.3c0.2,3.2,1.4,7.5,4.3,8.2c3.2,0.8,8.4,0.9,11.1-1.3
	c1.3-1,1.3-3.3,1.4-4.8C90.4,65.2,91,62.4,89.9,60.2z"/>
<path fill="#FED378" d="M61.8,52.5c0-0.9-0.6-1.7-1.3-2.1c0.1-0.3,0.2-0.5,0.3-0.8c1-3.1-3.8-4.4-4.8-1.3c-0.8,2.3-1.6,4.6-2.3,6.9
	c-0.2,0.3-0.5,0.6-0.7,0.8c-2.1,2.4,1.4,6,3.5,3.5c0.2-0.3,0.5-0.6,0.7-0.8C59.9,57.8,61.9,55.5,61.8,52.5z"/>
<path fill="#FED378" d="M88,34.4c-0.4,0-0.8,0-1.2,0c-1.9,0.1-3.7,0.1-5.6,0.2c-0.6,0-1.1,0.2-1.5,0.5c-0.3-0.3-0.5-0.5-0.7-0.7
	c-2.3-2.3-5.8,1.3-3.5,3.5c1.7,1.6,3.5,3.3,5.9,3.7c1.1,0.2,2.2,0,3.2-0.5c1.1-0.6,2.2-1.9,3.4-1.8C91.3,39.3,91.2,34.6,88,34.4z"/>
<path fill="#FED378" d="M113.9,56.4l-5.1-9.6c-1.5-2.8-5.8-0.3-4.3,2.5c0.2,0.3,0.3,0.6,0.5,0.9c-0.3,0.3-0.6,0.6-0.8,1
	c-0.3,0.9-0.7,1.7-1,2.6c-0.6,1.4,0.9,3.4,2.4,3.2c0.8-0.1,1.5,0.6,2.1,1c0.9,0.6,1.9,1.2,2.8,1.8C112.7,61.2,115.1,58.5,113.9,56.4
	z"/>
<path fill="#FED378" d="M104.7,84c-2.6-0.2-5.2-0.5-7.8-0.7c-2-0.2-2.8,1.7-2.2,3.3c-0.2,0.2-0.4,0.5-0.5,0.8
	c-0.8,1.9-1.5,3.7-2.3,5.6c-1,2.3,2.6,4.3,4.2,2.4c2.5-3,5.6-5.2,9.3-6.4C108.1,88,107.5,84.2,104.7,84z"/>
<path fill="#FED378" d="M71.9,91.4c-0.1-0.2-0.2-0.4-0.3-0.6c0,0,0,0,0,0c0,0-0.1-0.1-0.1-0.1c-0.4-0.8-0.8-1.4-1.4-2
	c-0.4-0.5-0.8-1-1.2-1.4c0.6-1.8-1.4-4.2-3.7-3c-0.1,0.1-0.2,0.1-0.3,0.2c-1.2-0.5-2.4-0.9-3.7-1.3c-3.1-0.9-4.4,3.9-1.3,4.8
	c0.9,0.3,1.7,0.5,2.5,0.9c0.1,0.4,0.2,0.8,0.4,1.2c0.6,1,1.5,1.4,2.5,1.8c0.4,0.1,0.8,0.2,1.2,0.4c0.3,0.4,0.5,0.8,0.8,1.2
	C68.8,95.6,73.1,94.2,71.9,91.4z"/>
<line fill="none" stroke="#526C7D" stroke-width="2" stroke-linecap="round" stroke-linejoin="round" stroke-miterlimit="10" x1="60.1" y1="44.3" x2="62.3" y2="56"/>
<line fill="none" stroke="#526C7D" stroke-width="2" stroke-linecap="round" stroke-linejoin="round" stroke-miterlimit="10" x1="62.3" y1="56" x2="51.9" y2="61.4"/>
<line fill="none" stroke="#526C7D" stroke-width="2" stroke-linecap="round" stroke-linejoin="round" stroke-miterlimit="10" x1="72.1" y1="62.1" x2="81.8" y2="53.9"/>
<line fill="none" stroke="#526C7D" stroke-width="2" stroke-linecap="round" stroke-linejoin="round" stroke-miterlimit="10" x1="81.8" y1="53.9" x2="91.3" y2="62.1"/>
<line fill="none" stroke="#526C7D" stroke-width="2" stroke-linecap="round" stroke-linejoin="round" stroke-miterlimit="10" x1="91.3" y1="62.1" x2="88.1" y2="74"/>
<line fill="none" stroke="#526C7D" stroke-width="2" stroke-linecap="round" stroke-linejoin="round" stroke-miterlimit="10" x1="88.1" y1="74" x2="75.7" y2="74"/>
<line fill="none" stroke="#526C7D" stroke-width="2" stroke-linecap="round" stroke-linejoin="round" stroke-miterlimit="10" x1="75.7" y1="74" x2="72.1" y2="62.1"/>
<line fill="none" stroke="#526C7D" stroke-width="2" stroke-linecap="round" stroke-linejoin="round" stroke-miterlimit="10" x1="62.3" y1="56" x2="72.1" y2="62.1"/>
<line fill="none" stroke="#526C7D" stroke-width="2" stroke-linecap="round" stroke-linejoin="round" stroke-miterlimit="10" x1="81.8" y1="53.9" x2="81.8" y2="43.2"/>
<line fill="none" stroke="#526C7D" stroke-width="2" stroke-linecap="round" stroke-linejoin="round" stroke-miterlimit="10" x1="81.8" y1="43.2" x2="92.3" y2="35.7"/>
<line fill="none" stroke="#526C7D" stroke-width="2" stroke-linecap="round" stroke-linejoin="round" stroke-miterlimit="10" x1="81.8" y1="43.2" x2="73.9" y2="35.7"/>
<line fill="none" stroke="#526C7D" stroke-width="2" stroke-linecap="round" stroke-linejoin="round" stroke-miterlimit="10" x1="91.3" y1="62.1" x2="102.8" y2="56"/>
<line fill="none" stroke="#526C7D" stroke-width="2" stroke-linecap="round" stroke-linejoin="round" stroke-miterlimit="10" x1="102.8" y1="56" x2="106.1" y2="44.3"/>
<line fill="none" stroke="#526C7D" stroke-width="2" stroke-linecap="round" stroke-linejoin="round" stroke-miterlimit="10" x1="102.8" y1="56" x2="114.3" y2="61.4"/>
<line fill="none" stroke="#526C7D" stroke-width="2" stroke-linecap="round" stroke-linejoin="round" stroke-miterlimit="10" x1="88.1" y1="74" x2="95.2" y2="83.3"/>
<line fill="none" stroke="#526C7D" stroke-width="2" stroke-linecap="round" stroke-linejoin="round" stroke-miterlimit="10" x1="95.2" y1="83.3" x2="108.6" y2="84.4"/>
<line fill="none" stroke="#526C7D" stroke-width="2" stroke-linecap="round" stroke-linejoin="round" stroke-miterlimit="10" x1="95.2" y1="83.3" x2="91.3" y2="96.3"/>
<line fill="none" stroke="#526C7D" stroke-width="2" stroke-linecap="round" stroke-linejoin="round" stroke-miterlimit="10" x1="75.7" y1="74" x2="68.5" y2="83.9"/>
<circle fill="none" stroke="#526C7D" stroke-width="2.0094" stroke-miterlimit="10" cx="82.8" cy="65.7" r="31.7"/>
<line fill="none" stroke="#526C7D" stroke-width="2" stroke-linecap="round" stroke-linejoin="round" stroke-miterlimit="10" x1="68.5" y1="83.9" x2="72.1" y2="95.4"/>
<line fill="none" stroke="#526C7D" stroke-width="2" stroke-linecap="round" stroke-linejoin="round" stroke-miterlimit="10" x1="68.5" y1="83.9" x2="57.1" y2="83.3"/>
<line fill="none" stroke="#526C7D" stroke-width="2" stroke-linecap="round" stroke-linejoin="round" stroke-miterlimit="10" x1="57.1" y1="97.4" x2="106.1" y2="97.4"/>
<line fill="none" stroke="#526C7D" stroke-width="2" stroke-linecap="round" stroke-linejoin="round" stroke-miterlimit="10" x1="114.6" y1="96.9" x2="124.9" y2="96.9"/>
</svg>
