<?xml version="1.0" encoding="utf-8"?>
<!-- Generator: Adobe Illustrator 17.1.0, SVG Export Plug-In . SVG Version: 6.00 Build 0)  -->
<!DOCTYPE svg PUBLIC "-//W3C//DTD SVG 1.1//EN" "http://www.w3.org/Graphics/SVG/1.1/DTD/svg11.dtd">
<svg version="1.1" id="Слой_1" xmlns="http://www.w3.org/2000/svg" xmlns:xlink="http://www.w3.org/1999/xlink" x="0px" y="0px"
	 width="166.7px" height="117px" viewBox="0 0 166.7 117" enable-background="new 0 0 166.7 117" xml:space="preserve">
<path fill="#F3FAFE" d="M139.5,18.2H31.1c-7.8,0-7.8,17.8,0,17.8h15.8c8.2,0,8.2,19.2,0,19.2H5.6c-7.5,0-7.5,18.3,0,18.3h30.7
	c9.8,0,9.8,18.9,0,18.9H25.8c-7.2,0-7.2,18.6,0,18.6h128.4c7.7,0,7.7-17.5,0-17.5h-38.7c-8.6,0-8.6-19.2,0-19.2h25.3
	c7.8,0,7.8-18.6,0-18.6h-15.5c-6.4,0-6.4-18.8,0-18.8c0,0,14.2,0,14.3,0C149.2,36.7,149.2,18.2,139.5,18.2z"/>
<circle fill="#DBEDFA" cx="40.8" cy="15.9" r="2.7"/>
<circle fill="#DBEDFA" cx="15.3" cy="73.1" r="2.7"/>
<circle fill="#DBEDFA" cx="19.4" cy="53.8" r="1.5"/>
<circle fill="#DBEDFA" cx="61.9" cy="23.4" r="1.5"/>
<circle fill="#DBEDFA" cx="130.3" cy="53.8" r="1.5"/>
<circle fill="#DBEDFA" cx="127.3" cy="74.5" r="1.5"/>
<circle fill="#DBEDFA" cx="101.4" cy="16.7" r="3.8"/>
<circle fill="#DBEDFA" cx="75.8" cy="4.9" r="2.8"/>
<circle fill="#DBEDFA" cx="143" cy="62" r="2.8"/>
<circle fill="#DBEDFA" cx="138.8" cy="23.4" r="4.1"/>
<circle fill="#DBEDFA" cx="36.4" cy="59.2" r="1.8"/>
<circle fill="#DBEDFA" cx="33.6" cy="38.1" r="2.8"/>
<path fill="#99CCEE" d="M96.9,40.6c-0.2-0.1-0.4-0.2-0.6-0.2c-1-0.3-2.1-0.5-3.1-0.8c-0.3-0.4-0.7-0.8-1.4-0.9
	c-7.4-1.4-14.6-0.9-21.6,1.9c0,0,0,0-0.1,0c-0.3,0-0.6,0.1-0.9,0.1c-0.6,0.1-1.1,0.3-1.4,0.6c-0.8-0.6-1.8-0.7-2.7-0.2
	c-2.7,1.5-5.9,4.2-8.4,7.3c-3.9,3.5-6.8,8.1-8.1,14.2c-0.1,0.7,0,1.3,0.2,1.8c0,0.1,0,0.1,0,0.2c-0.2,0.6-0.1,1.1,0,1.5
	c-1.4,2.5-1.5,5.9-1.3,9c0.4,6.7,3.1,13.1,8,17.6c4.5,4.1,11,5.3,16.8,3.7c1.1-0.3,2-0.8,2.9-1.3c3-0.7,6-3.4,6.4-6.3
	c2.1-2.4,4.2-4.7,7.3-5.7c7.1-2.3,14.8,1.4,22.1-1.5c5.6-2.2,10-6.9,10.1-14.5S120,51.4,96.9,40.6z"/>
<path fill="none" stroke="#526C7D" stroke-width="2" stroke-linecap="round" stroke-linejoin="round" stroke-miterlimit="10" d="
	M63.7,42.7c13.8-8.7,34.2-8.3,53.2,10.3"/>
<path fill="none" stroke="#526C7D" stroke-width="2" stroke-linecap="round" stroke-linejoin="round" stroke-miterlimit="10" d="
	M47.7,79.5C46.4,73,47,66.6,49.1,61"/>
<path fill="none" stroke="#526C7D" stroke-width="2" stroke-linecap="round" stroke-linejoin="round" stroke-miterlimit="10" d="
	M116.9,52.9c7.5,9.1,5.9,18.1-1.9,26.9"/>
<path fill="none" stroke="#526C7D" stroke-width="2" stroke-linecap="round" stroke-linejoin="round" stroke-miterlimit="10" d="
	M113.8,55.9c5.5,6.7,4.4,13.4-1.4,19.9"/>
<path fill="none" stroke="#526C7D" stroke-width="2" stroke-linecap="round" stroke-linejoin="round" stroke-miterlimit="10" d="
	M115,79.8c-6.9,6.9-17.8,0.2-25.5,2.6"/>
<path fill="none" stroke="#526C7D" stroke-width="2" stroke-linecap="round" stroke-linejoin="round" stroke-miterlimit="10" d="
	M89.5,82.4c-7.9,3.2-9.1,14.9-19.1,14.9"/>
<path fill="none" stroke="#526C7D" stroke-width="2" stroke-linecap="round" stroke-linejoin="round" stroke-miterlimit="10" d="
	M70.4,97.3C59.6,99,52.3,92.6,47.9,79.8"/>
<circle fill="#FFFFFF" stroke="#526C7D" stroke-width="2" stroke-linecap="round" stroke-linejoin="round" stroke-miterlimit="10" cx="67.2" cy="84.3" r="6.4"/>
<circle fill="#FED277" stroke="#526C7D" stroke-width="2" stroke-miterlimit="10" cx="59.8" cy="67.4" r="6.4"/>
<circle fill="#FED277" stroke="#526C7D" stroke-width="2" stroke-miterlimit="10" cx="73.6" cy="51.7" r="6.4"/>
<circle fill="#FED277" stroke="#526C7D" stroke-width="2" stroke-miterlimit="10" cx="93.3" cy="50.7" r="6.4"/>
<circle fill="#FED277" stroke="#526C7D" stroke-width="2" stroke-miterlimit="10" cx="105" cy="65.8" r="6.4"/>
<path fill="none" stroke="#526C7D" stroke-width="2" stroke-linecap="round" stroke-linejoin="round" stroke-miterlimit="10" d="
	M50.8,56.5c1.1-2,2.3-3.9,3.7-5.8"/>
</svg>
