<?xml version="1.0" encoding="utf-8"?>
<!-- Generator: Adobe Illustrator 17.1.0, SVG Export Plug-In . SVG Version: 6.00 Build 0)  -->
<!DOCTYPE svg PUBLIC "-//W3C//DTD SVG 1.1//EN" "http://www.w3.org/Graphics/SVG/1.1/DTD/svg11.dtd">
<svg version="1.1" id="Слой_1" xmlns="http://www.w3.org/2000/svg" xmlns:xlink="http://www.w3.org/1999/xlink" x="0px" y="0px"
	 width="40.3px" height="36.9px" viewBox="0 0 40.3 36.9" enable-background="new 0 0 40.3 36.9" xml:space="preserve">
<g>
	<g>
		<path fill="none" stroke="#2D50A1" stroke-width="2" stroke-miterlimit="10" d="M20.6,6.9L7.3,20.2c-0.2,0.2-0.4,0.5-0.4,0.8
			l-0.3,3.9C6.6,25.6,7,26,7.7,26l3.7-0.3c0.3,0,0.6-0.2,0.8-0.4l13.4-13.4c0.5-0.5,0.5-1.2,0.1-1.6l-3.5-3.5
			C21.8,6.3,21,6.4,20.6,6.9z"/>
		<path fill="none" stroke="#2D50A1" stroke-width="2" stroke-linecap="round" stroke-miterlimit="10" d="M25.7,9.7l-3-3
			c-0.6-0.6-0.6-1.5,0-2l2.2-2.2c0.6-0.6,1.5-0.6,2,0l3,3c0.6,0.6,0.6,1.5,0,2l-2.2,2.2C27.2,10.2,26.3,10.2,25.7,9.7z"/>
	</g>
	<path fill="none" stroke="#2D50A1" stroke-width="2" stroke-linecap="round" stroke-miterlimit="10" d="M33,34.8H5.5
		c-0.9,0-1.6-0.7-1.6-1.6v-1.3c0-0.9,0.7-1.6,1.6-1.6H33c0.9,0,1.6,0.7,1.6,1.6v1.3C34.7,34.1,33.9,34.8,33,34.8z"/>
	<path fill="none" stroke="#2D50A1" stroke-width="2" stroke-linecap="round" stroke-miterlimit="10" d="M34.9,28.7"/>
</g>
</svg>
