<?xml version="1.0" encoding="utf-8"?>
<!-- Generator: Adobe Illustrator 17.1.0, SVG Export Plug-In . SVG Version: 6.00 Build 0)  -->
<!DOCTYPE svg PUBLIC "-//W3C//DTD SVG 1.1//EN" "http://www.w3.org/Graphics/SVG/1.1/DTD/svg11.dtd">
<svg version="1.1" id="Слой_1" xmlns="http://www.w3.org/2000/svg" xmlns:xlink="http://www.w3.org/1999/xlink" x="0px" y="0px"
	 width="53.9px" height="41.8px" viewBox="0 0 53.9 41.8" enable-background="new 0 0 53.9 41.8" xml:space="preserve">
<g>
	
		<line fill="none" stroke="#2D50A1" stroke-width="2" stroke-linecap="round" stroke-miterlimit="10" x1="13.6" y1="15.5" x2="22.7" y2="15.5"/>
	
		<line fill="none" stroke="#2D50A1" stroke-width="2" stroke-linecap="round" stroke-miterlimit="10" x1="13.6" y1="22.4" x2="20.6" y2="22.4"/>
	<path fill="#2D50A1" d="M21.7,30.9h-9.4L12,31.1c-2.1,1.4-5.9,3.7-6.8,4.1c0-0.1,0-0.1,0-0.2V9.9c0-2.1,1.7-3.8,3.8-3.8h29.8
		c2.1,0,3.8,1.7,3.8,3.8v4.6c0.7,0,1.4,0,2,0V9.9c0-3.2-2.6-5.8-5.8-5.8H9c-3.2,0-5.8,2.6-5.8,5.8V35c0,1.1,0.7,2.2,1.9,2.2h0.1
		c1.1,0,6.1-3.3,7.7-4.3h8.7C21.6,32.2,21.6,31.6,21.7,30.9z M5.1,36.1v-1l0,0l0,0V36.1z"/>
</g>
<g>
	<path fill="none" stroke="#2D50A1" stroke-width="2" stroke-linecap="round" stroke-miterlimit="10" d="M26.9,17.3H47
		c1.8,0,3.2,1.6,3.2,3.6v9.9v9c0,0,0,1-0.7,0.9c-0.4,0-3.9-2.4-5-3.2c-0.1,0-0.2,0-0.3,0H26.9c-1.8,0-3.2-1.6-3.2-3.6v-13
		C23.7,18.9,25.1,17.3,26.9,17.3z"/>
	
		<line fill="none" stroke="#2D50A1" stroke-width="2" stroke-linecap="round" stroke-miterlimit="10" x1="43.8" y1="25.1" x2="38.4" y2="25.1"/>
	
		<line fill="none" stroke="#2D50A1" stroke-width="2" stroke-linecap="round" stroke-miterlimit="10" x1="43.8" y1="30.3" x2="32.1" y2="30.3"/>
</g>
</svg>
