<?xml version="1.0" encoding="utf-8"?>
<!-- Generator: Adobe Illustrator 17.1.0, SVG Export Plug-In . SVG Version: 6.00 Build 0)  -->
<!DOCTYPE svg PUBLIC "-//W3C//DTD SVG 1.1//EN" "http://www.w3.org/Graphics/SVG/1.1/DTD/svg11.dtd">
<svg version="1.1" id="Слой_1" xmlns="http://www.w3.org/2000/svg" xmlns:xlink="http://www.w3.org/1999/xlink" x="0px" y="0px"
	 width="39.6px" height="41.8px" viewBox="0 0 39.6 41.8" enable-background="new 0 0 39.6 41.8" xml:space="preserve">
<g>
	<g>
		<path fill="none" stroke="#2D50A1" stroke-width="2" stroke-linecap="round" stroke-miterlimit="10" d="M32.6,7H7.4
			C5.5,7,4,8.5,4,10.4v25.2C4,37.5,5.5,39,7.4,39h25.2c1.9,0,3.4-1.5,3.4-3.4V10.4C36,8.5,34.5,7,32.6,7z"/>
		
			<line fill="none" stroke="#2D50A1" stroke-width="2" stroke-linecap="round" stroke-miterlimit="10" x1="9.4" y1="32.3" x2="13.1" y2="32.3"/>
		
			<line fill="none" stroke="#2D50A1" stroke-width="2" stroke-linecap="round" stroke-miterlimit="10" x1="18.4" y1="25.2" x2="22.1" y2="25.2"/>
		
			<line fill="none" stroke="#2D50A1" stroke-width="2" stroke-linecap="round" stroke-miterlimit="10" x1="18.4" y1="32.3" x2="22.1" y2="32.3"/>
		
			<line fill="none" stroke="#2D50A1" stroke-width="2" stroke-linecap="round" stroke-miterlimit="10" x1="27.4" y1="25.2" x2="31.1" y2="25.2"/>
		
			<line fill="none" stroke="#2D50A1" stroke-width="2" stroke-linecap="round" stroke-miterlimit="10" x1="27.4" y1="32.3" x2="31.1" y2="32.3"/>
		
			<line fill="none" stroke="#2D50A1" stroke-width="2" stroke-linecap="round" stroke-miterlimit="10" x1="27.4" y1="17.9" x2="31.1" y2="17.9"/>
	</g>
	
		<line fill="none" stroke="#2D50A1" stroke-width="2" stroke-linecap="round" stroke-miterlimit="10" x1="15.1" y1="2.8" x2="15.1" y2="10.3"/>
	
		<line fill="none" stroke="#2D50A1" stroke-width="2" stroke-linecap="round" stroke-miterlimit="10" x1="25" y1="2.8" x2="25" y2="10.3"/>
</g>
</svg>
