<?xml version="1.0" encoding="utf-8"?>
<!-- Generator: Adobe Illustrator 17.1.0, SVG Export Plug-In . SVG Version: 6.00 Build 0)  -->
<!DOCTYPE svg PUBLIC "-//W3C//DTD SVG 1.1//EN" "http://www.w3.org/Graphics/SVG/1.1/DTD/svg11.dtd">
<svg version="1.1" id="Слой_1" xmlns="http://www.w3.org/2000/svg" xmlns:xlink="http://www.w3.org/1999/xlink" x="0px" y="0px"
	 width="40.3px" height="36.9px" viewBox="0 0 40.3 36.9" enable-background="new 0 0 40.3 36.9" xml:space="preserve">
<g>
	<path fill="none" stroke="#2D50A1" stroke-width="2" stroke-linecap="round" stroke-miterlimit="10" d="M31.3,19.7v9.9
		c0,2.2-1.3,3.9-2.9,3.9h-18c-1.6,0-2.9-1.8-2.9-3.9v-9.9"/>
	<path fill="none" stroke="#2D50A1" stroke-width="2" stroke-linecap="round" stroke-miterlimit="10" d="M3.6,18.4L16.3,5.7
		c0,0,1.2-1.7,3.2-1.7c2,0,3.5,1.6,3.5,1.6l13.2,13.2"/>
	<path fill="none" stroke="#2D50A1" stroke-width="2" stroke-linecap="round" stroke-miterlimit="10" d="M21.4,29.2h-3.9
		c-0.7,0-1.2-0.5-1.2-1.2v-5.4c0-0.7,0.5-1.2,1.2-1.2h3.9c0.7,0,1.2,0.5,1.2,1.2V28C22.6,28.7,22.1,29.2,21.4,29.2z"/>
</g>
</svg>
