<?xml version="1.0" encoding="utf-8"?>
<!-- Generator: Adobe Illustrator 17.1.0, SVG Export Plug-In . SVG Version: 6.00 Build 0)  -->
<!DOCTYPE svg PUBLIC "-//W3C//DTD SVG 1.1//EN" "http://www.w3.org/Graphics/SVG/1.1/DTD/svg11.dtd">
<svg version="1.1" id="Слой_1" xmlns="http://www.w3.org/2000/svg" xmlns:xlink="http://www.w3.org/1999/xlink" x="0px" y="0px"
	 width="34.1px" height="39.2px" viewBox="0 0 34.1 39.2" enable-background="new 0 0 34.1 39.2" xml:space="preserve">
<g>
	<g>
		<path fill="#2D50A1" d="M32.1,30.7v4.1c0,1.3-1.1,2.4-2.4,2.4h-5c0,0.7,0,1.3,0,2h5c2.5,0,4.4-1.9,4.4-4.4v-4.1
			C33.4,30.7,32.7,30.7,32.1,30.7z"/>
		<path fill="#2D50A1" d="M4.4,37.2c-1.3,0-2.4-1.1-2.4-2.4V9.6c0-1.3,1.1-2.4,2.4-2.4h25.2c1.3,0,2.4,1.1,2.4,2.4v21.1
			c0.6,0,1.3,0,2,0V9.6c0-2.5-1.9-4.4-4.4-4.4H4.4C1.9,5.2,0,7.1,0,9.6v25.2c0,2.5,1.9,4.4,4.4,4.4h20.2c0-0.7,0-1.3,0-2H4.4
			L4.4,37.2z"/>
		
			<line fill="none" stroke="#2D50A1" stroke-width="2" stroke-linecap="round" stroke-miterlimit="10" x1="13.4" y1="18.4" x2="18.1" y2="14.3"/>
		
			<line fill="none" stroke="#2D50A1" stroke-width="2" stroke-linecap="round" stroke-miterlimit="10" x1="18.1" y1="31.6" x2="18.1" y2="14.3"/>
	</g>
	
		<line fill="none" stroke="#2D50A1" stroke-width="2" stroke-linecap="round" stroke-miterlimit="10" x1="12.2" y1="2" x2="12.2" y2="9.5"/>
	
		<line fill="none" stroke="#2D50A1" stroke-width="2" stroke-linecap="round" stroke-miterlimit="10" x1="22.1" y1="2" x2="22.1" y2="9.5"/>
</g>
</svg>
