<?xml version="1.0" encoding="utf-8"?>
<!-- Generator: Adobe Illustrator 17.1.0, SVG Export Plug-In . SVG Version: 6.00 Build 0)  -->
<!DOCTYPE svg PUBLIC "-//W3C//DTD SVG 1.1//EN" "http://www.w3.org/Graphics/SVG/1.1/DTD/svg11.dtd">
<svg version="1.1" id="Слой_1" xmlns="http://www.w3.org/2000/svg" xmlns:xlink="http://www.w3.org/1999/xlink" x="0px" y="0px"
	 width="53.9px" height="41.8px" viewBox="0 0 53.9 41.8" enable-background="new 0 0 53.9 41.8" xml:space="preserve">
<path fill="none" stroke="#2D50A1" stroke-width="2" stroke-linecap="round" stroke-miterlimit="10" d="M23.6,37.1L6.9,15.2
	c-1.5-1.9-1-4.7,1-6l8.5-5.5C17.1,3.3,17.9,3,18.7,3h16.4c0.8,0,1.6,0.2,2.3,0.7l8.5,5.5c2,1.3,2.5,4.1,1,6L30.2,37.1
	C28.6,39.3,25.3,39.3,23.6,37.1z"/>
<line fill="none" stroke="#2D50A1" stroke-width="2" stroke-linecap="round" stroke-miterlimit="10" x1="6.1" y1="11.6" x2="47.9" y2="11.6"/>
<line fill="none" stroke="#2D50A1" stroke-width="2" stroke-linecap="round" stroke-miterlimit="10" x1="22.4" y1="3.6" x2="19.3" y2="11.6"/>
<line fill="none" stroke="#2D50A1" stroke-width="2" stroke-linecap="round" stroke-miterlimit="10" x1="19.3" y1="11.6" x2="27" y2="38.7"/>
<line fill="none" stroke="#2D50A1" stroke-width="2" stroke-linecap="round" stroke-miterlimit="10" x1="31.5" y1="3.6" x2="34.6" y2="11.6"/>
<line fill="none" stroke="#2D50A1" stroke-width="2" stroke-linecap="round" stroke-miterlimit="10" x1="34.6" y1="11.6" x2="27" y2="38.7"/>
</svg>
