<?xml version="1.0" encoding="utf-8"?>
<!-- Generator: Adobe Illustrator 17.1.0, SVG Export Plug-In . SVG Version: 6.00 Build 0)  -->
<!DOCTYPE svg PUBLIC "-//W3C//DTD SVG 1.1//EN" "http://www.w3.org/Graphics/SVG/1.1/DTD/svg11.dtd">
<svg version="1.1" id="Слой_1" xmlns="http://www.w3.org/2000/svg" xmlns:xlink="http://www.w3.org/1999/xlink" x="0px" y="0px"
	 width="85.5px" height="69.2px" viewBox="7.7 4.9 85.5 69.2" enable-background="new 7.7 4.9 85.5 69.2" xml:space="preserve">
<path fill="#99CCEE" d="M77.7,41.6c-0.5-1.1-1.3-2-2.5-2.9c-1.1-0.8-2.4-0.8-3.6-0.5c-2.3-1.1-4.8-1.7-7.1-1.9
	c-8.6-0.8-17.4-0.5-26.1-0.7c-2.3,0-6.4,0-8.7,1.4c-2.7-2.1-6.1-3.7-7.2,0.4c-0.5,1.7-0.1,3.1,0.8,4.3c0,0.1,0,0.2,0,0.3
	c-0.2,0.5-0.2,1,0,1.5c0,5.4-0.1,10.7-0.1,16.1c0,3.2-0.5,8.6,4.1,8.3c1.4-0.1,2.5-1.1,2.5-2.5c0-4.3,0.1-8.6,0.1-13
	c0-2.4,13.5-1.3,15.4-1.3c9.7,0,19.3,0,29,0.1c0.3,4.8,0.3,9.6,0.4,14.4c0.1,3.2,4.9,3.2,5,0c0.2-7.2,0.4-14.5,0.6-21.7
	C80.4,42.4,79.1,41.5,77.7,41.6z"/>
<line fill="none" stroke="#526C7D" stroke-width="2" stroke-linecap="round" stroke-linejoin="round" stroke-miterlimit="10" x1="23.5" y1="68" x2="23.5" y2="48.5"/>
<line fill="none" stroke="#526C7D" stroke-width="2" stroke-linecap="round" stroke-linejoin="round" stroke-miterlimit="10" x1="80.3" y1="68" x2="80.3" y2="40.9"/>
<line fill="none" stroke="#526C7D" stroke-width="2" stroke-linecap="round" stroke-linejoin="round" stroke-miterlimit="10" x1="19.9" y1="68" x2="82.9" y2="68"/>
<line fill="none" stroke="#526C7D" stroke-width="2" stroke-linecap="round" stroke-linejoin="round" stroke-miterlimit="10" x1="9.8" y1="72.6" x2="24.4" y2="72.6"/>
<line fill="none" stroke="#526C7D" stroke-width="2" stroke-linecap="round" stroke-linejoin="round" stroke-miterlimit="10" x1="31.6" y1="72.6" x2="79.7" y2="72.6"/>
<line fill="none" stroke="#526C7D" stroke-width="2" stroke-linecap="round" stroke-linejoin="round" stroke-miterlimit="10" x1="84.5" y1="72.6" x2="91.2" y2="72.6"/>
<path fill="#99CCEE" d="M83.8,37.2c-1.1-2.9-2.3-5.8-3.4-8.7c0.1-1.3-0.7-2.6-2.4-2.6c-13.1,0-26.3,0-39.4-0.1
	c-3.3,0-7.1-0.5-10.6,0.1c-0.4-0.3-0.9-0.4-1.4-0.4c-1.4,0.1-2.8,0.5-3.5,1.8c-0.2,0.4-0.4,0.9-0.4,1.3c-2.1,2.4-2.5,6-2.7,8.9
	c-0.2,2.1,2.2,2.9,3.8,2.2c3.2-1.4,6.2-0.5,8.4,2c0.4,0.5,0.9,0.7,1.4,0.7c0.9,0.4,2,0.3,2.9-0.2c1-0.6,1.5-1.6,1.5-2.7
	c2.2-1.6,4.1-1,6,0.1c0.1,0.7,0.4,1.4,0.9,1.9c0.8,0.8,1.8,1.1,2.9,1.1c0.9,0.1,1.8-0.1,2.6-0.6c0.5-0.3,0.9-0.8,1.2-1.3
	c0.3-0.2,0.5-0.4,0.7-0.6c1.2-1,2.7-1.6,4.4-2c0.3,0.2,0.7,0.2,1.1,0.3c0.4,0.3,0.8,1.3,1.1,1.7c0.8,1.1,2.1,2.2,3.5,2.1
	c2.5,0,3.9-1.7,4.7-3.7c1.7,0,3.4-0.1,5.1-0.2c0.2,2,2.2,3.5,4,3.8c1.9,0.3,4-0.2,5-1.8h0.1C82.9,40.5,84.4,38.7,83.8,37.2z"/>
<line fill="none" stroke="#526C7D" stroke-width="2" stroke-linecap="round" stroke-linejoin="round" stroke-miterlimit="10" x1="24.4" y1="25.7" x2="79.7" y2="25.7"/>
<line fill="none" stroke="#526C7D" stroke-width="2" stroke-linecap="round" stroke-linejoin="round" stroke-miterlimit="10" x1="24.4" y1="25.7" x2="19.9" y2="35.8"/>
<path fill="none" stroke="#526C7D" stroke-width="2" stroke-linecap="round" stroke-linejoin="round" stroke-miterlimit="10" d="
	M19.9,35.8c-1.2,1.9,0,5,3.7,5.1"/>
<line fill="none" stroke="#526C7D" stroke-width="2" stroke-linecap="round" stroke-linejoin="round" stroke-miterlimit="10" x1="79.7" y1="25.7" x2="84.2" y2="35.8"/>
<path fill="none" stroke="#526C7D" stroke-width="2" stroke-linecap="round" stroke-linejoin="round" stroke-miterlimit="10" d="
	M84.2,35.8c1.2,1.9,0,5-3.7,5.1"/>
<path fill="none" stroke="#526C7D" stroke-width="2" stroke-linecap="round" stroke-linejoin="round" stroke-miterlimit="10" d="
	M23.5,40.9c0-3.2,7.1-3.2,7.1,0"/>
<path fill="none" stroke="#526C7D" stroke-width="2" stroke-linecap="round" stroke-linejoin="round" stroke-miterlimit="10" d="
	M30.6,40.9c0,2.7,7.1,2.7,7.1,0"/>
<path fill="none" stroke="#526C7D" stroke-width="2" stroke-linecap="round" stroke-linejoin="round" stroke-miterlimit="10" d="
	M37.7,40.9c0-3.2,7.1-3.2,7.1,0"/>
<path fill="none" stroke="#526C7D" stroke-width="2" stroke-linecap="round" stroke-linejoin="round" stroke-miterlimit="10" d="
	M44.8,40.9c0,2.7,7.1,2.7,7.1,0"/>
<path fill="none" stroke="#526C7D" stroke-width="2" stroke-linecap="round" stroke-linejoin="round" stroke-miterlimit="10" d="
	M51.9,40.9c0-3.2,7.1-3.2,7.1,0"/>
<path fill="none" stroke="#526C7D" stroke-width="2" stroke-linecap="round" stroke-linejoin="round" stroke-miterlimit="10" d="
	M59,40.9c0,2.7,7.1,2.7,7.1,0"/>
<path fill="none" stroke="#526C7D" stroke-width="2" stroke-linecap="round" stroke-linejoin="round" stroke-miterlimit="10" d="
	M66.1,40.9c0-3.2,7.1-3.2,7.1,0"/>
<path fill="none" stroke="#526C7D" stroke-width="2" stroke-linecap="round" stroke-linejoin="round" stroke-miterlimit="10" d="
	M73.2,40.9c0,2.7,7.1,2.7,7.1,0"/>
<line fill="none" stroke="#526C7D" stroke-width="2" stroke-linecap="round" stroke-linejoin="round" stroke-miterlimit="10" x1="46.3" y1="25.7" x2="46.3" y2="21.3"/>
<line fill="none" stroke="#526C7D" stroke-width="2" stroke-linecap="round" stroke-linejoin="round" stroke-miterlimit="10" x1="57.2" y1="25.7" x2="57.2" y2="21.3"/>
<path fill="#FED277" stroke="#526C7D" stroke-width="2" stroke-miterlimit="10" d="M62.2,21.3H41.8c-2.7,0-4.8-2.2-4.8-4.8v-5.4
	c0-2.7,2.2-4.8,4.8-4.8h20.4c2.7,0,4.8,2.2,4.8,4.8v5.4C67,19.2,64.9,21.3,62.2,21.3z"/>
<g>
	<g>
		<path fill="#FFFFFF" d="M44.6,14.3c-0.2-0.1-0.4-0.2-0.6-0.2c-0.9-0.3-1.8-0.5-1.8-1.8c0-1.1,0.8-1.8,2-1.8c0.5,0,1.7,0.1,1.7,0.8
			c0,0.3-0.2,0.5-0.6,0.5c-0.2,0-0.3-0.1-0.4-0.1c-0.2-0.1-0.4-0.1-0.7-0.1c-0.4,0-0.8,0.1-0.8,0.7c0,0.4,0.2,0.5,0.4,0.6
			s0.4,0.2,0.6,0.2c0.9,0.3,1.8,0.6,1.8,1.8s-0.9,1.9-2.2,1.9c-0.6,0-1.9-0.2-1.9-0.8c0-0.3,0.3-0.5,0.6-0.5c0.1,0,0.3,0,0.4,0.1
			c0.2,0.1,0.5,0.2,0.9,0.2c0.6,0,0.9-0.3,0.9-0.7C45,14.5,44.8,14.4,44.6,14.3z"/>
		<path fill="#FFFFFF" d="M50.7,16.7c-0.3,0-0.6-0.3-0.6-0.6v-2h-1.8v2c0,0.3-0.3,0.6-0.6,0.6s-0.6-0.3-0.6-0.6V11
			c0-0.3,0.3-0.6,0.6-0.6s0.6,0.3,0.6,0.6v2h1.8v-2c0-0.3,0.3-0.6,0.6-0.6s0.6,0.3,0.6,0.6v5.2C51.3,16.5,51,16.7,50.7,16.7z"/>
		<path fill="#FFFFFF" d="M52.3,14.4v-1.7c0-1.2,0.6-2.3,2.3-2.3c1.6,0,2.3,1,2.3,2.3v1.7c0,1.3-0.8,2.3-2.3,2.3
			S52.3,15.7,52.3,14.4z M53.5,12.7v1.7c0,0.7,0.3,1.2,1,1.2s1-0.5,1-1.2v-1.7c0-0.7-0.3-1.2-1-1.2C53.7,11.5,53.5,12,53.5,12.7z"/>
		<path fill="#FFFFFF" d="M58.9,14.6v1.6c0,0.3-0.3,0.6-0.6,0.6s-0.6-0.3-0.6-0.6v-5c0-0.3,0.3-0.6,0.7-0.6h1.3c1.6,0,2.2,1,2.2,2
			c0,1.3-0.9,2-2.2,2H58.9z M58.9,13.5h0.7c0.7,0,1-0.3,1-0.9c0-0.5-0.2-0.9-1-0.9h-0.7V13.5z"/>
	</g>
</g>
<line fill="none" stroke="#526C7D" stroke-width="2" stroke-linecap="round" stroke-linejoin="round" stroke-miterlimit="10" x1="29.6" y1="68" x2="29.6" y2="50.9"/>
<line fill="none" stroke="#526C7D" stroke-width="2" stroke-linecap="round" stroke-linejoin="round" stroke-miterlimit="10" x1="29.6" y1="50.9" x2="62.6" y2="50.9"/>
<line fill="none" stroke="#526C7D" stroke-width="2" stroke-linecap="round" stroke-linejoin="round" stroke-miterlimit="10" x1="74.5" y1="50.9" x2="74.5" y2="68"/>
<line fill="none" stroke="#526C7D" stroke-width="2" stroke-linecap="round" stroke-linejoin="round" stroke-miterlimit="10" x1="43.8" y1="50.9" x2="43.8" y2="68"/>
<line fill="none" stroke="#526C7D" stroke-width="2" stroke-linecap="round" stroke-linejoin="round" stroke-miterlimit="10" x1="43.8" y1="62.5" x2="74.5" y2="62.5"/>
<line fill="none" stroke="#526C7D" stroke-width="2" stroke-linecap="round" stroke-linejoin="round" stroke-miterlimit="10" x1="23.5" y1="40.9" x2="23.5" y2="44.1"/>
<line fill="none" stroke="#526C7D" stroke-width="2" stroke-linecap="round" stroke-linejoin="round" stroke-miterlimit="10" x1="74.5" y1="50.9" x2="70.5" y2="50.9"/>
<line fill="none" stroke="#526C7D" stroke-width="2" stroke-linecap="round" stroke-linejoin="round" stroke-miterlimit="10" x1="27.1" y1="28.9" x2="34.2" y2="28.9"/>
<line fill="none" stroke="#526C7D" stroke-width="2" stroke-linecap="round" stroke-linejoin="round" stroke-miterlimit="10" x1="37.7" y1="28.9" x2="42.5" y2="28.9"/>
</svg>
