<?xml version="1.0" encoding="utf-8"?>
<!-- Generator: Adobe Illustrator 17.1.0, SVG Export Plug-In . SVG Version: 6.00 Build 0)  -->
<!DOCTYPE svg PUBLIC "-//W3C//DTD SVG 1.1//EN" "http://www.w3.org/Graphics/SVG/1.1/DTD/svg11.dtd">
<svg version="1.1" id="Слой_1" xmlns="http://www.w3.org/2000/svg" xmlns:xlink="http://www.w3.org/1999/xlink" x="0px" y="0px"
	 width="71.8px" height="71px" viewBox="14.5 2.5 71.8 71" enable-background="new 14.5 2.5 71.8 71" xml:space="preserve">
<path fill="#99CCEE" stroke="#526C7D" stroke-width="2" stroke-linecap="round" stroke-linejoin="round" stroke-miterlimit="10" d="
	M16.2,36.9v-3.1c0-6.2,5.1-11.3,11.3-11.3h46.1c6.2,0,11.3,5.1,11.3,11.3v27.1c0,6.2-5.1,11.3-11.3,11.3H27.5
	c-6.2,0-11.3-5.1-11.3-11.3V50.2"/>
<line fill="none" stroke="#FFFFFF" stroke-width="7" stroke-linecap="round" stroke-linejoin="round" stroke-miterlimit="10" x1="38.4" y1="48.3" x2="62.7" y2="48.3"/>
<line fill="none" stroke="#FFFFFF" stroke-width="7" stroke-linecap="round" stroke-linejoin="round" stroke-miterlimit="10" x1="50.6" y1="60.4" x2="50.6" y2="36.1"/>
<path fill="#FED277" stroke="#526C7D" stroke-width="2" stroke-miterlimit="10" d="M61.3,4H39.9c-3.1,0-5.7,2.6-5.7,5.7l-0.1,12.8
	l32.7-0.2L67,9.7C67,6.5,64.4,4,61.3,4z"/>
<path fill="#F3FAFE" stroke="#526C7D" stroke-width="2" stroke-miterlimit="10" d="M56.9,10.2H43.8c-1.9,0-3.5,1.7-3.5,3.8l-0.1,8.5
	l20.1-0.1l0.1-8.3C60.4,11.9,58.9,10.2,56.9,10.2z"/>
<line fill="none" stroke="#526C7D" stroke-width="2" stroke-linecap="round" stroke-linejoin="round" stroke-miterlimit="10" x1="16.2" y1="40.8" x2="16.2" y2="44.8"/>
<path fill="none" stroke="#526C7D" stroke-width="2" stroke-linecap="round" stroke-linejoin="round" stroke-miterlimit="10" d="
	M79.9,59.6c0,5.3-4.7,8.5-9.3,8.5"/>
</svg>
