<?xml version="1.0" encoding="utf-8"?>
<!-- Generator: Adobe Illustrator 17.1.0, SVG Export Plug-In . SVG Version: 6.00 Build 0)  -->
<!DOCTYPE svg PUBLIC "-//W3C//DTD SVG 1.1//EN" "http://www.w3.org/Graphics/SVG/1.1/DTD/svg11.dtd">
<svg version="1.1" id="Слой_1" xmlns="http://www.w3.org/2000/svg" xmlns:xlink="http://www.w3.org/1999/xlink" x="0px" y="0px"
	 width="56.5px" height="65.3px" viewBox="22 7.8 56.5 65.3" enable-background="new 22 7.8 56.5 65.3" xml:space="preserve">
<path fill="#99CCEE" stroke="#526C7D" stroke-width="2" stroke-linecap="round" stroke-linejoin="round" stroke-miterlimit="10" d="
	M23.8,21.4v-4.1c0-4.4,3.5-7.9,7.9-7.9h37.7c4.4,0,7.9,3.5,7.9,7.9v46.4c0,4.4-3.5,7.9-7.9,7.9H31.7c-4.4,0-7.9-3.5-7.9-7.9V36.4"/>
<text transform="matrix(1 0 0 1 42.3679 34.2352)" fill="#FED378" font-family="'BloggerSans-Bold'" font-size="14.3522" letter-spacing="1">ABC</text>
<line fill="none" stroke="#526C7D" stroke-width="2" stroke-linecap="round" stroke-linejoin="round" stroke-miterlimit="10" x1="34" y1="14.7" x2="34" y2="67"/>
<line fill="none" stroke="#526C7D" stroke-width="2" stroke-linecap="round" stroke-linejoin="round" stroke-miterlimit="10" x1="42.4" y1="40.2" x2="68.7" y2="40.2"/>
<line fill="none" stroke="#526C7D" stroke-width="2" stroke-linecap="round" stroke-linejoin="round" stroke-miterlimit="10" x1="42.4" y1="46.8" x2="50.7" y2="46.8"/>
<line fill="none" stroke="#526C7D" stroke-width="2" stroke-linecap="round" stroke-linejoin="round" stroke-miterlimit="10" x1="54.9" y1="46.8" x2="59.9" y2="46.8"/>
<line fill="none" stroke="#526C7D" stroke-width="2" stroke-linecap="round" stroke-linejoin="round" stroke-miterlimit="10" x1="23.8" y1="26" x2="23.8" y2="31.4"/>
<path fill="none" stroke="#526C7D" stroke-width="2" stroke-linecap="round" stroke-linejoin="round" stroke-miterlimit="10" d="
	M72.6,61.5c0,3.6-3.2,5.9-6.5,5.9"/>
</svg>
