<?xml version="1.0" encoding="utf-8"?>
<!-- Generator: Adobe Illustrator 17.1.0, SVG Export Plug-In . SVG Version: 6.00 Build 0)  -->
<!DOCTYPE svg PUBLIC "-//W3C//DTD SVG 1.1//EN" "http://www.w3.org/Graphics/SVG/1.1/DTD/svg11.dtd">
<svg version="1.1" id="Слой_1" xmlns="http://www.w3.org/2000/svg" xmlns:xlink="http://www.w3.org/1999/xlink" x="0px" y="0px"
	 width="67.5px" height="66px" viewBox="16.5 5 67.5 66" enable-background="new 16.5 5 67.5 66" xml:space="preserve">
<path fill="#99CCEE" d="M80.7,22.8c-0.5-1.8-1.2-3.8-2.6-5.2c-1.4-1.5-5.9-3.6-5.4-5.9C73.1,9.6,71,7.8,69,8.9
	c-7,3.9-19.1,15.3-16.6,24.8c-4.4,0.1-8.8,0.1-13.2,0.2c-0.1,0-0.2,0-0.3,0c-0.4-0.5-0.9-0.9-1.4-1.1c-0.6-0.2-1.3-0.1-1.9,0.3
	c-0.6,0.4-0.9,0.9-1.1,1.5c-0.2,0.4-0.3,0.8-0.5,1.2c-0.3,0.7-0.1,1.5,0.4,2.1c-2.1,6.2-4.2,12.3-6.2,18.5c0,0.1-0.1,0.1-0.1,0.2
	c-0.6,1-1.2,1.9-1.7,2.9c-1,1.8,0.4,3.4,1.9,3.7c1.1,1.3,2.9,1.8,4.6,0.1c1.5-1.5,1.4-4.1,2.4-5.8c2.2-4,7.6-5.3,11.6-6.2
	c8.8-1.9,18.8,2.1,21.5,11.2c0.9,3.1,5.5,1.8,4.8-1.3c-2.6-11.5-5.3-23-6.7-34.7c0-0.1,0-0.3-0.1-0.4c0.1-0.1,0.3-0.2,0.4-0.3
	c1.7-0.2,3.5-0.5,5.2-0.7c0,0.2,0.1,0.4,0.1,0.6c0.4,2.4,3.9,4.5,6.1,3.2C80.4,27.8,81.4,25.3,80.7,22.8z"/>
<path fill="none" stroke="#526C7D" stroke-width="2" stroke-linecap="round" stroke-linejoin="round" stroke-miterlimit="10" d="
	M18.4,54.7c14.2,19.3,50,19.5,64.2,0"/>
<line fill="none" stroke="#526C7D" stroke-width="2" stroke-linecap="round" stroke-linejoin="round" stroke-miterlimit="10" x1="26" y1="61.9" x2="34.9" y2="33.5"/>
<line fill="none" stroke="#526C7D" stroke-width="2" stroke-linecap="round" stroke-linejoin="round" stroke-miterlimit="10" x1="34.9" y1="33.5" x2="51.9" y2="33.5"/>
<path fill="#FED378" d="M32.9,31.2L25,27.3c-0.2-0.1-0.3-0.1-0.5-0.2c-0.7-1.1-2.3-1.7-3.4-0.9c-0.7,0.5-1.4,1.2-1.5,2.2
	c-0.1,0.8-0.1,1.5,0.3,2.2c0.1,1.4,1,2.7,2.4,3.3c1.3,0.6,2.8,0.7,4.1,1c1.5,0.3,3,0.6,4.5,0.8C33.6,36.2,35.6,32.5,32.9,31.2z"/>
<path fill="none" stroke="#526C7D" stroke-width="2" stroke-linecap="round" stroke-linejoin="round" stroke-miterlimit="10" d="
	M51.9,33.5c0.7-9.9,5.8-17.9,14.9-24.2"/>
<line fill="none" stroke="#526C7D" stroke-width="2" stroke-linecap="round" stroke-linejoin="round" stroke-miterlimit="10" x1="66.8" y1="9.3" x2="70.7" y2="7.6"/>
<line fill="none" stroke="#526C7D" stroke-width="2" stroke-linecap="round" stroke-linejoin="round" stroke-miterlimit="10" x1="70.7" y1="7.6" x2="72.5" y2="13.2"/>
<path fill="none" stroke="#526C7D" stroke-width="2" stroke-linecap="round" stroke-linejoin="round" stroke-miterlimit="10" d="
	M72.5,13.2c3.1,1.3,5.7,3.1,7.6,5.8"/>
<path fill="none" stroke="#526C7D" stroke-width="2" stroke-linecap="round" stroke-linejoin="round" stroke-miterlimit="10" d="
	M80,19c0.9,3,1,5.8,0,8.3"/>
<path fill="none" stroke="#526C7D" stroke-width="2" stroke-linecap="round" stroke-linejoin="round" stroke-miterlimit="10" d="
	M80,27.2c0,2.2-6.6,2.2-6.6,0"/>
<path fill="none" stroke="#526C7D" stroke-width="2" stroke-linecap="round" stroke-linejoin="round" stroke-miterlimit="10" d="
	M73.4,27.2c0-1.7-6.6-1.7-6.6,0"/>
<path fill="none" stroke="#526C7D" stroke-width="2" stroke-linecap="round" stroke-linejoin="round" stroke-miterlimit="10" d="
	M69.1,42.5c1.4,7.9,3.1,14.7,5.5,19.4"/>
<path fill="none" stroke="#526C7D" stroke-width="2" stroke-linecap="round" stroke-linejoin="round" stroke-miterlimit="10" d="
	M66.8,27.2c0.2,1.8,0.5,3.6,0.7,5.3"/>
<path fill="none" stroke="#526C7D" stroke-width="2" stroke-linecap="round" stroke-linejoin="round" stroke-miterlimit="10" d="
	M32.6,65.6c0-19.9,36.1-19.9,36.1,0"/>
<path fill="none" stroke="#526C7D" stroke-width="2" stroke-linecap="round" stroke-linejoin="round" stroke-miterlimit="10" d="
	M34.9,33.5c-4.3-4-8.9-6.4-13.6-7.6"/>
<path fill="none" stroke="#526C7D" stroke-width="2" stroke-linecap="round" stroke-linejoin="round" stroke-miterlimit="10" d="
	M21.3,25.9c-1.7,2.7-2,5.5,0,8.6"/>
<line fill="none" stroke="#526C7D" stroke-width="2" stroke-linecap="round" stroke-linejoin="round" stroke-miterlimit="10" x1="21.3" y1="34.6" x2="34.1" y2="36.2"/>
<line fill="none" stroke="#526C7D" stroke-width="2" stroke-linecap="round" stroke-linejoin="round" stroke-miterlimit="10" x1="68.1" y1="36.2" x2="68.4" y2="38.2"/>
<path fill="none" stroke="#526C7D" stroke-width="2" stroke-linecap="round" stroke-linejoin="round" stroke-miterlimit="10" d="
	M68.4,19c0-2.7,4.3-2.7,4.3,0"/>
<line fill="none" stroke="#526C7D" stroke-width="2" stroke-linecap="round" stroke-linejoin="round" stroke-miterlimit="10" x1="36.9" y1="38.2" x2="34.2" y2="47.7"/>
</svg>
