<?xml version="1.0" encoding="utf-8"?>
<!-- Generator: Adobe Illustrator 17.1.0, SVG Export Plug-In . SVG Version: 6.00 Build 0)  -->
<!DOCTYPE svg PUBLIC "-//W3C//DTD SVG 1.1//EN" "http://www.w3.org/Graphics/SVG/1.1/DTD/svg11.dtd">
<svg version="1.1" id="Слой_1" xmlns="http://www.w3.org/2000/svg" xmlns:xlink="http://www.w3.org/1999/xlink" x="0px" y="0px"
	 width="42.3px" height="72.3px" viewBox="29.3 3.8 42.3 72.3" enable-background="new 29.3 3.8 42.3 72.3" xml:space="preserve">
<path fill="#99CCEE" d="M49.9,27.9c0.1-0.3,0.1-0.5,0.1-0.8c0.1-1.2,0.2-2.4,0.3-3.7C52.5,19,51,12.3,50.8,7.7
	c-0.1-1.9-4.9-1.5-5,0.5c-0.1,3.6-0.3,7.1-0.4,10.7c0,1.3-0.1,2.6-0.1,3.9c-0.2,0.7-0.5,1.1-0.9,0.9s-0.8-0.3-1.3-0.3
	c0-0.3,0-0.6,0-0.9c1.1-4.7,0-10.4-0.2-15.1c-0.1-1.9-5-1.5-5,0.5c0,4.3,0.1,8.6,0.1,13c-0.4,1.4-1,2.3-2.1,2.5c0-0.8,0-1.7-0.1-2.4
	c-0.2-4.5-0.4-8.9-0.6-13.4c-0.1-1.9-5.1-1.5-5,0.5c0.3,5.6,0.5,11.2,0.8,16.8c0.1,2.3,0.7,4.3,1.8,6c-0.2,0.2-0.3,0.5-0.2,0.7
	c0.5,1.9,2,2.9,3.7,3.4c0.3,0.2,0.7,0.3,1,0.3c0,1.6,0.1,3.3,0.1,4.9c-1.7,6.1-2.5,12.2-2.5,18.6c0,4-0.5,14.6,4.7,15.7
	c4.1,0.9,4.8-2.5,4.8-5.6c0.4-0.3,0.7-0.6,0.7-1.1c0.7-9.4,0.1-18.7-1.5-28c-0.1-0.4-0.4-0.7-0.7-0.9l0.4-1.7c0.1-0.3,0-0.6-0.1-0.8
	c1.2-1.1,2.4-2.3,3.6-3.4c1.3-0.9,2.5-2,3.5-3.4C51.2,28.6,50.8,28.1,49.9,27.9z"/>
<path fill="none" stroke="#526C7D" stroke-width="2" stroke-linecap="round" stroke-linejoin="round" stroke-miterlimit="10" d="
	M31.2,6.7c-0.2,8.7-0.3,17.2,0,21.8"/>
<path fill="#FED378" d="M68.2,15.7c-0.3-3-1.4-5.6-4-7.5C64,8,63.5,7.9,63,7.9c0-0.1,0-0.1,0-0.2c-0.5-2-5.5-1.3-5,0.5
	c0.2,0.8,0.4,1.7,0.6,2.5c0,0.1-0.1,0.2-0.1,0.2C58,17,57.5,23,57,29.1c-1.8,4.4-3.3,9.9-1,12.3c-0.1,1.1-0.2,2.1-0.3,3.2
	c-0.7,9.3-3.5,20.6,1.8,28.9c0.8,1.3,3.8,1.1,4.6-0.1c2.8-4.2,2.4-9.5,2.1-14.3c-0.2-4.8-3.2-11.8-2-16.9c2.6-1.3,4.4-4.3,5-7.3
	c1.7-2.3,3-4.8,3.1-8.2C70.6,22.8,69.7,19.2,68.2,15.7z"/>
<path fill="none" stroke="#526C7D" stroke-width="2" stroke-linecap="round" stroke-linejoin="round" stroke-miterlimit="10" d="
	M31.2,28.5c1,3.4,3.3,5.7,6.4,7.4"/>
<path fill="none" stroke="#526C7D" stroke-width="2" stroke-linecap="round" stroke-linejoin="round" stroke-miterlimit="10" d="
	M34.8,27.6c0.6,2.1,2.1,3.5,4,4.6"/>
<path fill="none" stroke="#526C7D" stroke-width="2" stroke-linecap="round" stroke-linejoin="round" stroke-miterlimit="10" d="
	M37.6,35.9c0.5,0.4,0.7,0.9,0.6,1.6"/>
<path fill="none" stroke="#526C7D" stroke-width="2" stroke-linecap="round" stroke-linejoin="round" stroke-miterlimit="10" d="
	M36,58.4c-0.1,3.7-0.1,7.3,0.2,11"/>
<path fill="none" stroke="#526C7D" stroke-width="2" stroke-linecap="round" stroke-linejoin="round" stroke-miterlimit="10" d="
	M36.5,50.9c-0.1,1.1-0.2,2.3-0.3,3.4"/>
<path fill="none" stroke="#526C7D" stroke-width="2" stroke-linecap="round" stroke-linejoin="round" stroke-miterlimit="10" d="
	M38.2,37.4c-0.3,1.8-0.5,3.6-0.8,5.5"/>
<path fill="none" stroke="#526C7D" stroke-width="2" stroke-linecap="round" stroke-linejoin="round" stroke-miterlimit="10" d="
	M36.2,69.4c1.4,6.8,7.4,7.8,9.5,0"/>
<path fill="none" stroke="#526C7D" stroke-width="2" stroke-linecap="round" stroke-linejoin="round" stroke-miterlimit="10" d="
	M54.9,69.4c1.4,6.8,7.4,7.8,9.5,0"/>
<line fill="none" stroke="#526C7D" stroke-width="2" stroke-linecap="round" stroke-linejoin="round" stroke-miterlimit="10" x1="31.2" y1="6.7" x2="35.3" y2="6.3"/>
<line fill="none" stroke="#526C7D" stroke-width="2" stroke-linecap="round" stroke-linejoin="round" stroke-miterlimit="10" x1="35.3" y1="6.3" x2="35.3" y2="22.1"/>
<path fill="none" stroke="#526C7D" stroke-width="2" stroke-linecap="round" stroke-linejoin="round" stroke-miterlimit="10" d="
	M35.3,22.1c0,1.8,3.5,1.8,3.5,0"/>
<line fill="none" stroke="#526C7D" stroke-width="2" stroke-linecap="round" stroke-linejoin="round" stroke-miterlimit="10" x1="38.7" y1="22.1" x2="38.7" y2="6.1"/>
<path fill="none" stroke="#526C7D" stroke-width="2" stroke-linecap="round" stroke-linejoin="round" stroke-miterlimit="10" d="
	M50.7,6.7c0.2,8.7,0.3,17.2,0,21.8"/>
<path fill="none" stroke="#526C7D" stroke-width="2" stroke-linecap="round" stroke-linejoin="round" stroke-miterlimit="10" d="
	M50.7,28.5c-1,3.4-3.3,5.7-6.4,7.4"/>
<path fill="none" stroke="#526C7D" stroke-width="2" stroke-linecap="round" stroke-linejoin="round" stroke-miterlimit="10" d="
	M44.3,35.9c-0.5,0.4-0.7,0.9-0.6,1.6"/>
<path fill="none" stroke="#526C7D" stroke-width="2" stroke-linecap="round" stroke-linejoin="round" stroke-miterlimit="10" d="
	M43.7,37.4c1.7,11.7,2.8,22.8,2,32"/>
<line fill="none" stroke="#526C7D" stroke-width="2" stroke-linecap="round" stroke-linejoin="round" stroke-miterlimit="10" x1="50.7" y1="6.7" x2="46.6" y2="6.3"/>
<line fill="none" stroke="#526C7D" stroke-width="2" stroke-linecap="round" stroke-linejoin="round" stroke-miterlimit="10" x1="46.6" y1="6.3" x2="46.6" y2="22.1"/>
<path fill="none" stroke="#526C7D" stroke-width="2" stroke-linecap="round" stroke-linejoin="round" stroke-miterlimit="10" d="
	M46.6,22.1c0,1.8-3.5,1.8-3.5,0"/>
<line fill="none" stroke="#526C7D" stroke-width="2" stroke-linecap="round" stroke-linejoin="round" stroke-miterlimit="10" x1="43.1" y1="22.1" x2="43.1" y2="6.1"/>
<line fill="none" stroke="#526C7D" stroke-width="2" stroke-linecap="round" stroke-linejoin="round" stroke-miterlimit="10" x1="38.7" y1="6.1" x2="43.1" y2="6.1"/>
<path fill="none" stroke="#526C7D" stroke-width="2" stroke-linecap="round" stroke-linejoin="round" stroke-miterlimit="10" d="
	M54.9,65.7c0,1.2,0,2.5,0,3.7"/>
<path fill="none" stroke="#526C7D" stroke-width="2" stroke-linecap="round" stroke-linejoin="round" stroke-miterlimit="10" d="
	M57.3,6.3c0.9,18.6-2.5,36.8-2.4,55.3"/>
<path fill="none" stroke="#526C7D" stroke-width="2" stroke-linecap="round" stroke-linejoin="round" stroke-miterlimit="10" d="
	M64.4,69.4c0.8-6.9,0.6-13.6-1.1-19.9"/>
<path fill="none" stroke="#526C7D" stroke-width="2" stroke-linecap="round" stroke-linejoin="round" stroke-miterlimit="10" d="
	M63.3,49.5c-1.2-2.8-1.3-5.6,0-8.3"/>
<path fill="none" stroke="#526C7D" stroke-width="2" stroke-linecap="round" stroke-linejoin="round" stroke-miterlimit="10" d="
	M63.3,41.2c3.4-2.7,5.8-6.4,6.8-11.5"/>
<path fill="none" stroke="#526C7D" stroke-width="2" stroke-linecap="round" stroke-linejoin="round" stroke-miterlimit="10" d="
	M70.1,29.7C70.7,16,68,6.4,57.3,6.3"/>
<line fill="none" stroke="#FFFFFF" stroke-width="2" stroke-linecap="round" stroke-linejoin="round" stroke-miterlimit="10" x1="60.4" y1="9.9" x2="60.4" y2="17.6"/>
<line fill="none" stroke="#FFFFFF" stroke-width="2" stroke-linecap="round" stroke-linejoin="round" stroke-miterlimit="10" x1="60.2" y1="20.4" x2="60" y2="23.8"/>
</svg>
