<?xml version="1.0" encoding="utf-8"?>
<!-- Generator: Adobe Illustrator 17.1.0, SVG Export Plug-In . SVG Version: 6.00 Build 0)  -->
<!DOCTYPE svg PUBLIC "-//W3C//DTD SVG 1.1//EN" "http://www.w3.org/Graphics/SVG/1.1/DTD/svg11.dtd">
<svg version="1.1" id="Слой_1" xmlns="http://www.w3.org/2000/svg" xmlns:xlink="http://www.w3.org/1999/xlink" x="0px" y="0px"
	 width="77.5px" height="66.8px" viewBox="11.5 6.3 77.5 66.8" enable-background="new 11.5 6.3 77.5 66.8" xml:space="preserve">
<circle fill="#99CCEE" cx="45.4" cy="39.8" r="31.5"/>
<path fill="#FED378" d="M52.2,34.1c-1-2.1-3.3-3.6-5.6-3.5c-0.6-1.1-2-1.9-3.5-1.2c-2.6,1.2-5.4,2.8-6.7,5.4c0,0,0,0-0.1,0
	c-1.3,0.3-2.2,1.8-1.7,3.1c0,0.1,0.1,0.3,0.1,0.4c0.2,0.5,0.5,1,0.9,1.3c0.2,3.2,1.4,7.5,4.3,8.2c3.2,0.8,8.4,0.9,11.1-1.3
	c1.3-1,1.3-3.3,1.4-4.8C52.7,39.2,53.2,36.4,52.2,34.1z"/>
<path fill="#FED378" d="M24,26.4c0-0.9-0.6-1.7-1.3-2.1c0.1-0.3,0.2-0.5,0.3-0.8c1-3.1-3.8-4.4-4.8-1.3c-0.8,2.3-1.6,4.6-2.3,6.9
	c-0.2,0.3-0.5,0.6-0.7,0.8c-2.1,2.4,1.4,6,3.5,3.5c0.2-0.3,0.5-0.6,0.7-0.8C22.2,31.8,24.1,29.5,24,26.4z"/>
<path fill="#FED378" d="M50.3,8.3c-0.4,0-0.8,0-1.2,0c-1.9,0.1-3.7,0.1-5.6,0.2c-0.6,0-1.1,0.2-1.5,0.5c-0.3-0.3-0.5-0.5-0.7-0.7
	C39,6,35.5,9.6,37.8,11.8c1.7,1.6,3.5,3.3,5.9,3.7c1.1,0.2,2.2,0,3.2-0.5c1.1-0.6,2.2-1.9,3.4-1.8C53.6,13.2,53.5,8.6,50.3,8.3z"/>
<path fill="#FED378" d="M76.2,30.3l-5.1-9.6c-1.5-2.8-5.8-0.3-4.3,2.5c0.2,0.3,0.3,0.6,0.5,0.9c-0.3,0.3-0.6,0.6-0.8,1
	c-0.3,0.9-0.7,1.7-1,2.6c-0.6,1.4,0.9,3.4,2.4,3.2c0.8-0.1,1.5,0.6,2.1,1c0.9,0.6,1.9,1.2,2.8,1.8C75,35.1,77.3,32.4,76.2,30.3z"/>
<path fill="#FED378" d="M67,57.9c-2.6-0.2-5.2-0.5-7.8-0.7c-2-0.2-2.8,1.7-2.2,3.3c-0.2,0.2-0.4,0.5-0.5,0.8
	c-0.8,1.9-1.5,3.7-2.3,5.6c-1,2.3,2.6,4.3,4.2,2.4c2.5-3,5.6-5.2,9.3-6.4C70.4,61.9,69.8,58.2,67,57.9z"/>
<path fill="#FED378" d="M34.2,65.4c-0.1-0.2-0.2-0.4-0.3-0.6l0,0l-0.1-0.1c-0.4-0.8-0.8-1.4-1.4-2c-0.4-0.5-0.8-1-1.2-1.4
	c0.6-1.8-1.4-4.2-3.7-3c-0.1,0.1-0.2,0.1-0.3,0.2c-1.2-0.5-2.4-0.9-3.7-1.3c-3.1-0.9-4.4,3.9-1.3,4.8c0.9,0.3,1.7,0.5,2.5,0.9
	c0.1,0.4,0.2,0.8,0.4,1.2c0.6,1,1.5,1.4,2.5,1.8c0.4,0.1,0.8,0.2,1.2,0.4c0.3,0.4,0.5,0.8,0.8,1.2C31.1,69.5,35.3,68.1,34.2,65.4z"
	/>
<line fill="none" stroke="#526C7D" stroke-width="2" stroke-linecap="round" stroke-linejoin="round" stroke-miterlimit="10" x1="22.4" y1="18.3" x2="24.6" y2="29.9"/>
<line fill="none" stroke="#526C7D" stroke-width="2" stroke-linecap="round" stroke-linejoin="round" stroke-miterlimit="10" x1="24.6" y1="29.9" x2="14.2" y2="35.3"/>
<line fill="none" stroke="#526C7D" stroke-width="2" stroke-linecap="round" stroke-linejoin="round" stroke-miterlimit="10" x1="34.4" y1="36.1" x2="44.1" y2="27.9"/>
<line fill="none" stroke="#526C7D" stroke-width="2" stroke-linecap="round" stroke-linejoin="round" stroke-miterlimit="10" x1="44.1" y1="27.9" x2="53.6" y2="36.1"/>
<line fill="none" stroke="#526C7D" stroke-width="2" stroke-linecap="round" stroke-linejoin="round" stroke-miterlimit="10" x1="53.6" y1="36.1" x2="50.4" y2="47.9"/>
<line fill="none" stroke="#526C7D" stroke-width="2" stroke-linecap="round" stroke-linejoin="round" stroke-miterlimit="10" x1="50.4" y1="47.9" x2="38" y2="47.9"/>
<line fill="none" stroke="#526C7D" stroke-width="2" stroke-linecap="round" stroke-linejoin="round" stroke-miterlimit="10" x1="38" y1="47.9" x2="34.4" y2="36.1"/>
<line fill="none" stroke="#526C7D" stroke-width="2" stroke-linecap="round" stroke-linejoin="round" stroke-miterlimit="10" x1="24.6" y1="29.9" x2="34.4" y2="36.1"/>
<line fill="none" stroke="#526C7D" stroke-width="2" stroke-linecap="round" stroke-linejoin="round" stroke-miterlimit="10" x1="44.1" y1="27.9" x2="44.1" y2="17.2"/>
<line fill="none" stroke="#526C7D" stroke-width="2" stroke-linecap="round" stroke-linejoin="round" stroke-miterlimit="10" x1="44.1" y1="17.2" x2="54.6" y2="9.7"/>
<line fill="none" stroke="#526C7D" stroke-width="2" stroke-linecap="round" stroke-linejoin="round" stroke-miterlimit="10" x1="44.1" y1="17.2" x2="36.2" y2="9.7"/>
<line fill="none" stroke="#526C7D" stroke-width="2" stroke-linecap="round" stroke-linejoin="round" stroke-miterlimit="10" x1="53.6" y1="36.1" x2="65.1" y2="29.9"/>
<line fill="none" stroke="#526C7D" stroke-width="2" stroke-linecap="round" stroke-linejoin="round" stroke-miterlimit="10" x1="65.1" y1="29.9" x2="68.4" y2="18.3"/>
<line fill="none" stroke="#526C7D" stroke-width="2" stroke-linecap="round" stroke-linejoin="round" stroke-miterlimit="10" x1="65.1" y1="29.9" x2="76.6" y2="35.3"/>
<line fill="none" stroke="#526C7D" stroke-width="2" stroke-linecap="round" stroke-linejoin="round" stroke-miterlimit="10" x1="50.4" y1="47.9" x2="57.5" y2="57.2"/>
<line fill="none" stroke="#526C7D" stroke-width="2" stroke-linecap="round" stroke-linejoin="round" stroke-miterlimit="10" x1="57.5" y1="57.2" x2="70.8" y2="58.4"/>
<line fill="none" stroke="#526C7D" stroke-width="2" stroke-linecap="round" stroke-linejoin="round" stroke-miterlimit="10" x1="57.5" y1="57.2" x2="53.6" y2="70.2"/>
<line fill="none" stroke="#526C7D" stroke-width="2" stroke-linecap="round" stroke-linejoin="round" stroke-miterlimit="10" x1="38" y1="47.9" x2="30.8" y2="57.8"/>
<circle fill="none" stroke="#526C7D" stroke-width="2.0094" stroke-miterlimit="10" cx="45" cy="39.7" r="31.7"/>
<line fill="none" stroke="#526C7D" stroke-width="2" stroke-linecap="round" stroke-linejoin="round" stroke-miterlimit="10" x1="30.8" y1="57.8" x2="34.4" y2="69.3"/>
<line fill="none" stroke="#526C7D" stroke-width="2" stroke-linecap="round" stroke-linejoin="round" stroke-miterlimit="10" x1="30.8" y1="57.8" x2="19.4" y2="57.2"/>
<line fill="none" stroke="#526C7D" stroke-width="2" stroke-linecap="round" stroke-linejoin="round" stroke-miterlimit="10" x1="19.4" y1="71.3" x2="68.4" y2="71.3"/>
<line fill="none" stroke="#526C7D" stroke-width="2" stroke-linecap="round" stroke-linejoin="round" stroke-miterlimit="10" x1="76.9" y1="70.9" x2="87.2" y2="70.9"/>
</svg>
