<svg xmlns="http://www.w3.org/2000/svg" xmlns:xlink="http://www.w3.org/1999/xlink" x="0px" y="0px"
	 width="28px" height="22px" viewBox="4.3 2.6 90.2 70.8" enable-background="new 4.3 2.6 90.2 70.8" xml:space="preserve">
<path fill="#99CCEE" d="M82.2,15C72.3,11.8,62,7.1,51.7,5.5c-3.6-0.6-7,0.8-10.3,2L34.5,10c-0.4,0-0.8,0-1.1,0.2
	c-3.1,1.2-6.1,2.3-9.2,3.5c-2.4,0.6-4.8,1-7.3,1.4c-3,0.4-2.7,3.2,0.3,2.8c1.8-0.2,3.5-0.5,5.3-0.9c0.8,0.4,1.9,0.3,2.6,0.2
	c0.5-0.1,1.1-0.2,1.6-0.3c0.2,0.4,0.8,0.7,1.6,0.7c17.4,1.7,34.9,1,52.4,0.1C81.9,17.6,84.4,15.7,82.2,15z"/>
<line fill="none" stroke="#526C7D" stroke-width="2" stroke-linecap="round" stroke-linejoin="round" stroke-miterlimit="10" x1="14.6" y1="19.7" x2="83.6" y2="19.7"/>
<line fill="none" stroke="#526C7D" stroke-width="2" stroke-linecap="round" stroke-linejoin="round" stroke-miterlimit="10" x1="10.8" y1="17.4" x2="87.4" y2="17.4"/>
<line fill="none" stroke="#526C7D" stroke-width="2" stroke-linecap="round" stroke-linejoin="round" stroke-miterlimit="10" x1="14.6" y1="65" x2="83.6" y2="65"/>
<path fill="#99CCEE" d="M30.5,58.4c-0.2,0-0.3,0-0.5,0c0.2-0.2,0.3-0.5,0.3-0.8c-0.1-5.1-0.2-10.3-0.2-15.4c0-0.7-0.2-2.9-0.3-5.5
	c0.2-1.8,0.4-3.6,0.7-5.4c0.1-0.5-0.2-0.9-0.6-1.2c0.2-0.7,0.2-1.5-0.1-2.4c0.2-1.2,0.4-2,0.9-2.2c2.7-0.9,1.4-2.9-1-2.7
	c-3,0.2-6,0.4-9,0.6c-2.4,0.1-3.2,2.7-0.4,2.9c1.7,0.1,0.9,2.5,0.9,2.9c0,0.1,0.1,0.9,0,1c-0.3,0.2-0.4,0.6-0.4,1
	c0,6.9,0.2,13.6-0.2,20.2c-0.1,2.6-0.7,5.2-1.1,7.8c-0.4,0.4-0.4,0.9-0.2,1.3c0,0.1,0,0.1,0,0.2c-0.3,1.4,1.6,1.6,2.6,1.5
	c2.7-0.3,5.4-0.6,8.2-0.9C32.4,61,33.4,58.4,30.5,58.4z"/>
<path fill="#99CCEE" d="M54.4,58.4c-0.2,0-0.3,0-0.5,0c0.2-0.2,0.3-0.5,0.3-0.8C54.1,52.5,54,47.3,54,42.2c0-0.7-0.2-2.9-0.3-5.5
	c0.2-1.8,0.4-3.6,0.7-5.4c0.1-0.5-0.2-0.9-0.6-1.2c0.2-0.7,0.2-1.5-0.1-2.4c0.2-1.2,0.4-2,0.9-2.2c2.7-0.9,1.4-2.9-1-2.7
	c-3,0.2-6,0.4-9,0.6c-2.4,0.1-3.2,2.7-0.4,2.9c1.7,0.1,0.9,2.5,0.9,2.9c0,0.1,0.1,0.9,0,1c-0.3,0.2-0.4,0.6-0.4,1
	c0,6.9,0.2,13.6-0.2,20.2c-0.1,2.6-0.7,5.2-1.1,7.8c-0.4,0.4-0.4,0.9-0.2,1.3c0,0.1,0,0.1,0,0.2c-0.3,1.4,1.6,1.6,2.6,1.5
	c2.7-0.3,5.4-0.6,8.2-0.9C56.4,61,57.3,58.4,54.4,58.4z"/>
<path fill="#99CCEE" d="M79.7,58.4c-0.2,0-0.3,0-0.5,0c0.2-0.2,0.3-0.5,0.3-0.8c-0.1-5.1-0.2-10.3-0.2-15.4c0-0.7-0.2-2.9-0.3-5.5
	c0.2-1.8,0.4-3.6,0.7-5.4c0.1-0.5-0.2-0.9-0.6-1.2c0.2-0.7,0.2-1.5-0.1-2.4c0.2-1.2,0.4-2,0.9-2.2c2.7-0.9,1.4-2.9-1-2.7
	c-3,0.2-6,0.4-9,0.6c-2.4,0.1-3.2,2.7-0.4,2.9c1.7,0.1,0.9,2.5,0.9,2.9c0,0.1,0.1,0.9,0,1c-0.3,0.2-0.4,0.6-0.4,1
	c0,6.9,0.2,13.6-0.2,20.2c-0.1,2.6-0.7,5.2-1.1,7.8c-0.4,0.4-0.4,0.9-0.2,1.3c0,0.1,0,0.1,0,0.2c-0.3,1.4,1.6,1.6,2.6,1.5
	c2.7-0.3,5.4-0.6,8.2-0.9C81.6,61,82.5,58.4,79.7,58.4z"/>
<line fill="none" stroke="#526C7D" stroke-width="2" stroke-linecap="round" stroke-linejoin="round" stroke-miterlimit="10" x1="21" y1="68.5" x2="88.9" y2="68.5"/>
<line fill="none" stroke="#526C7D" stroke-width="2" stroke-linecap="round" stroke-linejoin="round" stroke-miterlimit="10" x1="8.5" y1="68.5" x2="16.6" y2="68.5"/>
<line fill="none" stroke="#526C7D" stroke-width="2" stroke-linecap="round" stroke-linejoin="round" stroke-miterlimit="10" x1="6" y1="72.1" x2="67.7" y2="72.1"/>
<line fill="none" stroke="#526C7D" stroke-width="2" stroke-linecap="round" stroke-linejoin="round" stroke-miterlimit="10" x1="71.8" y1="72.1" x2="93.3" y2="72.1"/>
<path fill="none" stroke="#526C7D" stroke-width="2" stroke-linecap="round" stroke-linejoin="round" stroke-miterlimit="10" d="
	M21,42.9c0,5,0,10.1,0,15.1"/>
<path fill="none" stroke="#526C7D" stroke-width="2" stroke-linecap="round" stroke-linejoin="round" stroke-miterlimit="10" d="
	M21,26.8c0,2.2,0,4.3,0,6.5"/>
<line fill="none" stroke="#526C7D" stroke-width="2" stroke-linecap="round" stroke-linejoin="round" stroke-miterlimit="10" x1="30.3" y1="26.8" x2="30.3" y2="58"/>
<path fill="#FED277" stroke="#526C7D" stroke-width="2" stroke-miterlimit="10" d="M32.4,24.4c0,1-0.7,1.8-1.5,1.8H20.2
	c-0.9,0-1.5-0.8-1.5-1.8v-0.3c0-1,0.7-1.8,1.5-1.8h10.6c0.9,0,1.5,0.8,1.5,1.8L32.4,24.4L32.4,24.4z"/>
<path fill="#FED277" stroke="#526C7D" stroke-width="2" stroke-miterlimit="10" d="M32.4,60.1c0,1-0.7,1.8-1.5,1.8H20.2
	c-0.9,0-1.5-0.8-1.5-1.8v-0.3c0-1,0.7-1.8,1.5-1.8h10.6c0.9,0,1.5,0.8,1.5,1.8L32.4,60.1L32.4,60.1z"/>
<line fill="none" stroke="#526C7D" stroke-width="2" stroke-linecap="round" stroke-linejoin="round" stroke-miterlimit="10" x1="44.7" y1="26.8" x2="44.7" y2="58"/>
<line fill="none" stroke="#526C7D" stroke-width="2" stroke-linecap="round" stroke-linejoin="round" stroke-miterlimit="10" x1="54" y1="26.8" x2="54" y2="58"/>
<path fill="#FED277" stroke="#526C7D" stroke-width="2" stroke-miterlimit="10" d="M56.2,24.4c0,1-0.7,1.8-1.5,1.8H44
	c-0.9,0-1.5-0.8-1.5-1.8v-0.3c0-1,0.7-1.8,1.5-1.8h10.6c0.9,0,1.5,0.8,1.5,1.8v0.3H56.2z"/>
<path fill="#FED277" stroke="#526C7D" stroke-width="2" stroke-miterlimit="10" d="M56.2,60.1c0,1-0.7,1.8-1.5,1.8H44
	c-0.9,0-1.5-0.8-1.5-1.8v-0.3c0-1,0.7-1.8,1.5-1.8h10.6c0.9,0,1.5,0.8,1.5,1.8v0.3H56.2z"/>
<line fill="none" stroke="#526C7D" stroke-width="2" stroke-linecap="round" stroke-linejoin="round" stroke-miterlimit="10" x1="70" y1="26.8" x2="70" y2="58"/>
<line fill="none" stroke="#526C7D" stroke-width="2" stroke-linecap="round" stroke-linejoin="round" stroke-miterlimit="10" x1="79.3" y1="26.8" x2="79.3" y2="58"/>
<path fill="#FED277" stroke="#526C7D" stroke-width="2" stroke-miterlimit="10" d="M81.4,24.4c0,1-0.7,1.8-1.5,1.8H69.2
	c-0.9,0-1.5-0.8-1.5-1.8v-0.3c0-1,0.7-1.8,1.5-1.8h10.6c0.9,0,1.5,0.8,1.5,1.8v0.3H81.4z"/>
<path fill="#FED277" stroke="#526C7D" stroke-width="2" stroke-miterlimit="10" d="M81.4,60.1c0,1-0.7,1.8-1.5,1.8H69.2
	c-0.9,0-1.5-0.8-1.5-1.8v-0.3c0-1,0.7-1.8,1.5-1.8h10.6c0.9,0,1.5,0.8,1.5,1.8v0.3H81.4z"/>
<line fill="none" stroke="#526C7D" stroke-width="2" stroke-linecap="round" stroke-linejoin="round" stroke-miterlimit="10" x1="10.8" y1="17.4" x2="49.3" y2="4.2"/>
<line fill="none" stroke="#526C7D" stroke-width="2" stroke-linecap="round" stroke-linejoin="round" stroke-miterlimit="10" x1="49.3" y1="4.2" x2="87.4" y2="17.4"/>
<circle fill="#FED277" stroke="#526C7D" stroke-width="2" stroke-miterlimit="10" cx="49.1" cy="11.5" r="3.2"/>
<line fill="none" stroke="#526C7D" stroke-width="2" stroke-linecap="round" stroke-linejoin="round" stroke-miterlimit="10" x1="21" y1="36.4" x2="21" y2="37.5"/>
</svg>
