<svg xmlns="http://www.w3.org/2000/svg" xmlns:xlink="http://www.w3.org/1999/xlink" x="0px" y="0px"
	 width="24px" height="20px" viewBox="13.7 6.6 78.3 63.8" enable-background="new 13.7 6.6 78.3 63.8" xml:space="preserve">
<path fill="#99CCEE" d="M65.6,11.8c-0.2-0.1-0.4-0.2-0.6-0.2c-1-0.3-2.1-0.5-3.1-0.8c-0.3-0.4-0.7-0.8-1.4-0.9
	C53.1,8.4,45.9,9,38.9,11.8c0,0,0,0-0.1,0c-0.3,0-0.6,0.1-0.9,0.1c-0.6,0.1-1.1,0.3-1.4,0.6c-0.8-0.6-1.8-0.7-2.7-0.2
	c-2.7,1.5-5.9,4.2-8.4,7.3c-3.9,3.5-6.8,8.1-8.1,14.2c-0.1,0.7,0,1.3,0.2,1.8c0,0.1,0,0.1,0,0.2c-0.2,0.6-0.1,1.1,0,1.5
	c-1.4,2.5-1.5,5.9-1.3,9c0.4,6.7,3.1,13.1,8,17.6c4.5,4.1,11,5.3,16.8,3.7c1.1-0.3,2-0.8,2.9-1.3c3-0.7,6-3.4,6.4-6.3
	c2.1-2.4,4.2-4.7,7.3-5.7c7.1-2.3,14.8,1.4,22.1-1.5c5.6-2.2,10-6.9,10.1-14.5S88.6,22.7,65.6,11.8z"/>
<path fill="none" stroke="#526C7D" stroke-width="2" stroke-linecap="round" stroke-linejoin="round" stroke-miterlimit="10" d="
	M32.3,13.9c13.8-8.7,34.2-8.3,53.2,10.3"/>
<path fill="none" stroke="#526C7D" stroke-width="2" stroke-linecap="round" stroke-linejoin="round" stroke-miterlimit="10" d="
	M16.3,50.7c-1.2-6.5-0.6-12.8,1.4-18.5"/>
<path fill="none" stroke="#526C7D" stroke-width="2" stroke-linecap="round" stroke-linejoin="round" stroke-miterlimit="10" d="
	M85.5,24.2c7.5,9.1,5.9,18.1-1.9,26.9"/>
<path fill="none" stroke="#526C7D" stroke-width="2" stroke-linecap="round" stroke-linejoin="round" stroke-miterlimit="10" d="
	M82.4,27.1c5.5,6.7,4.4,13.4-1.4,19.9"/>
<path fill="none" stroke="#526C7D" stroke-width="2" stroke-linecap="round" stroke-linejoin="round" stroke-miterlimit="10" d="
	M83.6,51.1c-6.9,6.9-17.8,0.2-25.5,2.6"/>
<path fill="none" stroke="#526C7D" stroke-width="2" stroke-linecap="round" stroke-linejoin="round" stroke-miterlimit="10" d="
	M58.1,53.7C50.2,56.9,49,68.6,39,68.6"/>
<path fill="none" stroke="#526C7D" stroke-width="2" stroke-linecap="round" stroke-linejoin="round" stroke-miterlimit="10" d="
	M39.1,68.6C28.3,70.3,21,63.9,16.5,51.1"/>
<circle fill="#FFFFFF" stroke="#526C7D" stroke-width="2" stroke-linecap="round" stroke-linejoin="round" stroke-miterlimit="10" cx="35.9" cy="55.6" r="6.4"/>
<circle fill="#FED277" stroke="#526C7D" stroke-width="2" stroke-miterlimit="10" cx="28.4" cy="38.7" r="6.4"/>
<circle fill="#FED277" stroke="#526C7D" stroke-width="2" stroke-miterlimit="10" cx="42.2" cy="23" r="6.4"/>
<circle fill="#FED277" stroke="#526C7D" stroke-width="2" stroke-miterlimit="10" cx="62" cy="22" r="6.4"/>
<circle fill="#FED277" stroke="#526C7D" stroke-width="2" stroke-miterlimit="10" cx="73.7" cy="37.1" r="6.4"/>
<path fill="none" stroke="#526C7D" stroke-width="2" stroke-linecap="round" stroke-linejoin="round" stroke-miterlimit="10" d="
	M19.5,27.8c1.1-2,2.3-3.9,3.7-5.8"/>
</svg>
