<svg id="SvgjsSvg1017" xmlns="http://www.w3.org/2000/svg" version="1.1" xmlns:xlink="http://www.w3.org/1999/xlink" xmlns:svgjs="http://svgjs.com/svgjs" width="13" height="13" viewBox="0 0 13 13">
    <path id="SvgjsPath1019" d="M232.483 938.75L232.485 938.75C233.20100000000002 938.75 233.781 939.33 233.781 940.046L233.781 949.235C233.781 949.951 233.201 950.5310000000001 232.485 950.5310000000001L232.483 950.5310000000001C231.768 950.5310000000001 231.187 949.951 231.187 949.235L231.187 940.046C231.187 939.33 231.768 938.75 232.483 938.75Z " fill="#8f9ea6" fill-opacity="1" transform="matrix(1,0,0,1,-226,-938)"></path>
    <path id="SvgjsPath1020" d="M227.844 943.344L237.125 943.344C237.833 943.344 238.406 943.917 238.406 944.625C238.406 945.333 237.833 945.906 237.125 945.906L227.844 945.906C227.136 945.906 226.563 945.333 226.563 944.625C226.563 943.917 227.136 943.344 227.844 943.344Z " fill="#8f9ea6" fill-opacity="1" transform="matrix(1,0,0,1,-226,-938)"></path>
</svg>